{
.formatVersion = 3;
axes = (
{
name = Weight;
tag = wght;
}
);
familyName = "Esploratrice VF";
customParameters = (
{
name = glyphOrder;
value = (
A,
Aacute,
Acircumflex,
Adieresis,
Agrave,
Aring,
Atilde,
AE,
B,
C,
Ccedilla,
D,
Eth,
E,
Eacute,
Ecircumflex,
Edieresis,
Egrave,
F,
G,
H,
I,
IJ,
Iacute,
Icircumflex,
Idieresis,
Igrave,
J,
Jacute,
K,
L,
M,
N,
Ntilde,
O,
Oacute,
Ocircumflex,
Odieresis,
Ograve,
Oslash,
Otilde,
OE,
P,
Thorn,
Q,
R,
S,
Scaron,
Germandbls,
T,
U,
Uacute,
Ucircumflex,
Udieresis,
Ugrave,
V,
W,
Wacute,
Wcircumflex,
Wdieresis,
Wgrave,
X,
Y,
Yacute,
Ycircumflex,
Ydieresis,
Ygrave,
Z,
Zcaron,
Abreve,
Amacron,
Aogonek,
Cacute,
Ccaron,
Cdotaccent,
Dcaron,
Dcroat,
Ecaron,
Edotaccent,
Emacron,
Eogonek,
Schwa,
Gbreve,
Gcommaaccent,
Gdotaccent,
Hbar,
Idotaccent,
Imacron,
Iogonek,
Kcommaaccent,
Lacute,
Lcaron,
Lcommaaccent,
Lslash,
Nacute,
Ncaron,
Ncommaaccent,
Ohungarumlaut,
Omacron,
Racute,
Rcaron,
Rcommaaccent,
Sacute,
Scedilla,
Scommaaccent,
Tcaron,
Tcedilla,
Tcommaaccent,
Uhungarumlaut,
Umacron,
Uogonek,
Uring,
Zacute,
Zdotaccent,
a,
aacute,
acircumflex,
adieresis,
agrave,
aring,
atilde,
ae,
b,
c,
ccedilla,
d,
eth,
e,
eacute,
ecircumflex,
edieresis,
egrave,
f,
g,
h,
i,
iacute,
icircumflex,
idieresis,
igrave,
ij,
j,
jdotless,
jacute,
k,
l,
m,
n,
ntilde,
o,
oacute,
ocircumflex,
odieresis,
ograve,
oslash,
otilde,
oe,
p,
thorn,
q,
r,
s,
scaron,
germandbls,
t,
u,
uacute,
ucircumflex,
udieresis,
ugrave,
v,
w,
wacute,
wcircumflex,
wdieresis,
wgrave,
x,
y,
yacute,
ycircumflex,
ydieresis,
ygrave,
z,
zcaron,
abreve,
amacron,
aogonek,
cacute,
ccaron,
cdotaccent,
dcaron,
dcroat,
ecaron,
edotaccent,
emacron,
eogonek,
schwa,
gbreve,
gcommaaccent,
gdotaccent,
hbar,
idotless,
idotaccent,
imacron,
iogonek,
kcommaaccent,
lacute,
lcaron,
lcommaaccent,
lslash,
nacute,
ncaron,
ncommaaccent,
ohungarumlaut,
omacron,
racute,
rcaron,
rcommaaccent,
sacute,
scedilla,
scommaaccent,
tcaron,
tcedilla,
tcommaaccent,
uhungarumlaut,
umacron,
uogonek,
uring,
zacute,
zdotaccent,

glyphs = (
{
glyphname = A;
layers = (
{
layerId = "1F17B74D-52E6-4BF2-8D04-B3A6A6EA3EA4";
associatedMasterId = "49638240-DECC-40F3-A1FC-C881920BB771";
name = "from logotype 1013";
shapes = (
{
closed = 1;
nodes = (
(262,690,l),
(400,0,l),
(555,0,l),
(404,700,l),
(156,700,l),
(5,0,l),
(160,0,l),
(298,690,l)
);
},
{
closed = 1;
nodes = (
(96,150,l),
(464,150,l),
(464,290,l),
(96,290,l)
);
}
);
width = 560;
},
{
layerId = "58AD6858-F3A5-4014-95A1-BE8604E19580";
associatedMasterId = "49638240-DECC-40F3-A1FC-C881920BB771";
name = "Oct 4, 22, 14:52";
shapes = (
{
closed = 1;
nodes = (
(-10,0,l),
(170,0,l),
(290,700,l),
(120,700,l)
);
},
{
closed = 1;
nodes = (
(280,700,l),
(400,0,l),
(580,0,l),
(450,700,l)
);
},
{
closed = 1;
nodes = (
(101,172,l),
(469,172,l),
(469,318,l),
(101,318,l)
);
}
);
width = 570;
},
{
layerId = "F1871F89-E913-4918-BE8E-C859F4764A07";
associatedMasterId = "49638240-DECC-40F3-A1FC-C881920BB771";
name = "Oct 20, 22, 14:03";
shapes = (
{
closed = 1;
nodes = (
(10,0,l),
(173,0,l),
(305,700,l),
(158,700,l)
);
},
{
closed = 1;
nodes = (
(265,700,l),
(397,0,l),
(560,0,l),
(412,700,l)
);
},
{
closed = 1;
nodes = (
(101,147,l),
(469,147,l),
(469,293,l),
(101,293,l)
);
}
);
width = 570;
},
{
layerId = "21CD5C72-C07F-4F86-BA58-DB092F43D9C1";
associatedMasterId = "49638240-DECC-40F3-A1FC-C881920BB771";
name = "Oct 13, 22, 17:07";
shapes = (
{
closed = 1;
nodes = (
(10,0,l),
(173,0,l),
(285,700,l),
(133,700,l)
);
},
{
closed = 1;
nodes = (
(265,700,l),
(377,0,l),
(540,0,l),
(417,700,l)
);
},
{
closed = 1;
nodes = (
(91,156,l),
(459,156,l),
(459,308,l),
(91,308,l)
);
}
);
width = 550;
},
{
layerId = "69218D66-BF92-4007-8CC0-C84BC0BFC7F9";
associatedMasterId = "49638240-DECC-40F3-A1FC-C881920BB771";
name = "Oct 11, 22, 16:07";
shapes = (
{
closed = 1;
nodes = (
(10,0,l),
(173,0,l),
(280,700,l),
(128,700,l)
);
},
{
closed = 1;
nodes = (
(270,700,l),
(377,0,l),
(540,0,l),
(422,700,l)
);
},
{
closed = 1;
nodes = (
(91,156,l),
(459,156,l),
(459,308,l),
(91,308,l)
);
}
);
width = 550;
},
{
anchors = (
{
name = bottom;
position = "{295, 0}";
},
{
name = ogonek;
position = "{580, 0}";
},
{
name = top;
position = "{295, 700}";
}
);
hints = (
{
name = _corner.sharp;
options = 2;
origin = (0,1);
type = Corner;
}
);
layerId = "49638240-DECC-40F3-A1FC-C881920BB771";
shapes = (
{
closed = 1;
nodes = (
(173,0,l),
(313,700,l,{name = cr01;}),
(271,700,l),
(417,0,l),
(581,0,l),
(423,700,l),
(165,700,l),
(10,0,l)
);
},
{
closed = 1;
nodes = (
(479,147,l),
(479,293,l),
(111,293,l),
(111,147,l)
);
}
);
width = 590;
},
{
anchors = (
{
name = bottom;
position = "{295, 0}";
},
{
name = ogonek;
position = "{570, 0}";
},
{
name = top;
position = "{295, 700}";
}
);
hints = (
{
name = _corner.sharp;
options = 2;
origin = (0,2);
type = Corner;
}
);
layerId = "73ED2421-F6F8-4906-A342-323A6625E188";
associatedMasterId = "BC44314D-ED22-409A-ACDF-E854CADB3608";
name = "Jan 13, 23, 17:19";
shapes = (
{
closed = 1;
nodes = (
(20,0,l),
(103,0,l),
(306,700,l,{name = cr01;}),
(230,700,l)
);
},
{
closed = 1;
nodes = (
(280,700,l),
(487,0,l),
(570,0,l),
(359,700,l)
);
},
{
closed = 1;
nodes = (
(121,207,l),
(469,207,l),
(469,281,l),
(121,281,l)
);
}
);
width = 590;
},
{
anchors = (
{
name = bottom;
position = "{295, 0}";
},
{
name = ogonek;
position = "{570, 0}";
},
{
name = top;
position = "{295, 700}";
}
);
hints = (
{
name = _corner.sharp;
options = 2;
origin = (0,1);
type = Corner;
}
);
layerId = "BC44314D-ED22-409A-ACDF-E854CADB3608";
shapes = (
{
closed = 1;
nodes = (
(103,0,l),
(306,700,l,{name = cr01;}),
(279,700,l),
(487,0,l),
(571,0,l),
(360,700,l),
(230,700,l),
(20,0,l)
);
},
{
closed = 1;
nodes = (
(469,207,l),
(469,281,l),
(121,281,l),
(121,207,l)
);
}
);
width = 591;
},
{
anchors = (
{
name = bottom;
position = "{295, 0}";
},
{
name = ogonek;
position = "{566, 0}";
},
{
name = top;
position = "{295, 700}";
}
);
layerId = "D7099DF3-6127-46B3-A8CF-22E12F13B3B7";
shapes = (
{
closed = 1;
nodes = (
(75,0,l),
(272,606,l),
(304,701,l),
(303,702,l),
(205,700,l),
(282,700,l),
(515,0,l),
(567,0,l),
(335,700,l),
(256,700,l),
(24,0,l)
);
},
{
closed = 1;
nodes = (
(465,231,l),
(465,276,l),
(125,276,l),
(125,231,l)
);
}
);
width = 591;
}
);
leftKerningGroup = A;
rightKerningGroup = A;
unicode = 65;
},
{
glyphname = AE;
layers = (
{
layerId = "15187948-5E2B-4937-84A8-F930C78DD539";
name = "#instance";
shapes = (
{
closed = 1;
nodes = (
(14,0,l),
(72,0,l),
(522,700,l),
(466,700,l)
);
},
{
closed = 1;
nodes = (
(195,231,l),
(511,231,l),
(511,276,l),
(195,276,l)
);
},
{
closed = 1;
nodes = (
(468,652,l),
(491,652,l),
(496,656,l),
(852,656,l),
(852,700,l),
(468,700,l)
);
},
{
closed = 1;
nodes = (
(486,0,l),
(538,0,l),
(538,657,l),
(486,657,l)
);
},
{
closed = 1;
nodes = (
(516,341,l),
(831,341,l),
(831,385,l),
(516,385,l)
);
},
{
closed = 1;
nodes = (
(486,0,l),
(852,0,l),
(852,44,l),
(486,44,l)
);
}
);
width = 915;
},
{
layerId = "49638240-DECC-40F3-A1FC-C881920BB771";
shapes = (
{
closed = 1;
nodes = (
(0,0,l),
(177,0,l),
(470,700,l),
(316,700,l)
);
},
{
closed = 1;
nodes = (
(181,147,l),
(469,147,l),
(469,293,l),
(181,293,l)
);
},
{
closed = 1;
nodes = (
(355,560,l),
(480,560,l),
(490,550,l),
(795,550,l),
(795,700,l),
(355,700,l)
);
},
{
closed = 1;
nodes = (
(415,0,l),
(565,0,l),
(565,657,l),
(415,657,l)
);
},
{
closed = 1;
nodes = (
(475,281,l),
(785,281,l),
(785,423,l),
(475,423,l)
);
},
{
closed = 1;
nodes = (
(415,0,l),
(795,0,l),
(795,150,l),
(415,150,l)
);
}
);
width = 830;
},
{
layerId = "BC44314D-ED22-409A-ACDF-E854CADB3608";
shapes = (
{
closed = 1;
nodes = (
(10,0,l),
(102,0,l),
(507,700,l),
(423,700,l)
);
},
{
closed = 1;
nodes = (
(191,207,l),
(499,207,l),
(499,281,l),
(191,281,l)
);
},
{
closed = 1;
nodes = (
(436,626,l),
(488,626,l),
(494,626,l),
(836,626,l),
(836,700,l),
(436,700,l)
);
},
{
closed = 1;
nodes = (
(466,0,l),
(546,0,l),
(546,657,l),
(466,657,l)
);
},
{
closed = 1;
nodes = (
(526,324,l),
(818,324,l),
(818,396,l),
(526,396,l)
);
},
{
closed = 1;
nodes = (
(466,0,l),
(836,0,l),
(836,74,l),
(466,74,l)
);
}
);
width = 891;
},
{
layerId = "D7099DF3-6127-46B3-A8CF-22E12F13B3B7";
shapes = (
{
closed = 1;
nodes = (
(14,0,l),
(72,0,l),
(522,700,l),
(466,700,l)
);
},
{
closed = 1;
nodes = (
(195,231,l),
(511,231,l),
(511,276,l),
(195,276,l)
);
},
{
closed = 1;
nodes = (
(468,652,l),
(491,652,l),
(496,656,l),
(852,656,l),
(852,700,l),
(468,700,l)
);
},
{
closed = 1;
nodes = (
(486,0,l),
(538,0,l),
(538,657,l),
(486,657,l)
);
},
{
closed = 1;
nodes = (
(516,341,l),
(831,341,l),
(831,385,l),
(516,385,l)
);
},
{
closed = 1;
nodes = (
(486,0,l),
(852,0,l),
(852,44,l),
(486,44,l)
);
}
);
width = 915;
}
);
unicode = 198;
},
{
glyphname = B;
layers = (
{
layerId = "15187948-5E2B-4937-84A8-F930C78DD539";
name = "#instance";
shapes = (
{
closed = 1;
nodes = (
(247,0,ls),
(371,0,o),
(461,74,o),
(461,191,cs),
(461,311,o),
(370,382,o),
(265,382,c),
(259,357,l),
(358,357,o),
(446,405,o),
(446,518,cs),
(446,629,o),
(360,700,o),
(241,700,cs),
(117,700,l),
(117,652,l),
(245,652,ls),
(322,652,o),
(395,617,o),
(395,519,cs),
(395,422,o),
(322,388,o),
(245,388,cs),
(103,388,l),
(103,340,l),
(251,340,ls),
(336,340,o),
(413,293,o),
(413,194,cs),
(413,94,o),
(336,48,o),
(251,48,cs),
(117,48,l),
(117,0,l)
);
},
{
closed = 1;
nodes = (
(121,0,l),
(121,700,l),
(73,700,l),
(73,0,l)
);
}
);
width = 517;
},
{
layerId = "366D1AEC-126E-4DD1-BEE1-3FC98CEAA41E";
associatedMasterId = "49638240-DECC-40F3-A1FC-C881920BB771";
name = "Oct 20, 22, 14:05";
shapes = (
{
closed = 1;
nodes = (
(265,0,ls),
(421,0,o),
(500,60,o),
(500,177,cs),
(500,296,o),
(418,355,o),
(297,355,c),
(297,345,l),
(412,345,o),
(491,405,o),
(491,519,cs),
(491,631,o),
(415,700,o),
(265,700,cs),
(135,700,l),
(135,568,l),
(255,568,ls),
(299,568,o),
(335,549,o),
(335,491,cs),
(335,433,o),
(299,414,o),
(255,414,cs),
(95,414,l),
(95,290,l),
(255,290,ls),
(302,290,o),
(340,270,o),
(340,211,cs),
(340,152,o),
(302,132,o),
(255,132,cs),
(135,132,l),
(135,0,l)
);
},
{
closed = 1;
nodes = (
(195,0,l),
(195,700,l),
(35,700,l),
(35,0,l)
);
}
);
width = 525;
},
{
layerId = "2809F6BA-66D0-46EB-8CAF-049C7B3A805A";
associatedMasterId = "49638240-DECC-40F3-A1FC-C881920BB771";
name = "Oct 17, 22, 15:49";
shapes = (
{
closed = 1;
nodes = (
(260,0,ls),
(416,0,o),
(495,70,o),
(495,177,cs),
(495,286,o),
(413,352,o),
(292,352,c),
(292,342,l),
(407,342,o),
(486,405,o),
(486,519,cs),
(486,631,o),
(410,700,o),
(260,700,cs),
(130,700,l),
(130,558,l),
(250,558,ls),
(294,558,o),
(330,540,o),
(330,486,cs),
(330,432,o),
(294,414,o),
(250,414,cs),
(90,414,l),
(90,290,l),
(250,290,ls),
(297,290,o),
(335,271,o),
(335,216,cs),
(335,161,o),
(297,142,o),
(250,142,cs),
(130,142,l),
(130,0,l)
);
},
{
closed = 1;
nodes = (
(190,0,l),
(190,700,l),
(30,700,l),
(30,0,l)
);
}
);
width = 515;
},
{
layerId = "51E69581-E425-4105-B3CE-3C1039F113D8";
associatedMasterId = "49638240-DECC-40F3-A1FC-C881920BB771";
name = "Jan 13, 23, 17:20";
shapes = (
{
closed = 1;
nodes = (
(275,0,ls),
(421,0,o),
(510,60,o),
(510,177,cs),
(510,296,o),
(418,355,o),
(307,355,c),
(307,345,l),
(412,345,o),
(501,405,o),
(501,519,cs),
(501,631,o),
(415,700,o),
(275,700,cs),
(145,700,l),
(145,568,l),
(265,568,ls),
(306,568,o),
(345,546,o),
(345,491,cs),
(345,436,o),
(306,414,o),
(265,414,cs),
(105,414,l),
(105,290,l),
(265,290,ls),
(309,290,o),
(350,267,o),
(350,211,cs),
(350,155,o),
(309,132,o),
(265,132,cs),
(145,132,l),
(145,0,l)
);
},
{
closed = 1;
nodes = (
(205,0,l),
(205,700,l),
(45,700,l),
(45,0,l)
);
}
);
width = 545;
},
{
layerId = "49638240-DECC-40F3-A1FC-C881920BB771";
shapes = (
{
closed = 1;
nodes = (
(275,0,ls),
(421,0,o),
(510,61,o),
(510,180,cs),
(510,300,o),
(418,360,o),
(307,360,c),
(302,350,l),
(407,350,o),
(496,409,o),
(496,522,cs),
(496,632,o),
(410,700,o),
(270,700,cs),
(145,700,l),
(145,568,l),
(260,568,ls),
(301,568,o),
(340,547,o),
(340,494,cs),
(340,440,o),
(301,419,o),
(260,419,cs),
(105,419,l),
(105,295,l),
(265,295,ls),
(309,295,o),
(350,271,o),
(350,214,cs),
(350,156,o),
(309,132,o),
(265,132,cs),
(145,132,l),
(145,0,l)
);
},
{
closed = 1;
nodes = (
(205,0,l),
(205,700,l),
(45,700,l),
(45,0,l)
);
}
);
width = 545;
},
{
layerId = "A626E483-4A83-4FD4-8628-F1645C3F33AA";
associatedMasterId = "BC44314D-ED22-409A-ACDF-E854CADB3608";
name = "Jan 13, 23, 17:20";
shapes = (
{
closed = 1;
nodes = (
(255,0,ls),
(385,0,o),
(475,69,o),
(475,186,cs),
(475,305,o),
(384,372,o),
(277,372,c),
(277,351,l),
(378,351,o),
(466,403,o),
(466,517,cs),
(466,629,o),
(380,700,o),
(255,700,cs),
(125,700,l),
(125,628,l),
(255,628,ls),
(322,628,o),
(385,596,o),
(385,510,cs),
(385,424,o),
(322,393,o),
(255,393,cs),
(125,393,l),
(125,323,l),
(255,323,ls),
(328,323,o),
(395,284,o),
(395,198,cs),
(395,111,o),
(328,72,o),
(255,72,cs),
(125,72,l),
(125,0,l)
);
},
{
closed = 1;
nodes = (
(145,0,l),
(145,700,l),
(65,700,l),
(65,0,l)
);
}
);
width = 525;
},
{
layerId = "BC44314D-ED22-409A-ACDF-E854CADB3608";
shapes = (
{
closed = 1;
nodes = (
(255,0,ls),
(385,0,o),
(475,70,o),
(475,188,cs),
(475,308,o),
(384,376,o),
(277,376,c),
(271,355,l),
(372,355,o),
(460,406,o),
(460,519,cs),
(460,630,o),
(374,700,o),
(249,700,cs),
(125,700,l),
(125,628,l),
(249,628,ls),
(316,628,o),
(379,597,o),
(379,512,cs),
(379,427,o),
(316,397,o),
(249,397,cs),
(125,397,l),
(125,327,l),
(255,327,ls),
(328,327,o),
(395,287,o),
(395,200,cs),
(395,112,o),
(328,72,o),
(255,72,cs),
(125,72,l),
(125,0,l)
);
},
{
closed = 1;
nodes = (
(145,0,l),
(145,700,l),
(65,700,l),
(65,0,l)
);
}
);
width = 525;
},
{
layerId = "D7099DF3-6127-46B3-A8CF-22E12F13B3B7";
shapes = (
{
closed = 1;
nodes = (
(247,0,ls),
(371,0,o),
(461,74,o),
(461,191,cs),
(461,311,o),
(370,382,o),
(265,382,c),
(259,357,l),
(358,357,o),
(446,405,o),
(446,518,cs),
(446,629,o),
(360,700,o),
(241,700,cs),
(117,700,l),
(117,652,l),
(245,652,ls),
(322,652,o),
(395,617,o),
(395,519,cs),
(395,422,o),
(322,388,o),
(245,388,cs),
(103,388,l),
(103,340,l),
(251,340,ls),
(336,340,o),
(413,293,o),
(413,194,cs),
(413,94,o),
(336,48,o),
(251,48,cs),
(117,48,l),
(117,0,l)
);
},
{
closed = 1;
nodes = (
(121,0,l),
(121,700,l),
(73,700,l),
(73,0,l)
);
}
);
width = 517;
}
);
leftKerningGroup = H;
rightKerningGroup = B;
unicode = 66;
},
{
glyphname = C;
layers = (
{
layerId = "4393E397-69FE-4004-9C25-02B6C1E861CD";
associatedMasterId = "49638240-DECC-40F3-A1FC-C881920BB771";
name = "Oct 20, 22, 14:06";
shapes = (
{
closed = 1;
nodes = (
(595,672,l),
(543,694,o),
(477,712,o),
(395,712,cs),
(178,712,o),
(25,562,o),
(25,350,cs),
(25,138,o),
(178,-12,o),
(395,-12,cs),
(477,-12,o),
(543,6,o),
(595,28,c),
(595,196,l),
(524,163,o),
(465,142,o),
(404,142,cs),
(272,142,o),
(189,233,o),
(189,350,cs),
(189,468,o),
(272,558,o),
(404,558,cs),
(465,558,o),
(525,538,o),
(595,504,c)
);
}
);
width = 620;
},
{
layerId = "A6FCBBD6-8D42-4E3C-B5CF-55000DDCDEA2";
associatedMasterId = "49638240-DECC-40F3-A1FC-C881920BB771";
name = "Oct 13, 22, 17:20";
shapes = (
{
closed = 1;
nodes = (
(590,675,l),
(538,697,o),
(472,715,o),
(390,715,cs),
(173,715,o),
(20,564,o),
(20,350,cs),
(20,136,o),
(173,-15,o),
(390,-15,cs),
(472,-15,o),
(538,3,o),
(590,25,c),
(590,205,l),
(541,169,o),
(476,145,o),
(405,145,cs),
(266,145,o),
(186,231,o),
(186,350,cs),
(186,470,o),
(266,555,o),
(405,555,cs),
(476,555,o),
(542,532,o),
(590,495,c)
);
}
);
width = 610;
},
{
anchors = (
{
name = bottom;
position = "{360, 0}";
},
{
name = top;
position = "{360, 700}";
}
);
layerId = "426E70C4-E61B-4A0F-8838-4D0367FCB5F7";
associatedMasterId = "49638240-DECC-40F3-A1FC-C881920BB771";
name = "Jan 10, 23, 16:54";
shapes = (
{
closed = 1;
nodes = (
(595,672,l),
(543,694,o),
(477,712,o),
(400,712,cs),
(180,712,o),
(25,560,o),
(25,350,cs),
(25,140,o),
(180,-12,o),
(400,-12,cs),
(477,-12,o),
(543,6,o),
(595,28,c),
(595,196,l),
(524,163,o),
(466,142,o),
(404,142,cs),
(274,142,o),
(189,235,o),
(189,350,cs),
(189,466,o),
(274,558,o),
(404,558,cs),
(466,558,o),
(525,538,o),
(595,504,c)
);
}
);
width = 620;
},
{
anchors = (
{
name = bottom;
position = "{360, 0}";
},
{
name = top;
position = "{360, 700}";
}
);
layerId = "49638240-DECC-40F3-A1FC-C881920BB771";
shapes = (
{
closed = 1;
nodes = (
(595,672,l),
(543,694,o),
(477,712,o),
(400,712,cs),
(180,712,o),
(25,560,o),
(25,350,cs),
(25,140,o),
(180,-12,o),
(400,-12,cs),
(477,-12,o),
(543,6,o),
(595,28,c),
(595,196,l),
(524,163,o),
(466,142,o),
(404,142,cs),
(274,142,o),
(189,235,o),
(189,350,cs),
(189,466,o),
(274,558,o),
(404,558,cs),
(466,558,o),
(525,538,o),
(595,504,c)
);
}
);
width = 620;
},
{
layerId = "9F51AFDE-3812-4469-BE2A-596205DC2A64";
associatedMasterId = "BC44314D-ED22-409A-ACDF-E854CADB3608";
name = "Nov 17, 22, 15:36";
shapes = (
{
closed = 1;
nodes = (
(605,672,l),
(553,694,o),
(487,712,o),
(410,712,cs),
(196,712,o),
(45,560,o),
(45,350,cs),
(45,140,o),
(196,-12,o),
(410,-12,cs),
(487,-12,o),
(553,6,o),
(605,28,c),
(605,112,l),
(534,80,o),
(476,62,o),
(414,62,cs),
(240,62,o),
(127,191,o),
(127,350,cs),
(127,511,o),
(240,638,o),
(414,638,cs),
(476,638,o),
(535,621,o),
(605,588,c)
);
}
);
width = 640;
},
{
anchors = (
{
name = bottom;
position = "{366, 0}";
},
{
name = top;
position = "{366, 700}";
}
);
layerId = "D855C049-3104-4BFD-BCD6-7F353A3524A8";
associatedMasterId = "BC44314D-ED22-409A-ACDF-E854CADB3608";
name = "Jan 13, 23, 17:18";
shapes = (
{
closed = 1;
nodes = (
(597,668,l),
(543,689,o),
(479,708,o),
(401,708,cs),
(193,708,o),
(45,560,o),
(45,350,cs),
(45,140,o),
(193,-8,o),
(401,-8,cs),
(479,-8,o),
(543,11,o),
(597,32,c),
(597,116,l),
(524,85,o),
(468,66,o),
(405,66,cs),
(237,66,o),
(127,191,o),
(127,350,cs),
(127,511,o),
(237,634,o),
(405,634,cs),
(468,634,o),
(525,616,o),
(597,584,c)
);
}
);
width = 632;
},
{
anchors = (
{
name = bottom;
position = "{366, 0}";
},
{
name = top;
position = "{366, 700}";
}
);
layerId = "F3BDF5A7-E0D3-4F9A-88C1-258AD5C88905";
associatedMasterId = "BC44314D-ED22-409A-ACDF-E854CADB3608";
name = "Jan 10, 23, 16:54";
shapes = (
{
closed = 1;
nodes = (
(597,668,l),
(545,690,o),
(479,708,o),
(402,708,cs),
(193,708,o),
(45,560,o),
(45,350,cs),
(45,140,o),
(193,-8,o),
(402,-8,cs),
(479,-8,o),
(545,10,o),
(597,32,c),
(597,116,l),
(526,84,o),
(468,66,o),
(406,66,cs),
(237,66,o),
(127,191,o),
(127,350,cs),
(127,511,o),
(237,634,o),
(406,634,cs),
(468,634,o),
(527,617,o),
(597,584,c)
);
}
);
width = 632;
},
{
anchors = (
{
name = bottom;
position = "{366, 0}";
},
{
name = top;
position = "{366, 700}";
}
);
layerId = "BC44314D-ED22-409A-ACDF-E854CADB3608";
shapes = (
{
closed = 1;
nodes = (
(597,668,l),
(543,689,o),
(479,708,o),
(401,708,cs),
(193,708,o),
(45,560,o),
(45,350,cs),
(45,140,o),
(193,-8,o),
(401,-8,cs),
(479,-8,o),
(543,11,o),
(597,32,c),
(597,116,l),
(528,85,o),
(468,66,o),
(405,66,cs),
(237,66,o),
(127,191,o),
(127,350,cs),
(127,511,o),
(237,634,o),
(405,634,cs),
(468,634,o),
(529,616,o),
(597,584,c)
);
}
);
width = 632;
},
{
anchors = (
{
name = bottom;
position = "{368, 0}";
},
{
name = top;
position = "{368, 700}";
}
);
layerId = "D7099DF3-6127-46B3-A8CF-22E12F13B3B7";
shapes = (
{
closed = 1;
nodes = (
(598,666,l),
(543,687,o),
(480,706,o),
(401,706,cs),
(198,706,o),
(53,560,o),
(53,350,cs),
(53,140,o),
(198,-6,o),
(401,-6,cs),
(480,-6,o),
(543,13,o),
(598,34,c),
(598,84,l),
(530,54,o),
(469,36,o),
(405,36,cs),
(222,36,o),
(102,173,o),
(102,350,cs),
(102,529,o),
(222,664,o),
(405,664,cs),
(469,664,o),
(531,647,o),
(598,616,c)
);
}
);
width = 637;
}
);
leftKerningGroup = O;
rightKerningGroup = C;
unicode = 67;
},
{
glyphname = D;
layers = (
{
layerId = "EE417572-1B5C-4B01-84E0-F974734E1934";
associatedMasterId = "49638240-DECC-40F3-A1FC-C881920BB771";
name = "Oct 20, 22, 14:07";
shapes = (
{
closed = 1;
nodes = (
(45,0,l),
(205,0,l),
(205,657,l),
(45,657,l)
);
},
{
closed = 1;
nodes = (
(499,223,o),
(429,152,o),
(275,152,cs),
(45,152,l),
(45,0,l),
(275,0,ls),
(516,0,o),
(665,125,o),
(665,350,cs),
(665,575,o),
(516,700,o),
(275,700,cs),
(45,700,l),
(45,548,l),
(275,548,ls),
(429,548,o),
(499,477,o),
(499,350,cs)
);
}
);
width = 690;
},
{
layerId = "EE6F78D6-D163-47B8-A3AD-6F32B36F9B8B";
associatedMasterId = "49638240-DECC-40F3-A1FC-C881920BB771";
name = "Oct 17, 22, 15:52";
shapes = (
{
closed = 1;
nodes = (
(40,0,l),
(200,0,l),
(200,657,l),
(40,657,l)
);
},
{
closed = 1;
nodes = (
(504,226,o),
(434,156,o),
(280,156,cs),
(40,156,l),
(40,0,l),
(280,0,ls),
(521,0,o),
(670,125,o),
(670,350,cs),
(670,575,o),
(521,700,o),
(280,700,cs),
(40,700,l),
(40,544,l),
(280,544,ls),
(434,544,o),
(504,474,o),
(504,350,cs)
);
}
);
width = 690;
},
{
layerId = "8FB6A6B3-E366-4B67-B4AA-CEA589C9FB20";
associatedMasterId = "49638240-DECC-40F3-A1FC-C881920BB771";
name = "Jan 13, 23, 17:23";
shapes = (
{
closed = 1;
nodes = (
(45,0,l),
(205,0,l),
(205,657,l),
(45,657,l)
);
},
{
closed = 1;
nodes = (
(499,228,o),
(429,152,o),
(275,152,cs),
(45,152,l),
(45,0,l),
(275,0,ls),
(516,0,o),
(665,130,o),
(665,350,cs),
(665,570,o),
(516,700,o),
(275,700,cs),
(45,700,l),
(45,548,l),
(275,548,ls),
(429,548,o),
(499,472,o),
(499,350,cs)
);
}
);
width = 690;
},
{
layerId = "49638240-DECC-40F3-A1FC-C881920BB771";
shapes = (
{
closed = 1;
nodes = (
(45,0,l),
(205,0,l),
(205,700,l),
(45,700,l)
);
},
{
closed = 1;
nodes = (
(499,228,o),
(429,152,o),
(275,152,cs),
(115,152,l),
(115,0,l),
(275,0,ls),
(516,0,o),
(665,130,o),
(665,350,cs),
(665,570,o),
(516,700,o),
(275,700,cs),
(115,700,l),
(115,548,l),
(275,548,ls),
(429,548,o),
(499,472,o),
(499,350,cs)
);
}
);
width = 690;
},
{
layerId = "1ED7706C-966A-4B43-95A6-5A12AEE5FE81";
associatedMasterId = "BC44314D-ED22-409A-ACDF-E854CADB3608";
name = "Jan 13, 23, 17:23";
shapes = (
{
closed = 1;
nodes = (
(65,0,l),
(145,0,l),
(145,657,l),
(65,657,l)
);
},
{
closed = 1;
nodes = (
(509,180,o),
(414,74,o),
(205,74,cs),
(65,74,l),
(65,0,l),
(205,0,ls),
(444,0,o),
(591,130,o),
(591,350,cs),
(591,570,o),
(444,700,o),
(205,700,cs),
(65,700,l),
(65,626,l),
(205,626,ls),
(414,626,o),
(509,520,o),
(509,350,cs)
);
}
);
width = 636;
},
{
layerId = "BC44314D-ED22-409A-ACDF-E854CADB3608";
shapes = (
{
closed = 1;
nodes = (
(65,0,l),
(145,0,l),
(145,700,l),
(65,700,l)
);
},
{
closed = 1;
nodes = (
(517,180,o),
(422,74,o),
(213,74,cs),
(105,74,l),
(105,0,l),
(213,0,ls),
(452,0,o),
(599,130,o),
(599,350,cs),
(599,570,o),
(452,700,o),
(213,700,cs),
(105,700,l),
(105,626,l),
(213,626,ls),
(422,626,o),
(517,520,o),
(517,350,cs)
);
}
);
width = 644;
},
{
layerId = "D7099DF3-6127-46B3-A8CF-22E12F13B3B7";
shapes = (
{
closed = 1;
nodes = (
(73,0,l),
(121,0,l),
(121,700,l),
(73,700,l)
);
},
{
closed = 1;
nodes = (
(524,161,o),
(419,43,o),
(188,43,cs),
(101,43,l),
(101,0,l),
(188,0,ls),
(426,0,o),
(573,130,o),
(573,350,cs),
(573,570,o),
(426,700,o),
(188,700,cs),
(101,700,l),
(101,657,l),
(188,657,ls),
(419,657,o),
(524,539,o),
(524,350,cs)
);
}
);
width = 626;
}
);
leftKerningGroup = H;
rightKerningGroup = O;
unicode = 68;
},
{
glyphname = Eth;
layers = (
{
layerId = "49638240-DECC-40F3-A1FC-C881920BB771";
shapes = (
{
closed = 1;
nodes = (
(395,282,l),
(395,422,l),
(15,422,l),
(15,282,l)
);
},
{
closed = 1;
nodes = (
(105,0,l),
(265,0,l),
(265,700,l),
(105,700,l)
);
},
{
closed = 1;
nodes = (
(559,228,o),
(489,152,o),
(335,152,cs),
(175,152,l),
(175,0,l),
(335,0,ls),
(576,0,o),
(725,130,o),
(725,350,cs),
(725,570,o),
(576,700,o),
(335,700,cs),
(175,700,l),
(175,548,l),
(335,548,ls),
(489,548,o),
(559,472,o),
(559,350,cs)
);
}
);
width = 750;
},
{
layerId = "BC44314D-ED22-409A-ACDF-E854CADB3608";
shapes = (
{
closed = 1;
nodes = (
(335,321,l),
(335,389,l),
(35,389,l),
(35,321,l)
);
},
{
closed = 1;
nodes = (
(115,0,l),
(195,0,l),
(195,700,l),
(115,700,l)
);
},
{
closed = 1;
nodes = (
(567,180,o),
(472,74,o),
(263,74,cs),
(155,74,l),
(155,0,l),
(263,0,ls),
(502,0,o),
(649,130,o),
(649,350,cs),
(649,570,o),
(502,700,o),
(263,700,cs),
(155,700,l),
(155,626,l),
(263,626,ls),
(472,626,o),
(567,520,o),
(567,350,cs)
);
}
);
width = 686;
},
{
layerId = "D7099DF3-6127-46B3-A8CF-22E12F13B3B7";
shapes = (
{
closed = 1;
nodes = (
(311,337,l),
(311,376,l),
(43,376,l),
(43,337,l)
);
},
{
closed = 1;
nodes = (
(119,0,l),
(167,0,l),
(167,700,l),
(119,700,l)
);
},
{
closed = 1;
nodes = (
(570,161,o),
(465,43,o),
(234,43,cs),
(147,43,l),
(147,0,l),
(234,0,ls),
(472,0,o),
(619,130,o),
(619,350,cs),
(619,570,o),
(472,700,o),
(234,700,cs),
(147,700,l),
(147,657,l),
(234,657,ls),
(465,657,o),
(570,539,o),
(570,350,cs)
);
}
);
width = 660;
}
);
unicode = 208;
},
{
glyphname = E;
layers = (
{
layerId = "EE417572-1B5C-4B01-84E0-F974734E1934";
associatedMasterId = "49638240-DECC-40F3-A1FC-C881920BB771";
name = "Oct 20, 22, 14:07";
shapes = (
{
closed = 1;
nodes = (
(35,547,l),
(425,547,l),
(425,700,l),
(35,700,l)
);
},
{
closed = 1;
nodes = (
(35,0,l),
(195,0,l),
(195,657,l),
(35,657,l)
);
},
{
closed = 1;
nodes = (
(95,279,l),
(415,279,l),
(415,425,l),
(95,425,l)
);
},
{
closed = 1;
nodes = (
(35,0,l),
(425,0,l),
(425,153,l),
(35,153,l)
);
}
);
width = 460;
},
{
layerId = "1DD156D4-FAC0-4455-A648-5E8982267159";
associatedMasterId = "49638240-DECC-40F3-A1FC-C881920BB771";
name = "Oct 17, 22, 15:34";
shapes = (
{
closed = 1;
nodes = (
(30,547,l),
(390,547,l),
(390,700,l),
(30,700,l)
);
},
{
closed = 1;
nodes = (
(30,0,l),
(190,0,l),
(190,657,l),
(30,657,l)
);
},
{
closed = 1;
nodes = (
(90,279,l),
(380,279,l),
(380,425,l),
(90,425,l)
);
},
{
closed = 1;
nodes = (
(30,0,l),
(390,0,l),
(390,153,l),
(30,153,l)
);
}
);
width = 420;
},
{
anchors = (
{
name = bottom;
position = "{235, 0}";
},
{
name = ogonek;
position = "{435, 0}";
},
{
name = top;
position = "{235, 700}";
},
{
name = topleft;
position = "{20, 700}";
}
);
layerId = "49638240-DECC-40F3-A1FC-C881920BB771";
shapes = (
{
closed = 1;
nodes = (
(145,550,l),
(435,550,l),
(435,700,l),
(145,700,l)
);
},
{
closed = 1;
nodes = (
(45,0,l),
(205,0,l),
(205,700,l),
(45,700,l)
);
},
{
closed = 1;
nodes = (
(145,281,l),
(425,281,l),
(425,423,l),
(145,423,l)
);
},
{
closed = 1;
nodes = (
(145,0,l),
(435,0,l),
(435,150,l),
(145,150,l)
);
}
);
width = 470;
},
{
layerId = "A0D1B1A8-BBF6-48D7-88F2-B1A875BFFC96";
associatedMasterId = "BC44314D-ED22-409A-ACDF-E854CADB3608";
name = "Nov 17, 22, 15:39";
shapes = (
{
closed = 1;
nodes = (
(65,626,l),
(435,626,l),
(435,700,l),
(65,700,l)
);
},
{
closed = 1;
nodes = (
(65,0,l),
(145,0,l),
(145,657,l),
(65,657,l)
);
},
{
closed = 1;
nodes = (
(125,317,l),
(425,317,l),
(425,387,l),
(125,387,l)
);
},
{
closed = 1;
nodes = (
(65,0,l),
(435,0,l),
(435,74,l),
(65,74,l)
);
}
);
width = 490;
},
{
anchors = (
{
name = bottom;
position = "{245, 0}";
},
{
name = ogonek;
position = "{435, 0}";
},
{
name = top;
position = "{245, 700}";
},
{
name = topleft;
position = "{20, 700}";
}
);
layerId = "BC44314D-ED22-409A-ACDF-E854CADB3608";
shapes = (
{
closed = 1;
nodes = (
(125,626,l),
(435,626,l),
(435,700,l),
(125,700,l)
);
},
{
closed = 1;
nodes = (
(65,0,l),
(145,0,l),
(145,700,l),
(65,700,l)
);
},
{
closed = 1;
nodes = (
(125,324,l),
(417,324,l),
(417,396,l),
(125,396,l)
);
},
{
closed = 1;
nodes = (
(125,0,l),
(435,0,l),
(435,74,l),
(125,74,l)
);
}
);
width = 490;
},
{
anchors = (
{
name = bottom;
position = "{249, 0}";
},
{
name = ogonek;
position = "{435, 0}";
},
{
name = top;
position = "{249, 700}";
},
{
name = topleft;
position = "{20, 700}";
}
);
layerId = "D7099DF3-6127-46B3-A8CF-22E12F13B3B7";
shapes = (
{
closed = 1;
nodes = (
(117,656,l),
(435,656,l),
(435,700,l),
(117,700,l)
);
},
{
closed = 1;
nodes = (
(73,0,l),
(121,0,l),
(121,700,l),
(73,700,l)
);
},
{
closed = 1;
nodes = (
(117,341,l),
(414,341,l),
(414,385,l),
(117,385,l)
);
},
{
closed = 1;
nodes = (
(117,0,l),
(435,0,l),
(435,44,l),
(117,44,l)
);
}
);
width = 498;
}
);
leftKerningGroup = H;
rightKerningGroup = E;
unicode = 69;
},
{
glyphname = F;
layers = (
{
layerId = "40E3A63F-A8A0-4471-87E7-261933B36BC8";
associatedMasterId = "49638240-DECC-40F3-A1FC-C881920BB771";
name = "Oct 4, 22, 15:13";
shapes = (
{
closed = 1;
nodes = (
(30,534,l),
(410,534,l),
(410,700,l),
(30,700,l)
);
},
{
closed = 1;
nodes = (
(30,0,l),
(220,0,l),
(220,657,l),
(30,657,l)
);
},
{
closed = 1;
nodes = (
(30,274,l),
(400,274,l),
(400,430,l),
(30,430,l)
);
}
);
width = 420;
},
{
layerId = "EE417572-1B5C-4B01-84E0-F974734E1934";
associatedMasterId = "49638240-DECC-40F3-A1FC-C881920BB771";
name = "Oct 20, 22, 14:07";
shapes = (
{
closed = 1;
nodes = (
(35,544,l),
(415,544,l),
(415,700,l),
(35,700,l)
);
},
{
closed = 1;
nodes = (
(35,0,l),
(195,0,l),
(195,657,l),
(35,657,l)
);
},
{
closed = 1;
nodes = (
(95,270,l),
(405,270,l),
(405,420,l),
(95,420,l)
);
}
);
width = 440;
},
{
layerId = "EF4CC771-8CCA-4D26-A295-501206EACFFA";
associatedMasterId = "49638240-DECC-40F3-A1FC-C881920BB771";
name = "Oct 17, 22, 15:35";
shapes = (
{
closed = 1;
nodes = (
(30,544,l),
(390,544,l),
(390,700,l),
(30,700,l)
);
},
{
closed = 1;
nodes = (
(30,0,l),
(190,0,l),
(190,657,l),
(30,657,l)
);
},
{
closed = 1;
nodes = (
(90,270,l),
(380,270,l),
(380,420,l),
(90,420,l)
);
}
);
width = 410;
},
{
layerId = "49638240-DECC-40F3-A1FC-C881920BB771";
shapes = (
{
closed = 1;
nodes = (
(145,548,l),
(425,548,l),
(425,700,l),
(145,700,l)
);
},
{
closed = 1;
nodes = (
(45,0,l),
(205,0,l),
(205,700,l),
(45,700,l)
);
},
{
closed = 1;
nodes = (
(145,272,l),
(415,272,l),
(415,418,l),
(145,418,l)
);
}
);
width = 450;
},
{
layerId = "A0D1B1A8-BBF6-48D7-88F2-B1A875BFFC96";
associatedMasterId = "BC44314D-ED22-409A-ACDF-E854CADB3608";
name = "Nov 17, 22, 15:39";
shapes = (
{
closed = 1;
nodes = (
(65,626,l),
(425,626,l),
(425,700,l),
(65,700,l)
);
},
{
closed = 1;
nodes = (
(65,0,l),
(145,0,l),
(145,657,l),
(65,657,l)
);
},
{
closed = 1;
nodes = (
(125,310,l),
(415,310,l),
(415,380,l),
(125,380,l)
);
}
);
width = 470;
},
{
layerId = "BC44314D-ED22-409A-ACDF-E854CADB3608";
shapes = (
{
closed = 1;
nodes = (
(125,626,l),
(425,626,l),
(425,700,l),
(125,700,l)
);
},
{
closed = 1;
nodes = (
(65,0,l),
(145,0,l),
(145,700,l),
(65,700,l)
);
},
{
closed = 1;
nodes = (
(125,318,l),
(407,318,l),
(407,390,l),
(125,390,l)
);
}
);
width = 470;
},
{
layerId = "D7099DF3-6127-46B3-A8CF-22E12F13B3B7";
shapes = (
{
closed = 1;
nodes = (
(117,657,l),
(425,657,l),
(425,700,l),
(117,700,l)
);
},
{
closed = 1;
nodes = (
(73,0,l),
(121,0,l),
(121,700,l),
(73,700,l)
);
},
{
closed = 1;
nodes = (
(117,336,l),
(404,336,l),
(404,379,l),
(117,379,l)
);
}
);
width = 478;
}
);
leftKerningGroup = H;
rightKerningGroup = F;
unicode = 70;
},
{
glyphname = G;
layers = (
{
layerId = "81320AD8-ED83-44EA-AA09-419F70B6D0AB";
associatedMasterId = "49638240-DECC-40F3-A1FC-C881920BB771";
name = "Oct 20, 22, 14:08";
shapes = (
{
closed = 1;
nodes = (
(595,672,l),
(543,694,o),
(477,712,o),
(395,712,cs),
(178,712,o),
(25,562,o),
(25,350,cs),
(25,138,o),
(178,-12,o),
(395,-12,cs),
(479,-12,o),
(558,11,o),
(615,31,c),
(615,213,l),
(557,180,o),
(479,142,o),
(395,142,cs),
(265,142,o),
(189,229,o),
(189,350,cs),
(189,472,o),
(270,558,o),
(405,558,cs),
(476,558,o),
(529,533,o),
(595,504,c)
);
},
{
closed = 1;
nodes = (
(455,100,l),
(615,100,l),
(615,353,l),
(455,353,l)
);
}
);
width = 660;
},
{
layerId = "633B9170-2F8C-4F7A-B56E-EDB27EF8E7D3";
associatedMasterId = "49638240-DECC-40F3-A1FC-C881920BB771";
name = "Oct 17, 22, 15:40";
shapes = (
{
closed = 1;
nodes = (
(590,675,l),
(538,697,o),
(472,715,o),
(390,715,cs),
(173,715,o),
(20,564,o),
(20,350,cs),
(20,136,o),
(173,-15,o),
(390,-15,cs),
(480,-15,o),
(553,8,o),
(610,45,c),
(610,235,l),
(552,181,o),
(474,145,o),
(390,145,cs),
(261,145,o),
(186,231,o),
(186,350,cs),
(186,470,o),
(266,555,o),
(405,555,cs),
(476,555,o),
(542,532,o),
(590,495,c)
);
},
{
closed = 1;
nodes = (
(450,97,l),
(610,97,l),
(610,353,l),
(450,353,l)
);
}
);
width = 650;
},
{
anchors = (
{
name = bottom;
position = "{330, 0}";
},
{
name = top;
position = "{330, 700}";
}
);
layerId = "49638240-DECC-40F3-A1FC-C881920BB771";
shapes = (
{
closed = 1;
nodes = (
(455,100,l),
(615,100,l),
(615,409,l),
(320,409,l),
(320,275,l),
(455,275,l)
);
},
{
closed = 1;
nodes = (
(595,672,l),
(543,694,o),
(477,712,o),
(400,712,cs),
(180,712,o),
(25,560,o),
(25,350,cs),
(25,140,o),
(180,-12,o),
(395,-12,cs),
(479,-12,o),
(558,11,o),
(615,31,c),
(615,214,l),
(557,181,o),
(481,142,o),
(397,142,cs),
(269,142,o),
(189,231,o),
(189,350,cs),
(189,470,o),
(272,558,o),
(405,558,cs),
(476,558,o),
(529,533,o),
(595,504,c)
);
}
);
width = 660;
},
{
anchors = (
{
name = bottom;
position = "{366, 0}";
},
{
name = top;
position = "{366, 700}";
}
);
layerId = "BC44314D-ED22-409A-ACDF-E854CADB3608";
shapes = (
{
closed = 1;
nodes = (
(527,64,l),
(607,64,l),
(607,383,l),
(330,383,l),
(330,314,l),
(527,314,l)
);
},
{
closed = 1;
nodes = (
(597,668,l),
(544,689,o),
(479,708,o),
(402,708,cs),
(193,708,o),
(45,560,o),
(45,350,cs),
(45,140,o),
(193,-8,o),
(397,-8,cs),
(477,-8,o),
(550,14,o),
(607,45,c),
(607,126,l),
(549,93,o),
(479,66,o),
(399,66,cs),
(232,66,o),
(127,185,o),
(127,350,cs),
(127,516,o),
(235,634,o),
(407,634,cs),
(478,634,o),
(530,613,o),
(597,585,c)
);
}
);
width = 672;
},
{
anchors = (
{
name = bottom;
position = "{380, 0}";
},
{
name = top;
position = "{380, 700}";
}
);
layerId = "D7099DF3-6127-46B3-A8CF-22E12F13B3B7";
shapes = (
{
closed = 1;
nodes = (
(556,50,l),
(604,50,l),
(604,372,l),
(334,372,l),
(334,329,l),
(556,329,l)
);
},
{
closed = 1;
nodes = (
(598,666,l),
(544,687,o),
(480,706,o),
(403,706,cs),
(198,706,o),
(53,560,o),
(53,350,cs),
(53,140,o),
(198,-6,o),
(398,-6,cs),
(476,-6,o),
(547,15,o),
(604,51,c),
(604,91,l),
(546,58,o),
(478,36,o),
(400,36,cs),
(217,36,o),
(102,167,o),
(102,350,cs),
(102,534,o),
(220,664,o),
(408,664,cs),
(479,664,o),
(530,645,o),
(598,617,c)
);
}
);
width = 677;
}
);
leftKerningGroup = O;
rightKerningGroup = G;
unicode = 71;
},
{
glyphname = H;
layers = (
{
layerId = "666FDCCC-62F7-4301-87F6-821D4C1FA4EC";
associatedMasterId = "49638240-DECC-40F3-A1FC-C881920BB771";
name = "Oct 17, 22, 15:37";
shapes = (
{
closed = 1;
nodes = (
(40,0,l),
(200,0,l),
(200,700,l),
(40,700,l)
);
},
{
closed = 1;
nodes = (
(440,0,l),
(600,0,l),
(600,700,l),
(440,700,l)
);
},
{
closed = 1;
nodes = (
(130,277,l),
(490,277,l),
(490,433,l),
(130,433,l)
);
}
);
width = 640;
},
{
anchors = (
{
name = bottom;
position = "{325, 0}";
},
{
name = center;
position = "{325, 350}";
},
{
name = top;
position = "{325, 700}";
},
{
name = topleft;
position = "{20, 700}";
}
);
layerId = "49638240-DECC-40F3-A1FC-C881920BB771";
shapes = (
{
closed = 1;
nodes = (
(45,0,l),
(205,0,l),
(205,700,l),
(45,700,l)
);
},
{
closed = 1;
nodes = (
(445,0,l),
(605,0,l),
(605,700,l),
(445,700,l)
);
},
{
closed = 1;
nodes = (
(135,281,l),
(495,281,l),
(495,433,l),
(135,433,l)
);
}
);
width = 650;
},
{
anchors = (
{
name = bottom;
position = "{325, 0}";
},
{
name = center;
position = "{325, 350}";
},
{
name = top;
position = "{325, 700}";
},
{
name = topleft;
position = "{20, 700}";
}
);
layerId = "BC44314D-ED22-409A-ACDF-E854CADB3608";
shapes = (
{
closed = 1;
nodes = (
(65,0,l),
(145,0,l),
(145,700,l),
(65,700,l)
);
},
{
closed = 1;
nodes = (
(505,0,l),
(585,0,l),
(585,700,l),
(505,700,l)
);
},
{
closed = 1;
nodes = (
(115,325,l),
(539,325,l),
(539,399,l),
(115,399,l)
);
}
);
width = 650;
},
{
anchors = (
{
name = bottom;
position = "{325, 0}";
},
{
name = center;
position = "{325, 350}";
},
{
name = top;
position = "{325, 700}";
},
{
name = topleft;
position = "{20, 700}";
}
);
layerId = "D7099DF3-6127-46B3-A8CF-22E12F13B3B7";
shapes = (
{
closed = 1;
nodes = (
(73,0,l),
(121,0,l),
(121,700,l),
(73,700,l)
);
},
{
closed = 1;
nodes = (
(529,0,l),
(577,0,l),
(577,700,l),
(529,700,l)
);
},
{
closed = 1;
nodes = (
(107,343,l),
(557,343,l),
(557,385,l),
(107,385,l)
);
}
);
width = 650;
}
);
unicode = 72;
},
{
glyphname = I;
layers = (
{
anchors = (
{
name = bottom;
position = "{125, 0}";
},
{
name = ogonek;
position = "{205, 0}";
},
{
name = top;
position = "{125, 700}";
},
{
name = topleft;
position = "{20, 700}";
}
);
layerId = "49638240-DECC-40F3-A1FC-C881920BB771";
shapes = (
{
closed = 1;
nodes = (
(45,0,l),
(205,0,l),
(205,700,l),
(45,700,l)
);
}
);
width = 250;
},
{
anchors = (
{
name = bottom;
position = "{105, 0}";
},
{
name = ogonek;
position = "{145, 0}";
},
{
name = top;
position = "{105, 700}";
},
{
name = topleft;
position = "{20, 700}";
}
);
layerId = "BC44314D-ED22-409A-ACDF-E854CADB3608";
shapes = (
{
closed = 1;
nodes = (
(65,0,l),
(145,0,l),
(145,700,l),
(65,700,l)
);
}
);
width = 210;
},
{
anchors = (
{
name = bottom;
position = "{97, 0}";
},
{
name = ogonek;
position = "{121, 0}";
},
{
name = top;
position = "{97, 700}";
},
{
name = topleft;
position = "{20, 700}";
}
);
layerId = "D7099DF3-6127-46B3-A8CF-22E12F13B3B7";
shapes = (
{
closed = 1;
nodes = (
(73,0,l),
(121,0,l),
(121,700,l),
(73,700,l)
);
}
);
width = 194;
}
);
unicode = 73;
},
{
glyphname = J;
layers = (
{
layerId = "81320AD8-ED83-44EA-AA09-419F70B6D0AB";
associatedMasterId = "49638240-DECC-40F3-A1FC-C881920BB771";
name = "Oct 20, 22, 14:08";
shapes = (
{
closed = 1;
nodes = (
(229,700,l),
(229,232,ls),
(229,178,o),
(209,145,o),
(146,145,cs),
(113,145,o),
(71,154,o),
(25,172,c),
(25,14,l),
(65,-1,o),
(112,-12,o),
(169,-12,cs),
(344,-12,o),
(389,95,o),
(389,218,cs),
(389,700,l)
);
}
);
width = 434;
},
{
layerId = "30F75B38-AC1F-4B6B-B8F2-345E5EA9B5B6";
associatedMasterId = "49638240-DECC-40F3-A1FC-C881920BB771";
name = "Oct 17, 22, 15:42";
shapes = (
{
closed = 1;
nodes = (
(218,700,l),
(218,245,ls),
(218,169,o),
(177,148,o),
(127,148,cs),
(86,148,o),
(51,162,o),
(20,177,c),
(20,11,l),
(60,-4,o),
(107,-15,o),
(159,-15,cs),
(309,-15,o),
(384,77,o),
(384,225,cs),
(384,700,l)
);
}
);
width = 444;
},
{
background = {
shapes = (
{
closed = 1;
nodes = (
(218,700,l),
(218,240,ls),
(218,175,o),
(188,140,o),
(134,140,cs),
(80,140,o),
(50,175,o),
(50,240,cs),
(50,700,l),
(-116,700,l),
(-116,240,ls),
(-116,80,o),
(-31,-20,o),
(134,-20,cs),
(299,-20,o),
(384,80,o),
(384,240,cs),
(384,700,l)
);
}
);
};
layerId = "49638240-DECC-40F3-A1FC-C881920BB771";
shapes = (
{
closed = 1;
nodes = (
(229,700,l),
(229,232,ls),
(229,178,o),
(212,145,o),
(147,145,cs),
(116,145,o),
(75,153,o),
(25,168,c),
(25,10,l),
(68,-2,o),
(118,-12,o),
(169,-12,cs),
(336,-12,o),
(389,95,o),
(389,218,cs),
(389,700,l)
);
}
);
width = 434;
},
{
layerId = "BC44314D-ED22-409A-ACDF-E854CADB3608";
shapes = (
{
closed = 1;
nodes = (
(239,700,l),
(239,184,ls),
(239,110,o),
(215,68,o),
(140,68,cs),
(107,68,o),
(74,76,o),
(35,87,c),
(35,12,l),
(66,3,o),
(99,-6,o),
(142,-6,cs),
(270,-6,o),
(319,75,o),
(319,184,cs),
(319,700,l)
);
}
);
width = 384;
},
{
layerId = "D7099DF3-6127-46B3-A8CF-22E12F13B3B7";
shapes = (
{
closed = 1;
nodes = (
(243,700,l),
(243,165,ls),
(243,83,o),
(216,37,o),
(137,37,cs),
(103,37,o),
(74,45,o),
(39,55,c),
(39,13,l),
(65,5,o),
(91,-4,o),
(131,-4,cs),
(244,-4,o),
(291,67,o),
(291,170,cs),
(291,700,l)
);
}
);
width = 364;
}
);
leftKerningGroup = J;
rightKerningGroup = U;
unicode = 74;
},
{
glyphname = K;
layers = (
{
layerId = "F65F37D9-0B7D-4268-ADF6-B349CAA17610";
associatedMasterId = "49638240-DECC-40F3-A1FC-C881920BB771";
name = "Oct 17, 22, 15:56";
shapes = (
{
closed = 1;
nodes = (
(177,360,l),
(342,360,l),
(574,700,l),
(394,700,l)
);
},
{
closed = 1;
nodes = (
(584,0,l),
(342,360,l),
(177,360,l),
(389,0,l)
);
},
{
closed = 1;
nodes = (
(30,0,l),
(190,0,l),
(190,700,l),
(30,700,l)
);
}
);
width = 600;
},
{
anchors = (
{
name = bottom;
position = "{312, 0}";
},
{
name = top;
position = "{312, 700}";
}
);
layerId = "49638240-DECC-40F3-A1FC-C881920BB771";
shapes = (
{
closed = 1;
nodes = (
(192,360,l),
(404,0,l),
(599,0,l),
(357,360,l),
(589,700,l),
(404,700,l)
);
},
{
closed = 1;
nodes = (
(45,0,l),
(205,0,l),
(205,700,l),
(45,700,l)
);
}
);
width = 624;
},
{
anchors = (
{
name = bottom;
position = "{269, 0}";
},
{
name = top;
position = "{269, 700}";
}
);
layerId = "BC44314D-ED22-409A-ACDF-E854CADB3608";
shapes = (
{
closed = 1;
nodes = (
(132,360,l),
(401,0,l),
(502,0,l),
(222,360,l),
(492,700,l),
(395,700,l)
);
},
{
closed = 1;
nodes = (
(65,0,l),
(145,0,l),
(145,700,l),
(65,700,l)
);
}
);
width = 532;
},
{
anchors = (
{
name = bottom;
position = "{252, 0}";
},
{
name = top;
position = "{252, 700}";
}
);
layerId = "D7099DF3-6127-46B3-A8CF-22E12F13B3B7";
shapes = (
{
closed = 1;
nodes = (
(108,360,l),
(400,0,l),
(463,0,l),
(168,360,l),
(453,700,l),
(391,700,l)
);
},
{
closed = 1;
nodes = (
(73,0,l),
(121,0,l),
(121,700,l),
(73,700,l)
);
}
);
width = 495;
}
);
leftKerningGroup = H;
rightKerningGroup = X;
unicode = 75;
},
{
glyphname = L;
layers = (
{
anchors = (
{
name = bottom;
position = "{215, 0}";
},
{
name = center;
position = "{215, 350}";
},
{
name = top;
position = "{125, 700}";
},
{
name = topright;
position = "{280, 700}";
}
);
layerId = "D3B89B7D-9A9A-4F10-A4EE-982191E690D0";
associatedMasterId = "49638240-DECC-40F3-A1FC-C881920BB771";
name = "Jan 13, 23, 17:51";
shapes = (
{
closed = 1;
nodes = (
(45,0,l),
(205,0,l),
(205,700,l),
(45,700,l)
);
},
{
closed = 1;
nodes = (
(45,0,l),
(425,0,l),
(425,158,l),
(45,158,l)
);
}
);
width = 450;
},
{
anchors = (
{
name = bottom;
position = "{215, 0}";
},
{
name = center;
position = "{215, 350}";
},
{
name = top;
position = "{125, 700}";
},
{
name = topright;
position = "{280, 700}";
}
);
layerId = "E47DDD1C-7B76-4031-9BC5-8B8B02175C72";
associatedMasterId = "49638240-DECC-40F3-A1FC-C881920BB771";
name = "Jan 13, 23, 17:25";
shapes = (
{
closed = 1;
nodes = (
(45,0,l),
(205,0,l),
(205,700,l),
(45,700,l)
);
},
{
closed = 1;
nodes = (
(45,0,l),
(405,0,l),
(405,158,l),
(45,158,l)
);
}
);
width = 430;
},
{
anchors = (
{
name = bottom;
position = "{215, 0}";
},
{
name = center;
position = "{215, 350}";
},
{
name = top;
position = "{125, 700}";
},
{
name = topright;
position = "{280, 700}";
}
);
layerId = "49638240-DECC-40F3-A1FC-C881920BB771";
shapes = (
{
closed = 1;
nodes = (
(45,0,l),
(425,0,l),
(425,152,l),
(205,152,l),
(205,700,l),
(45,700,l)
);
}
);
width = 450;
},
{
anchors = (
{
name = bottom;
position = "{220, 0}";
},
{
name = center;
position = "{220, 350}";
},
{
name = top;
position = "{105, 700}";
},
{
name = topright;
position = "{250, 700}";
}
);
layerId = "BC44314D-ED22-409A-ACDF-E854CADB3608";
shapes = (
{
closed = 1;
nodes = (
(65,0,l),
(405,0,l),
(405,74,l),
(145,74,l),
(145,700,l),
(65,700,l)
);
}
);
width = 440;
},
{
anchors = (
{
name = bottom;
position = "{222, 0}";
},
{
name = center;
position = "{222, 350}";
},
{
name = top;
position = "{97, 700}";
},
{
name = topright;
position = "{238, 700}";
}
);
layerId = "D7099DF3-6127-46B3-A8CF-22E12F13B3B7";
shapes = (
{
closed = 1;
nodes = (
(73,0,l),
(397,0,l),
(397,43,l),
(121,43,l),
(121,700,l),
(73,700,l)
);
}
);
width = 436;
}
);
leftKerningGroup = H;
rightKerningGroup = L;
unicode = 76;
},
{
glyphname = M;
layers = (
{
layerId = "15187948-5E2B-4937-84A8-F930C78DD539";
name = "#instance";
shapes = (
{
closed = 1;
nodes = (
(625,700,l),
(400,21,l),
(433,21,l),
(208,700,l),
(65,700,l),
(65,0,l),
(143,0,l),
(144,679,l),
(131,679,l),
(356,0,l),
(473,0,l),
(700,679,l),
(686,679,l),
(686,0,l),
(766,0,l),
(766,700,l)
);
}
);
width = 831;
},
{
layerId = "A67A5CFF-7AE5-4BE0-8912-3210B4D10B86";
associatedMasterId = "49638240-DECC-40F3-A1FC-C881920BB771";
name = "Oct 4, 22, 15:01";
shapes = (
{
closed = 1;
nodes = (
(25,0,l),
(205,0,l),
(205,700,l),
(25,700,l)
);
},
{
closed = 1;
nodes = (
(275,0,l),
(400,0,l),
(355,700,l),
(205,700,l)
);
},
{
closed = 1;
nodes = (
(400,0,l),
(525,0,l),
(595,700,l),
(445,700,l)
);
},
{
closed = 1;
nodes = (
(595,0,l),
(775,0,l),
(775,700,l),
(595,700,l)
);
}
);
width = 800;
},
{
layerId = "1E778922-2DC0-4156-9012-8DCBD3E8AB35";
associatedMasterId = "49638240-DECC-40F3-A1FC-C881920BB771";
name = "Oct 4, 22, 14:25";
shapes = (
{
closed = 1;
nodes = (
(35,0,l),
(215,0,l),
(215,700,l),
(35,700,l)
);
},
{
closed = 1;
nodes = (
(285,0,l),
(410,0,l),
(335,700,l),
(195,700,l)
);
},
{
closed = 1;
nodes = (
(370,0,l),
(495,0,l),
(585,700,l),
(445,700,l)
);
},
{
closed = 1;
nodes = (
(565,0,l),
(745,0,l),
(745,700,l),
(565,700,l)
);
}
);
width = 780;
},
{
layerId = "43D48B7E-1CB0-468D-BEA1-2FA2C2AC5D76";
associatedMasterId = "49638240-DECC-40F3-A1FC-C881920BB771";
name = "Oct 20, 22, 14:09";
shapes = (
{
closed = 1;
nodes = (
(45,0,l),
(201,0,l),
(201,700,l),
(45,700,l)
);
},
{
closed = 1;
nodes = (
(336,0,l),
(492,0,l),
(335,700,l),
(174,700,l)
);
},
{
closed = 1;
nodes = (
(439,0,l),
(590,0,l),
(752,700,l),
(596,700,l)
);
},
{
closed = 1;
nodes = (
(725,0,l),
(885,0,l),
(885,700,l),
(725,700,l)
);
}
);
width = 930;
},
{
layerId = "A9D74C1C-37EA-4626-B47E-D6477A23762A";
associatedMasterId = "49638240-DECC-40F3-A1FC-C881920BB771";
name = "Oct 17, 22, 15:55";
shapes = (
{
closed = 1;
nodes = (
(40,0,l),
(200,0,l),
(200,700,l),
(40,700,l)
);
},
{
closed = 1;
nodes = (
(325,0,l),
(470,0,l),
(333,700,l),
(183,700,l)
);
},
{
closed = 1;
nodes = (
(440,0,l),
(585,0,l),
(727,700,l),
(577,700,l)
);
},
{
closed = 1;
nodes = (
(710,0,l),
(870,0,l),
(870,700,l),
(710,700,l)
);
}
);
width = 910;
},
{
layerId = "FEED6CC0-04FF-4268-9347-B4C5F134C93B";
associatedMasterId = "49638240-DECC-40F3-A1FC-C881920BB771";
name = "Oct 11, 22, 16:06";
shapes = (
{
closed = 1;
nodes = (
(40,0,l),
(200,0,l),
(200,700,l),
(40,700,l)
);
},
{
closed = 1;
nodes = (
(310,0,l),
(455,0,l),
(350,700,l),
(200,700,l)
);
},
{
closed = 1;
nodes = (
(455,0,l),
(600,0,l),
(710,700,l),
(560,700,l)
);
},
{
closed = 1;
nodes = (
(710,0,l),
(870,0,l),
(870,700,l),
(710,700,l)
);
}
);
width = 910;
},
{
layerId = "1C5F2640-9EE0-4EB3-A768-DDE4231F942D";
associatedMasterId = "49638240-DECC-40F3-A1FC-C881920BB771";
name = "Jan 13, 23, 18:11";
shapes = (
{
closed = 1;
nodes = (
(45,0,l),
(197,0,l),
(197,600,l,{name = cr01;}),
(200,702,l),
(199,703,l),
(97,700,l),
(45,700,l)
);
},
{
closed = 1;
nodes = (
(340,0,l),
(494,0,l),
(352,603,l,{name = cr03;}),
(332,702,l),
(331,703,l),
(229,700,l),
(164,700,l)
);
},
{
closed = 1;
nodes = (
(418,0,l),
(558,0,l),
(713,604,l,{name = cr02;}),
(740,702,l),
(739,703,l),
(638,700,l),
(587,700,l)
);
},
{
closed = 1;
nodes = (
(704,0,l),
(860,0,l),
(860,700,l),
(704,700,l)
);
}
);
width = 905;
},
{
layerId = "65095D60-102C-4F46-8B16-750A599E5A95";
associatedMasterId = "49638240-DECC-40F3-A1FC-C881920BB771";
name = "Jan 13, 23, 18:10";
shapes = (
{
closed = 1;
nodes = (
(45,0,l),
(197,0,l),
(197,600,l,{name = cr01;}),
(200,702,l),
(199,703,l),
(97,700,l),
(45,700,l)
);
},
{
closed = 1;
nodes = (
(336,0,l),
(492,0,l),
(348,603,l,{name = cr03;}),
(328,702,l),
(327,703,l),
(225,700,l),
(164,700,l)
);
},
{
closed = 1;
nodes = (
(426,0,l),
(575,0,l),
(723,603,l,{name = cr02;}),
(750,702,l),
(749,703,l),
(647,700,l),
(593,700,l)
);
},
{
closed = 1;
nodes = (
(714,0,l),
(870,0,l),
(870,700,l),
(714,700,l)
);
}
);
width = 915;
},
{
layerId = "5EA90EDC-00F4-42ED-A7F7-6EA9AFA2EF18";
associatedMasterId = "49638240-DECC-40F3-A1FC-C881920BB771";
name = "Jan 13, 23, 18:03";
shapes = (
{
closed = 1;
nodes = (
(45,0,l),
(201,0,l),
(201,600,l,{name = cr01;}),
(204,702,l),
(203,703,l),
(101,700,l),
(45,700,l)
);
},
{
closed = 1;
nodes = (
(336,0,l),
(492,0,l),
(357,603,l,{name = cr03;}),
(338,702,l),
(337,703,l),
(235,700,l),
(174,700,l)
);
},
{
closed = 1;
nodes = (
(439,0,l),
(590,0,l),
(730,603,l,{name = cr02;}),
(755,702,l),
(754,703,l),
(652,700,l),
(596,700,l)
);
},
{
closed = 1;
nodes = (
(725,0,l),
(885,0,l),
(885,700,l),
(725,700,l)
);
}
);
width = 930;
},
{
layerId = "49638240-DECC-40F3-A1FC-C881920BB771";
shapes = (
{
closed = 1;
nodes = (
(587,700,l),
(416,0,l),
(494,0,l),
(329,700,l),
(45,700,l),
(45,0,l),
(197,0,l),
(197,700,l),
(164,700,l),
(340,0,l),
(558,0,l),
(742,700,l),
(704,700,l),
(704,0,l),
(860,0,l),
(860,700,l)
);
}
);
width = 905;
},
{
layerId = "90782102-DD4F-4F1B-9EC1-4F0D891E9AD9";
associatedMasterId = "BC44314D-ED22-409A-ACDF-E854CADB3608";
name = "Jan 13, 23, 18:11";
shapes = (
{
closed = 1;
nodes = (
(65,0,l),
(143,0,l),
(143,600,l,{name = cr01;}),
(146,702,l),
(145,703,l),
(43,700,l),
(65,700,l)
);
},
{
closed = 1;
nodes = (
(349,0,l),
(433,0,l),
(244,605,l,{name = cr02;}),
(218,702,l),
(217,703,l),
(116,700,l),
(131,700,l)
);
},
{
closed = 1;
nodes = (
(400,0,l),
(480,0,l),
(669,605,l,{name = cr03;}),
(701,702,l),
(700,703,l),
(599,700,l),
(618,700,l)
);
},
{
closed = 1;
nodes = (
(686,0,l),
(766,0,l),
(766,700,l),
(686,700,l)
);
}
);
width = 831;
},
{
layerId = "FDC0B61B-EA7C-465A-9135-6F72BE2F0311";
associatedMasterId = "BC44314D-ED22-409A-ACDF-E854CADB3608";
name = "Jan 13, 23, 18:10";
shapes = (
{
closed = 1;
nodes = (
(65,0,l),
(143,0,l),
(143,600,l,{name = cr01;}),
(146,702,l),
(145,703,l),
(43,700,l),
(65,700,l)
);
},
{
closed = 1;
nodes = (
(349,0,l),
(433,0,l),
(244,605,l,{name = cr02;}),
(218,702,l),
(217,703,l),
(116,700,l),
(131,700,l)
);
},
{
closed = 1;
nodes = (
(410,0,l),
(490,0,l),
(679,605,l,{name = cr03;}),
(711,702,l),
(710,703,l),
(609,700,l),
(628,700,l)
);
},
{
closed = 1;
nodes = (
(696,0,l),
(776,0,l),
(776,700,l),
(696,700,l)
);
}
);
width = 841;
},
{
layerId = "BC44314D-ED22-409A-ACDF-E854CADB3608";
shapes = (
{
closed = 1;
nodes = (
(625,700,l),
(400,21,l),
(433,21,l),
(208,700,l),
(65,700,l),
(65,0,l),
(143,0,l),
(144,679,l),
(131,679,l),
(356,0,l),
(473,0,l),
(700,679,l),
(686,679,l),
(686,0,l),
(766,0,l),
(766,700,l)
);
}
);
width = 831;
},
{
layerId = "D7099DF3-6127-46B3-A8CF-22E12F13B3B7";
shapes = (
{
closed = 1;
nodes = (
(640,700,l),
(393,30,l),
(409,30,l),
(159,700,l),
(73,700,l),
(73,0,l),
(121,0,l),
(123,670,l),
(118,670,l),
(363,0,l),
(439,0,l),
(683,670,l),
(679,670,l),
(679,0,l),
(728,0,l),
(728,700,l)
);
}
);
width = 801;
}
);
leftKerningGroup = H;
rightKerningGroup = H;
unicode = 77;
},
{
glyphname = N;
layers = (
{
layerId = "15187948-5E2B-4937-84A8-F930C78DD539";
name = "#instance";
shapes = (
{
closed = 1;
nodes = (
(65,700,l),
(65,0,l),
(143,0,l),
(143,682,l),
(125,681,l),
(465,0,l),
(600,0,l),
(600,700,l),
(522,700,l),
(522,18,l),
(540,19,l),
(200,700,l)
);
}
);
width = 665;
},
{
layerId = "6D8A6317-8B9D-4E8F-AB1B-447E8CECF602";
associatedMasterId = "49638240-DECC-40F3-A1FC-C881920BB771";
name = "Oct 4, 22, 14:48";
shapes = (
{
closed = 1;
nodes = (
(20,0,l),
(200,0,l),
(200,700,l),
(20,700,l)
);
},
{
closed = 1;
nodes = (
(450,0,l),
(630,0,l),
(630,700,l),
(450,700,l)
);
},
{
closed = 1;
nodes = (
(300,0,l),
(450,0,l),
(350,700,l),
(200,700,l)
);
}
);
width = 570;
},
{
layerId = "1E778922-2DC0-4156-9012-8DCBD3E8AB35";
associatedMasterId = "49638240-DECC-40F3-A1FC-C881920BB771";
name = "Oct 4, 22, 14:25";
shapes = (
{
closed = 1;
nodes = (
(20,0,l),
(200,0,l),
(200,700,l),
(20,700,l)
);
},
{
closed = 1;
nodes = (
(370,0,l),
(550,0,l),
(550,700,l),
(370,700,l)
);
},
{
closed = 1;
nodes = (
(280,0,l),
(410,0,l),
(290,700,l),
(160,700,l)
);
}
);
width = 570;
},
{
layerId = "E8DD71E4-C89A-4BD7-A5A0-64A70336B6D2";
associatedMasterId = "49638240-DECC-40F3-A1FC-C881920BB771";
name = "Oct 19, 22, 14:42";
shapes = (
{
closed = 1;
nodes = (
(45,0,l),
(201,0,l),
(201,700,l),
(45,700,l)
);
},
{
closed = 1;
nodes = (
(499,0,l),
(655,0,l),
(655,700,l),
(499,700,l)
);
},
{
closed = 1;
nodes = (
(377,0,l),
(539,0,l),
(323,700,l),
(161,700,l)
);
}
);
width = 700;
},
{
layerId = "15041DAD-37E8-43E1-92C7-28B8F2F381B4";
associatedMasterId = "49638240-DECC-40F3-A1FC-C881920BB771";
name = "Oct 17, 22, 15:53";
shapes = (
{
closed = 1;
nodes = (
(40,0,l),
(200,0,l),
(200,700,l),
(40,700,l)
);
},
{
closed = 1;
nodes = (
(490,0,l),
(650,0,l),
(650,700,l),
(490,700,l)
);
},
{
closed = 1;
nodes = (
(360,0,l),
(510,0,l),
(330,700,l),
(180,700,l)
);
}
);
width = 690;
},
{
layerId = "B3B59D57-0026-43DA-B1EC-0F352511A956";
associatedMasterId = "49638240-DECC-40F3-A1FC-C881920BB771";
name = "Oct 11, 22, 16:05";
shapes = (
{
closed = 1;
nodes = (
(40,0,l),
(200,0,l),
(200,700,l),
(40,700,l)
);
},
{
closed = 1;
nodes = (
(490,0,l),
(650,0,l),
(650,700,l),
(490,700,l)
);
},
{
closed = 1;
nodes = (
(350,0,l),
(500,0,l),
(340,700,l),
(190,700,l)
);
}
);
width = 690;
},
{
layerId = "054B5E92-CB66-4794-BD4E-087D598C6236";
associatedMasterId = "49638240-DECC-40F3-A1FC-C881920BB771";
name = "Jan 13, 23, 18:02";
shapes = (
{
closed = 1;
nodes = (
(45,0,l),
(199,0,l),
(199,600,l,{name = cr01;}),
(206,706,l),
(205,707,l),
(99,700,l),
(45,700,l)
);
},
{
closed = 1;
nodes = (
(501,100,l,{name = cr02;}),
(494,-6,l),
(495,-7,l),
(601,0,l),
(655,0,l),
(655,700,l),
(501,700,l)
);
},
{
closed = 1;
nodes = (
(377,0,l),
(539,0,l),
(323,700,l),
(161,700,l)
);
}
);
width = 700;
},
{
layerId = "49638240-DECC-40F3-A1FC-C881920BB771";
shapes = (
{
closed = 1;
nodes = (
(45,700,l),
(45,0,l),
(197,0,l),
(197,700,l),
(151,700,l),
(387,0,l),
(655,0,l),
(655,700,l),
(503,700,l),
(503,0,l),
(549,0,l),
(312,700,l)
);
}
);
width = 700;
},
{
layerId = "950CE5A1-58A3-4708-85EC-3BD4EF1AE093";
associatedMasterId = "BC44314D-ED22-409A-ACDF-E854CADB3608";
name = "Nov 17, 22, 12:09";
shapes = (
{
closed = 1;
nodes = (
(65,0,l),
(141,0,l),
(141,600,l,{name = cr01;}),
(144,702,l),
(143,703,l),
(41,700,l),
(65,700,l)
);
},
{
closed = 1;
nodes = (
(519,100,l,{name = cr02;}),
(516,-2,l),
(517,-3,l),
(619,0,l),
(595,0,l),
(595,700,l),
(519,700,l)
);
},
{
closed = 1;
nodes = (
(464,0,l),
(552,0,l),
(196,700,l),
(108,700,l)
);
}
);
width = 660;
},
{
layerId = "BC44314D-ED22-409A-ACDF-E854CADB3608";
shapes = (
{
closed = 1;
nodes = (
(65,700,l),
(65,0,l),
(143,0,l),
(143,682,l),
(125,681,l),
(465,0,l),
(600,0,l),
(600,700,l),
(522,700,l),
(522,18,l),
(540,19,l),
(200,700,l)
);
}
);
width = 665;
},
{
layerId = "D7099DF3-6127-46B3-A8CF-22E12F13B3B7";
shapes = (
{
closed = 1;
nodes = (
(73,700,l),
(73,0,l),
(121,0,l),
(121,675,l),
(114,673,l),
(496,0,l),
(578,0,l),
(578,700,l),
(530,700,l),
(530,25,l),
(537,27,l),
(155,700,l)
);
}
);
width = 651;
}
);
leftKerningGroup = H;
rightKerningGroup = H;
unicode = 78;
},
{
glyphname = O;
layers = (
{
layerId = "D98D30BA-60CD-46CA-A869-6ABCAD9BC393";
associatedMasterId = "49638240-DECC-40F3-A1FC-C881920BB771";
name = "Oct 4, 22, 15:12";
shapes = (
{
closed = 1;
nodes = (
(30,235,ls),
(30,74,o),
(113,-15,o),
(260,-15,cs),
(407,-15,o),
(490,74,o),
(490,235,cs),
(490,465,ls),
(490,626,o),
(407,715,o),
(260,715,cs),
(113,715,o),
(30,626,o),
(30,465,cs)
);
},
{
closed = 1;
nodes = (
(190,462,ls),
(190,529,o),
(215,559,o),
(260,559,cs),
(306,559,o),
(330,529,o),
(330,462,cs),
(330,238,ls),
(330,171,o),
(306,141,o),
(260,141,cs),
(215,141,o),
(190,171,o),
(190,238,cs)
);
}
);
width = 520;
},
{
layerId = "CC40A59E-FF2F-4DAE-A830-440629733067";
associatedMasterId = "49638240-DECC-40F3-A1FC-C881920BB771";
name = "Oct 4, 22, 15:05";
shapes = (
{
closed = 1;
nodes = (
(20,215,ls),
(20,67,o),
(99,-15,o),
(240,-15,cs),
(381,-15,o),
(460,67,o),
(460,215,cs),
(460,485,ls),
(460,633,o),
(381,715,o),
(240,715,cs),
(99,715,o),
(20,633,o),
(20,485,cs)
);
},
{
closed = 1;
nodes = (
(180,482,ls),
(180,535,o),
(201,559,o),
(240,559,cs),
(279,559,o),
(300,535,o),
(300,482,cs),
(300,218,ls),
(300,165,o),
(279,141,o),
(240,141,cs),
(201,141,o),
(180,165,o),
(180,218,cs)
);
}
);
width = 480;
},
{
layerId = "2C159917-89A8-40B6-A229-5AEE8F6C38BE";
associatedMasterId = "49638240-DECC-40F3-A1FC-C881920BB771";
name = "Oct 4, 22, 14:47";
shapes = (
{
closed = 1;
nodes = (
(20,250,ls),
(20,83,o),
(109,-10,o),
(270,-10,cs),
(431,-10,o),
(520,83,o),
(520,250,cs),
(520,450,ls),
(520,617,o),
(431,710,o),
(270,710,cs),
(109,710,o),
(20,617,o),
(20,450,cs)
);
},
{
closed = 1;
nodes = (
(210,463,ls),
(210,521,o),
(231,540,o),
(270,540,cs),
(309,540,o),
(330,521,o),
(330,463,cs),
(330,237,ls),
(330,179,o),
(309,160,o),
(270,160,cs),
(231,160,o),
(210,179,o),
(210,237,cs)
);
}
);
width = 540;
},
{
layerId = "0EAEBE65-6278-4C0D-BA9F-725D3C65A25D";
associatedMasterId = "49638240-DECC-40F3-A1FC-C881920BB771";
name = "Oct 20, 22, 14:10";
shapes = (
{
closed = 1;
nodes = (
(25,138,o),
(174,-12,o),
(385,-12,cs),
(596,-12,o),
(745,138,o),
(745,350,cs),
(745,562,o),
(596,712,o),
(385,712,cs),
(174,712,o),
(25,562,o),
(25,350,cs)
);
},
{
closed = 1;
nodes = (
(189,472,o),
(260,558,o),
(385,558,cs),
(510,558,o),
(581,472,o),
(581,350,cs),
(581,230,o),
(510,142,o),
(385,142,cs),
(260,142,o),
(189,230,o),
(189,350,cs)
);
}
);
width = 770;
},
{
layerId = "46D9986F-7906-465E-9B64-5122B32A6FDB";
associatedMasterId = "49638240-DECC-40F3-A1FC-C881920BB771";
name = "Oct 13, 22, 17:12";
shapes = (
{
closed = 1;
nodes = (
(20,133,o),
(169,-20,o),
(380,-20,cs),
(591,-20,o),
(740,133,o),
(740,350,cs),
(740,567,o),
(591,720,o),
(380,720,cs),
(169,720,o),
(20,567,o),
(20,350,cs)
);
},
{
closed = 1;
nodes = (
(186,473,o),
(256,560,o),
(380,560,cs),
(504,560,o),
(574,473,o),
(574,350,cs),
(574,228,o),
(504,140,o),
(380,140,cs),
(256,140,o),
(186,228,o),
(186,350,cs)
);
}
);
width = 760;
},
{
anchors = (
{
name = bottom;
position = "{385, 0}";
},
{
name = center;
position = "{385, 350}";
},
{
name = ogonek;
position = "{693, 10}";
},
{
name = top;
position = "{385, 700}";
},
{
name = topleft;
position = "{20, 700}";
},
{
name = topright;
position = "{750, 700}";
}
);
layerId = "49638240-DECC-40F3-A1FC-C881920BB771";
shapes = (
{
closed = 1;
nodes = (
(25,142,o),
(178,-12,o),
(385,-12,cs),
(592,-12,o),
(745,142,o),
(745,350,cs),
(745,558,o),
(592,712,o),
(385,712,cs),
(178,712,o),
(25,558,o),
(25,350,cs)
);
},
{
closed = 1;
nodes = (
(189,466,o),
(266,558,o),
(385,558,cs),
(504,558,o),
(581,466,o),
(581,350,cs),
(581,234,o),
(504,142,o),
(385,142,cs),
(266,142,o),
(189,234,o),
(189,350,cs)
);
}
);
width = 770;
},
{
layerId = "A24F12AB-5E62-41B2-B175-3146FB6DF391";
associatedMasterId = "BC44314D-ED22-409A-ACDF-E854CADB3608";
name = "Nov 17, 22, 15:38";
shapes = (
{
closed = 1;
nodes = (
(45,142,o),
(194,-8,o),
(395,-8,cs),
(596,-8,o),
(745,142,o),
(745,350,cs),
(745,558,o),
(596,708,o),
(395,708,cs),
(194,708,o),
(45,558,o),
(45,350,cs)
);
},
{
closed = 1;
nodes = (
(125,510,o),
(231,632,o),
(395,632,cs),
(558,632,o),
(663,510,o),
(663,350,cs),
(663,191,o),
(558,68,o),
(395,68,cs),
(231,68,o),
(125,191,o),
(125,350,cs)
);
}
);
width = 790;
},
{
layerId = "02A561F9-E3AC-4FD2-80EE-A90DE83D067B";
associatedMasterId = "BC44314D-ED22-409A-ACDF-E854CADB3608";
name = "Nov 17, 22, 15:37";
shapes = (
{
closed = 1;
nodes = (
(45,142,o),
(194,-12,o),
(395,-12,cs),
(596,-12,o),
(745,142,o),
(745,350,cs),
(745,558,o),
(596,712,o),
(395,712,cs),
(194,712,o),
(45,558,o),
(45,350,cs)
);
},
{
closed = 1;
nodes = (
(125,510,o),
(231,636,o),
(395,636,cs),
(558,636,o),
(663,510,o),
(663,350,cs),
(663,191,o),
(558,64,o),
(395,64,cs),
(231,64,o),
(125,191,o),
(125,350,cs)
);
}
);
width = 790;
},
{
anchors = (
{
name = bottom;
position = "{387, 0}";
},
{
name = center;
position = "{387, 350}";
},
{
name = ogonek;
position = "{697, 10}";
},
{
name = top;
position = "{387, 700}";
},
{
name = topleft;
position = "{20, 700}";
},
{
name = topright;
position = "{754, 700}";
}
);
layerId = "BC44314D-ED22-409A-ACDF-E854CADB3608";
shapes = (
{
closed = 1;
nodes = (
(45,142,o),
(188,-8,o),
(387,-8,cs),
(586,-8,o),
(729,142,o),
(729,350,cs),
(729,558,o),
(586,708,o),
(387,708,cs),
(188,708,o),
(45,558,o),
(45,350,cs)
);
},
{
closed = 1;
nodes = (
(127,510,o),
(226,632,o),
(387,632,cs),
(548,632,o),
(647,510,o),
(647,350,cs),
(647,191,o),
(548,68,o),
(387,68,cs),
(226,68,o),
(127,191,o),
(127,350,cs)
);
}
);
width = 774;
},
{
anchors = (
{
name = bottom;
position = "{388, 0}";
},
{
name = center;
position = "{388, 350}";
},
{
name = ogonek;
position = "{699, 10}";
},
{
name = top;
position = "{388, 700}";
},
{
name = topleft;
position = "{20, 700}";
},
{
name = topright;
position = "{756, 700}";
}
);
layerId = "D7099DF3-6127-46B3-A8CF-22E12F13B3B7";
shapes = (
{
closed = 1;
nodes = (
(53,142,o),
(192,-6,o),
(388,-6,cs),
(584,-6,o),
(723,142,o),
(723,350,cs),
(723,558,o),
(584,706,o),
(388,706,cs),
(192,706,o),
(53,558,o),
(53,350,cs)
);
},
{
closed = 1;
nodes = (
(102,528,o),
(210,662,o),
(388,662,cs),
(566,662,o),
(673,528,o),
(673,350,cs),
(673,174,o),
(566,38,o),
(388,38,cs),
(210,38,o),
(102,174,o),
(102,350,cs)
);
}
);
width = 776;
}
);
leftKerningGroup = O;
rightKerningGroup = O;
unicode = 79;
},
{
glyphname = Oslash;
layers = (
{
layerId = "49638240-DECC-40F3-A1FC-C881920BB771";
shapes = (
{
closed = 1;
nodes = (
(35,0,l),
(166,0,l),
(735,700,l),
(604,700,l)
);
},
{
closed = 1;
nodes = (
(25,142,o),
(178,-12,o),
(385,-12,cs),
(592,-12,o),
(745,142,o),
(745,350,cs),
(745,558,o),
(592,712,o),
(385,712,cs),
(178,712,o),
(25,558,o),
(25,350,cs)
);
},
{
closed = 1;
nodes = (
(189,466,o),
(266,558,o),
(385,558,cs),
(504,558,o),
(581,466,o),
(581,350,cs),
(581,234,o),
(504,142,o),
(385,142,cs),
(266,142,o),
(189,234,o),
(189,350,cs)
);
}
);
width = 770;
},
{
layerId = "BC44314D-ED22-409A-ACDF-E854CADB3608";
shapes = (
{
closed = 1;
nodes = (
(57,0,l),
(133,0,l),
(717,700,l),
(641,700,l)
);
},
{
closed = 1;
nodes = (
(45,142,o),
(188,-8,o),
(387,-8,cs),
(586,-8,o),
(729,142,o),
(729,350,cs),
(729,558,o),
(586,708,o),
(387,708,cs),
(188,708,o),
(45,558,o),
(45,350,cs)
);
},
{
closed = 1;
nodes = (
(127,510,o),
(226,632,o),
(387,632,cs),
(548,632,o),
(647,510,o),
(647,350,cs),
(647,191,o),
(548,68,o),
(387,68,cs),
(226,68,o),
(127,191,o),
(127,350,cs)
);
}
);
width = 774;
},
{
layerId = "D7099DF3-6127-46B3-A8CF-22E12F13B3B7";
shapes = (
{
closed = 1;
nodes = (
(66,0,l),
(120,0,l),
(710,700,l),
(656,700,l)
);
},
{
closed = 1;
nodes = (
(53,142,o),
(192,-6,o),
(388,-6,cs),
(584,-6,o),
(723,142,o),
(723,350,cs),
(723,558,o),
(584,706,o),
(388,706,cs),
(192,706,o),
(53,558,o),
(53,350,cs)
);
},
{
closed = 1;
nodes = (
(102,528,o),
(210,662,o),
(388,662,cs),
(566,662,o),
(673,528,o),
(673,350,cs),
(673,174,o),
(566,38,o),
(388,38,cs),
(210,38,o),
(102,174,o),
(102,350,cs)
);
}
);
width = 776;
}
);
unicode = 216;
},
{
glyphname = OE;
layers = (
{
layerId = "49638240-DECC-40F3-A1FC-C881920BB771";
shapes = (
{
closed = 1;
nodes = (
(25,142,o),
(174,-12,o),
(375,-12,cs),
(576,-12,o),
(725,142,o),
(725,350,cs),
(725,558,o),
(576,712,o),
(375,712,cs),
(174,712,o),
(25,558,o),
(25,350,cs)
);
},
{
closed = 1;
nodes = (
(189,466,o),
(266,558,o),
(385,558,cs),
(504,558,o),
(581,466,o),
(581,350,cs),
(581,234,o),
(504,142,o),
(385,142,cs),
(266,142,o),
(189,234,o),
(189,350,cs)
);
},
{
closed = 1;
nodes = (
(591,550,l),
(971,550,l),
(971,700,l),
(591,700,l)
);
},
{
closed = 1;
nodes = (
(591,0,l),
(741,0,l),
(741,657,l),
(591,657,l)
);
},
{
closed = 1;
nodes = (
(651,281,l),
(961,281,l),
(961,423,l),
(651,423,l)
);
},
{
closed = 1;
nodes = (
(591,0,l),
(971,0,l),
(971,150,l),
(591,150,l)
);
}
);
width = 1006;
},
{
layerId = "BC44314D-ED22-409A-ACDF-E854CADB3608";
shapes = (
{
closed = 1;
nodes = (
(45,142,o),
(188,-8,o),
(387,-8,cs),
(586,-8,o),
(709,142,o),
(709,350,cs),
(709,558,o),
(586,708,o),
(387,708,cs),
(188,708,o),
(45,558,o),
(45,350,cs)
);
},
{
closed = 1;
nodes = (
(127,510,o),
(226,632,o),
(387,632,cs),
(548,632,o),
(647,510,o),
(647,350,cs),
(647,191,o),
(548,68,o),
(387,68,cs),
(226,68,o),
(127,191,o),
(127,350,cs)
);
},
{
closed = 1;
nodes = (
(649,626,l),
(1019,626,l),
(1019,700,l),
(649,700,l)
);
},
{
closed = 1;
nodes = (
(649,0,l),
(729,0,l),
(729,657,l),
(649,657,l)
);
},
{
closed = 1;
nodes = (
(709,324,l),
(1001,324,l),
(1001,396,l),
(709,396,l)
);
},
{
closed = 1;
nodes = (
(649,0,l),
(1019,0,l),
(1019,74,l),
(649,74,l)
);
}
);
width = 1074;
},
{
layerId = "D7099DF3-6127-46B3-A8CF-22E12F13B3B7";
shapes = (
{
closed = 1;
nodes = (
(53,142,o),
(194,-6,o),
(392,-6,cs),
(590,-6,o),
(703,142,o),
(703,350,cs),
(703,558,o),
(590,706,o),
(392,706,cs),
(194,706,o),
(53,558,o),
(53,350,cs)
);
},
{
closed = 1;
nodes = (
(102,528,o),
(210,662,o),
(388,662,cs),
(566,662,o),
(673,528,o),
(673,350,cs),
(673,174,o),
(566,38,o),
(388,38,cs),
(210,38,o),
(102,174,o),
(102,350,cs)
);
},
{
closed = 1;
nodes = (
(672,656,l),
(1038,656,l),
(1038,700,l),
(672,700,l)
);
},
{
closed = 1;
nodes = (
(672,0,l),
(724,0,l),
(724,657,l),
(672,657,l)
);
},
{
closed = 1;
nodes = (
(732,341,l),
(1017,341,l),
(1017,385,l),
(732,385,l)
);
},
{
closed = 1;
nodes = (
(672,0,l),
(1038,0,l),
(1038,44,l),
(672,44,l)
);
}
);
width = 1101;
}
);
unicode = 338;
},
{
glyphname = P;
layers = (
{
layerId = "15187948-5E2B-4937-84A8-F930C78DD539";
name = "#instance";
shapes = (
{
closed = 1;
nodes = (
(65,0,l),
(145,0,l),
(145,700,l),
(65,700,l)
);
},
{
closed = 1;
nodes = (
(100,292,l),
(260,292,ls),
(393,292,o),
(485,360,o),
(485,494,cs),
(485,619,o),
(405,700,o),
(260,700,cs),
(100,700,l),
(100,626,l),
(260,626,ls),
(335,626,o),
(404,589,o),
(404,494,cs),
(404,405,o),
(344,366,o),
(260,366,cs),
(100,366,l)
);
}
);
width = 515;
},
{
layerId = "0EAEBE65-6278-4C0D-BA9F-725D3C65A25D";
associatedMasterId = "49638240-DECC-40F3-A1FC-C881920BB771";
name = "Oct 20, 22, 14:10";
shapes = (
{
closed = 1;
nodes = (
(45,0,l),
(205,0,l),
(205,657,l),
(45,657,l)
);
},
{
closed = 1;
nodes = (
(200,222,l),
(255,222,ls),
(413,222,o),
(515,308,o),
(515,459,cs),
(515,599,o),
(426,700,o),
(255,700,cs),
(45,700,l),
(45,548,l),
(255,548,ls),
(309,548,o),
(351,519,o),
(351,455,cs),
(351,395,o),
(315,362,o),
(255,362,cs),
(200,362,l)
);
}
);
width = 540;
},
{
layerId = "446FE938-DD0E-4112-B018-F682235E2D4C";
associatedMasterId = "49638240-DECC-40F3-A1FC-C881920BB771";
name = "Oct 17, 22, 15:57";
shapes = (
{
closed = 1;
nodes = (
(40,0,l),
(200,0,l),
(200,657,l),
(40,657,l)
);
},
{
closed = 1;
nodes = (
(195,212,l),
(230,212,ls),
(386,212,o),
(486,300,o),
(486,454,cs),
(486,597,o),
(398,700,o),
(230,700,cs),
(40,700,l),
(40,540,l),
(230,540,ls),
(284,540,o),
(326,512,o),
(326,451,cs),
(326,394,o),
(290,362,o),
(230,362,cs),
(195,362,l)
);
}
);
width = 506;
},
{
layerId = "49638240-DECC-40F3-A1FC-C881920BB771";
shapes = (
{
closed = 1;
nodes = (
(45,0,l),
(205,0,l),
(205,700,l),
(45,700,l)
);
},
{
closed = 1;
nodes = (
(145,222,l),
(260,222,ls),
(414,222,o),
(520,311,o),
(520,459,cs),
(520,596,o),
(427,700,o),
(260,700,cs),
(145,700,l),
(145,550,l),
(260,550,ls),
(310,550,o),
(356,521,o),
(356,456,cs),
(356,395,o),
(316,362,o),
(260,362,cs),
(145,362,l)
);
}
);
width = 545;
},
{
layerId = "57E7EA4A-3D52-4890-8D15-AEE8A75C7C65";
associatedMasterId = "BC44314D-ED22-409A-ACDF-E854CADB3608";
name = "Nov 17, 22, 18:22";
shapes = (
{
closed = 1;
nodes = (
(65,0,l),
(145,0,l),
(145,657,l),
(65,657,l)
);
},
{
closed = 1;
nodes = (
(100,292,l),
(260,292,ls),
(393,292,o),
(485,368,o),
(485,494,cs),
(485,611,o),
(405,700,o),
(260,700,cs),
(65,700,l),
(65,626,l),
(260,626,ls),
(335,626,o),
(404,584,o),
(404,494,cs),
(404,410,o),
(344,366,o),
(260,366,cs),
(100,366,l)
);
}
);
width = 515;
},
{
layerId = "BC44314D-ED22-409A-ACDF-E854CADB3608";
shapes = (
{
closed = 1;
nodes = (
(65,0,l),
(145,0,l),
(145,700,l),
(65,700,l)
);
},
{
closed = 1;
nodes = (
(100,292,l),
(260,292,ls),
(393,292,o),
(485,360,o),
(485,494,cs),
(485,619,o),
(405,700,o),
(260,700,cs),
(100,700,l),
(100,626,l),
(260,626,ls),
(335,626,o),
(404,589,o),
(404,494,cs),
(404,405,o),
(344,366,o),
(260,366,cs),
(100,366,l)
);
}
);
width = 515;
},
{
layerId = "D7099DF3-6127-46B3-A8CF-22E12F13B3B7";
shapes = (
{
closed = 1;
nodes = (
(73,0,l),
(121,0,l),
(121,700,l),
(73,700,l)
);
},
{
closed = 1;
nodes = (
(82,320,l),
(260,320,ls),
(385,320,o),
(471,380,o),
(471,508,cs),
(471,628,o),
(396,700,o),
(260,700,cs),
(82,700,l),
(82,656,l),
(260,656,ls),
(345,656,o),
(423,616,o),
(423,509,cs),
(423,409,o),
(355,368,o),
(260,368,cs),
(82,368,l)
);
}
);
width = 503;
}
);
leftKerningGroup = H;
rightKerningGroup = P;
unicode = 80;
},
{
glyphname = Thorn;
layers = (
{
layerId = "49638240-DECC-40F3-A1FC-C881920BB771";
shapes = (
{
closed = 1;
nodes = (
(45,0,l),
(205,0,l),
(205,700,l),
(45,700,l)
);
},
{
closed = 1;
nodes = (
(90,122,l),
(260,122,ls),
(414,122,o),
(520,211,o),
(520,359,cs),
(520,496,o),
(427,600,o),
(260,600,cs),
(95,600,l),
(95,448,l),
(260,448,ls),
(310,448,o),
(356,419,o),
(356,355,cs),
(356,295,o),
(316,262,o),
(260,262,cs),
(90,262,l)
);
}
);
width = 545;
},
{
layerId = "BC44314D-ED22-409A-ACDF-E854CADB3608";
shapes = (
{
closed = 1;
nodes = (
(65,0,l),
(145,0,l),
(145,700,l),
(65,700,l)
);
},
{
closed = 1;
nodes = (
(100,152,l),
(260,152,ls),
(393,152,o),
(485,220,o),
(485,354,cs),
(485,479,o),
(405,560,o),
(260,560,cs),
(105,560,l),
(105,486,l),
(260,486,ls),
(335,486,o),
(404,449,o),
(404,354,cs),
(404,265,o),
(344,226,o),
(260,226,cs),
(100,226,l)
);
}
);
width = 515;
},
{
layerId = "D7099DF3-6127-46B3-A8CF-22E12F13B3B7";
shapes = (
{
closed = 1;
nodes = (
(73,0,l),
(121,0,l),
(121,700,l),
(73,700,l)
);
},
{
closed = 1;
nodes = (
(104,164,l),
(260,164,ls),
(385,164,o),
(471,224,o),
(471,352,cs),
(471,472,o),
(396,544,o),
(260,544,cs),
(109,544,l),
(109,501,l),
(260,501,ls),
(345,501,o),
(423,461,o),
(423,354,cs),
(423,253,o),
(355,212,o),
(260,212,cs),
(104,212,l)
);
}
);
width = 503;
}
);
unicode = 222;
},
{
glyphname = Q;
layers = (
{
layerId = "15187948-5E2B-4937-84A8-F930C78DD539";
name = "#instance";
shapes = (
{
closed = 1;
nodes = (
(368,-142,l),
(695,-200,l),
(695,-54,l),
(368,-3,l)
);
},
{
closed = 1;
nodes = (
(25,142,o),
(178,-12,o),
(385,-12,cs),
(592,-12,o),
(745,142,o),
(745,350,cs),
(745,558,o),
(592,712,o),
(385,712,cs),
(178,712,o),
(25,558,o),
(25,350,cs)
);
},
{
closed = 1;
nodes = (
(189,466,o),
(266,558,o),
(385,558,cs),
(504,558,o),
(581,466,o),
(581,350,cs),
(581,234,o),
(504,142,o),
(385,142,cs),
(266,142,o),
(189,234,o),
(189,350,cs)
);
}
);
width = 770;
},
{
layerId = "5D06EF48-7928-4049-A822-731731DD2B22";
associatedMasterId = "49638240-DECC-40F3-A1FC-C881920BB771";
name = "Oct 17, 22, 16:28";
shapes = (
{
closed = 1;
nodes = (
(447,-200,l),
(645,-200,l),
(487,42,l),
(318,42,l)
);
},
{
closed = 1;
nodes = (
(25,142,o),
(178,-12,o),
(385,-12,cs),
(592,-12,o),
(745,142,o),
(745,350,cs),
(745,558,o),
(592,712,o),
(385,712,cs),
(178,712,o),
(25,558,o),
(25,350,cs)
);
},
{
closed = 1;
nodes = (
(189,466,o),
(266,558,o),
(385,558,cs),
(504,558,o),
(581,466,o),
(581,350,cs),
(581,234,o),
(504,142,o),
(385,142,cs),
(266,142,o),
(189,234,o),
(189,350,cs)
);
}
);
width = 760;
},
{
layerId = "8676AA4A-219D-4BF9-A77C-6F2BB581EBB8";
associatedMasterId = "49638240-DECC-40F3-A1FC-C881920BB771";
name = "Oct 17, 22, 15:59";
shapes = (
{
closed = 1;
nodes = (
(343,-140,l),
(690,-200,l),
(690,-40,l),
(343,-3,l)
);
},
{
closed = 1;
nodes = (
(25,142,o),
(178,-12,o),
(385,-12,cs),
(592,-12,o),
(745,142,o),
(745,350,cs),
(745,558,o),
(592,712,o),
(385,712,cs),
(178,712,o),
(25,558,o),
(25,350,cs)
);
},
{
closed = 1;
nodes = (
(189,466,o),
(266,558,o),
(385,558,cs),
(504,558,o),
(581,466,o),
(581,350,cs),
(581,234,o),
(504,142,o),
(385,142,cs),
(266,142,o),
(189,234,o),
(189,350,cs)
);
}
);
width = 760;
},
{
layerId = "49638240-DECC-40F3-A1FC-C881920BB771";
shapes = (
{
closed = 1;
nodes = (
(368,-142,l),
(695,-200,l),
(695,-54,l),
(368,-3,l)
);
},
{
closed = 1;
nodes = (
(25,142,o),
(178,-12,o),
(385,-12,cs),
(592,-12,o),
(745,142,o),
(745,350,cs),
(745,558,o),
(592,712,o),
(385,712,cs),
(178,712,o),
(25,558,o),
(25,350,cs)
);
},
{
closed = 1;
nodes = (
(189,466,o),
(266,558,o),
(385,558,cs),
(504,558,o),
(581,466,o),
(581,350,cs),
(581,234,o),
(504,142,o),
(385,142,cs),
(266,142,o),
(189,234,o),
(189,350,cs)
);
}
);
width = 770;
},
{
layerId = "BC44314D-ED22-409A-ACDF-E854CADB3608";
shapes = (
{
closed = 1;
nodes = (
(368,-72,l),
(665,-143,l),
(665,-64,l),
(368,-3,l)
);
},
{
closed = 1;
nodes = (
(45,142,o),
(188,-8,o),
(387,-8,cs),
(586,-8,o),
(729,142,o),
(729,350,cs),
(729,558,o),
(586,708,o),
(387,708,cs),
(188,708,o),
(45,558,o),
(45,350,cs)
);
},
{
closed = 1;
nodes = (
(127,510,o),
(226,632,o),
(387,632,cs),
(548,632,o),
(647,510,o),
(647,350,cs),
(647,191,o),
(548,68,o),
(387,68,cs),
(226,68,o),
(127,191,o),
(127,350,cs)
);
}
);
width = 774;
},
{
layerId = "D7099DF3-6127-46B3-A8CF-22E12F13B3B7";
shapes = (
{
closed = 1;
nodes = (
(368,-44,l),
(653,-120,l),
(653,-68,l),
(368,-3,l)
);
},
{
closed = 1;
nodes = (
(53,142,o),
(192,-6,o),
(388,-6,cs),
(584,-6,o),
(723,142,o),
(723,350,cs),
(723,558,o),
(584,706,o),
(388,706,cs),
(192,706,o),
(53,558,o),
(53,350,cs)
);
},
{
closed = 1;
nodes = (
(102,528,o),
(210,662,o),
(388,662,cs),
(566,662,o),
(673,528,o),
(673,350,cs),
(673,174,o),
(566,38,o),
(388,38,cs),
(210,38,o),
(102,174,o),
(102,350,cs)
);
}
);
width = 776;
}
);
leftKerningGroup = O;
rightKerningGroup = O;
unicode = 81;
},
{
glyphname = R;
layers = (
{
layerId = "15187948-5E2B-4937-84A8-F930C78DD539";
name = "#instance";
shapes = (
{
closed = 1;
nodes = (
(73,0,l),
(121,0,l),
(121,700,l),
(73,700,l)
);
},
{
closed = 1;
nodes = (
(162,376,l),
(432,0,l),
(498,0,l),
(239,352,l),
(239,341,l),
(229,333,l),
(408,333,o),
(484,385,o),
(484,510,cs),
(484,626,o),
(410,700,o),
(269,700,cs),
(93,700,l),
(93,654,l),
(277,654,ls),
(371,654,o),
(436,610,o),
(436,515,cs),
(436,420,o),
(371,377,o),
(277,377,cs),
(162,377,l)
);
}
);
width = 531;
},
{
layerId = "B72CF341-FA51-4003-9A99-95B20ADC906D";
associatedMasterId = "49638240-DECC-40F3-A1FC-C881920BB771";
name = "Oct 7, 22, 11:03";
shapes = (
{
closed = 1;
nodes = (
(40,0,l),
(200,0,l),
(200,657,l),
(40,657,l)
);
},
{
closed = 1;
nodes = (
(195,370,l),
(328,0,l),
(499,0,l),
(431,179,ls),
(398,266,o),
(350,322,o),
(230,322,c),
(230,305,l),
(386,305,o),
(470,376,o),
(470,501,cs),
(470,617,o),
(397,700,o),
(230,700,cs),
(40,700,l),
(40,550,l),
(230,550,ls),
(275,550,o),
(310,525,o),
(310,470,cs),
(310,420,o),
(280,392,o),
(230,392,cs),
(195,392,l)
);
}
);
width = 504;
},
{
layerId = "92C5E7AD-FFE4-4E4A-971E-EFE365467FF7";
associatedMasterId = "49638240-DECC-40F3-A1FC-C881920BB771";
name = "Oct 5, 22, 18:28";
shapes = (
{
closed = 1;
nodes = (
(40,0,l),
(200,0,l),
(200,657,l),
(40,657,l)
);
},
{
closed = 1;
nodes = (
(195,370,l),
(318,0,l),
(489,0,l),
(429,179,ls),
(399,268,o),
(350,322,o),
(230,322,c),
(230,305,l),
(380,305,o),
(460,376,o),
(460,501,cs),
(460,617,o),
(390,700,o),
(230,700,cs),
(40,700,l),
(40,550,l),
(230,550,ls),
(269,550,o),
(300,525,o),
(300,470,cs),
(300,420,o),
(274,392,o),
(230,392,cs),
(195,392,l)
);
}
);
width = 494;
},
{
layerId = "570E245C-8C95-42A5-8763-5A77E2130BE1";
associatedMasterId = "49638240-DECC-40F3-A1FC-C881920BB771";
name = "Oct 4, 22, 15:10";
shapes = (
{
closed = 1;
nodes = (
(20,0,l),
(180,0,l),
(180,657,l),
(20,657,l)
);
},
{
closed = 1;
nodes = (
(170,300,l),
(210,301,o),
(227,264,o),
(250,164,cs),
(288,0,l),
(454,0,l),
(417,153,ls),
(396,240,o),
(370,322,o),
(200,322,c),
(200,305,l),
(350,305,o),
(430,376,o),
(430,501,cs),
(430,617,o),
(360,700,o),
(200,700,cs),
(20,700,l),
(20,550,l),
(200,550,ls),
(239,550,o),
(270,525,o),
(270,470,cs),
(270,420,o),
(244,392,o),
(200,392,cs),
(160,392,l)
);
}
);
width = 464;
},
{
layerId = "9ABB7D2F-552A-45A9-88F4-306F21ECB93B";
associatedMasterId = "49638240-DECC-40F3-A1FC-C881920BB771";
name = "Oct 4, 22, 15:08";
shapes = (
{
closed = 1;
nodes = (
(20,0,l),
(180,0,l),
(180,657,l),
(20,657,l)
);
},
{
closed = 1;
nodes = (
(160,370,l),
(293,0,l),
(464,0,l),
(351,300,l),
(200,310,l),
(200,305,l),
(350,305,o),
(430,376,o),
(430,501,cs),
(430,617,o),
(360,700,o),
(200,700,cs),
(20,700,l),
(20,550,l),
(200,550,ls),
(239,550,o),
(270,525,o),
(270,470,cs),
(270,420,o),
(244,392,o),
(200,392,cs),
(160,392,l)
);
}
);
width = 464;
},
{
layerId = "BCE4E283-7D45-4D91-B3F0-4074811839B5";
associatedMasterId = "49638240-DECC-40F3-A1FC-C881920BB771";
name = "Oct 4, 22, 14:38";
shapes = (
{
closed = 1;
nodes = (
(480,350,l),
(502,389,o),
(510,434,o),
(510,487,cs),
(510,627,o),
(453,700,o),
(290,700,cs),
(30,700,l),
(30,534,l),
(270,534,ls),
(298,534,o),
(320,522,o),
(320,447,cs),
(320,395,o),
(309,367,o),
(298,350,c)
);
},
{
closed = 1;
nodes = (
(30,0,l),
(220,0,l),
(220,657,l),
(30,657,l)
);
},
{
closed = 1;
nodes = (
(330,0,l),
(534,0,l),
(400,350,l),
(230,350,l)
);
}
);
width = 600;
},
{
layerId = "17EE9EFB-BB0D-4A38-A953-BAA7C9FC1B6E";
associatedMasterId = "49638240-DECC-40F3-A1FC-C881920BB771";
name = "Oct 20, 22, 14:11";
shapes = (
{
closed = 1;
nodes = (
(45,0,l),
(205,0,l),
(205,657,l),
(45,657,l)
);
},
{
closed = 1;
nodes = (
(200,340,l),
(356,0,l),
(535,0,l),
(357,338,l),
(250,327,l),
(250,280,l),
(414,280,o),
(503,354,o),
(503,485,cs),
(503,610,o),
(426,700,o),
(250,700,cs),
(45,700,l),
(45,556,l),
(250,556,ls),
(301,556,o),
(340,527,o),
(340,465,cs),
(340,409,o),
(306,377,o),
(250,377,cs),
(200,377,l)
);
}
);
width = 545;
},
{
layerId = "E637887F-7339-4D66-AE2D-7C921644D657";
associatedMasterId = "49638240-DECC-40F3-A1FC-C881920BB771";
name = "Oct 17, 22, 16:16";
shapes = (
{
closed = 1;
nodes = (
(40,0,l),
(200,0,l),
(200,657,l),
(40,657,l)
);
},
{
closed = 1;
nodes = (
(195,320,l),
(334,0,l),
(510,0,l),
(429,178,ls),
(393,257,o),
(350,327,o),
(245,327,c),
(245,305,l),
(403,305,o),
(488,376,o),
(488,501,cs),
(488,617,o),
(414,700,o),
(245,700,cs),
(40,700,l),
(40,556,l),
(245,556,ls),
(290,556,o),
(325,529,o),
(325,470,cs),
(325,417,o),
(295,387,o),
(245,387,cs),
(195,387,l)
);
}
);
width = 514;
},
{
layerId = "3C3311EF-3E7E-4EDB-9D92-834B9ED4BC2A";
associatedMasterId = "49638240-DECC-40F3-A1FC-C881920BB771";
name = "Oct 17, 22, 16:10";
shapes = (
{
closed = 1;
nodes = (
(40,0,l),
(200,0,l),
(200,657,l),
(40,657,l)
);
},
{
closed = 1;
nodes = (
(195,310,l),
(328,0,l),
(499,0,l),
(327,378,l),
(230,322,l),
(230,305,l),
(386,305,o),
(470,376,o),
(470,501,cs),
(470,617,o),
(397,700,o),
(230,700,cs),
(40,700,l),
(40,550,l),
(230,550,ls),
(275,550,o),
(310,525,o),
(310,470,cs),
(310,420,o),
(280,392,o),
(230,392,cs),
(195,392,l)
);
}
);
width = 504;
},
{
layerId = "730C5FFA-B858-4C6C-BC61-695DAF5AAC96";
associatedMasterId = "49638240-DECC-40F3-A1FC-C881920BB771";
name = "Nov 17, 22, 18:20";
shapes = (
{
closed = 1;
nodes = (
(45,0,l),
(205,0,l),
(205,657,l),
(45,657,l)
);
},
{
closed = 1;
nodes = (
(185,372,l),
(361,0,l),
(540,0,l),
(357,338,l),
(255,327,l),
(255,280,l),
(419,280,o),
(508,354,o),
(508,485,cs),
(508,607,o),
(431,700,o),
(255,700,cs),
(45,700,l),
(45,556,l),
(255,556,ls),
(302,556,o),
(345,524,o),
(345,466,cs),
(345,408,o),
(302,377,o),
(255,377,cs),
(185,377,l)
);
}
);
width = 545;
},
{
layerId = "1F0B28B1-61F7-43BE-B294-2710AB641B0D";
associatedMasterId = "49638240-DECC-40F3-A1FC-C881920BB771";
name = "Nov 17, 22, 12:52";
shapes = (
{
closed = 1;
nodes = (
(45,0,l),
(205,0,l),
(205,657,l),
(45,657,l)
);
},
{
closed = 1;
nodes = (
(200,340,l),
(361,0,l),
(540,0,l),
(357,338,l),
(255,327,l),
(255,280,l),
(419,280,o),
(508,354,o),
(508,485,cs),
(508,607,o),
(431,700,o),
(255,700,cs),
(45,700,l),
(45,556,l),
(255,556,ls),
(302,556,o),
(345,524,o),
(345,466,cs),
(345,408,o),
(302,377,o),
(255,377,cs),
(200,377,l)
);
}
);
width = 545;
},
{
layerId = "42C8BD71-3D42-45E1-B1B1-2311C19D2683";
associatedMasterId = "49638240-DECC-40F3-A1FC-C881920BB771";
name = "Jan 10, 23, 16:43";
shapes = (
{
closed = 1;
nodes = (
(45,0,l),
(205,0,l),
(205,657,l),
(45,657,l)
);
},
{
closed = 1;
nodes = (
(200,372,l),
(361,0,l),
(540,0,l),
(365,338,l),
(255,327,l),
(255,280,l),
(419,280,o),
(508,349,o),
(508,485,cs),
(508,612,o),
(431,700,o),
(255,700,cs),
(45,700,l),
(45,556,l),
(255,556,ls),
(302,556,o),
(345,529,o),
(345,466,cs),
(345,403,o),
(302,377,o),
(255,377,cs),
(200,377,l)
);
}
);
width = 545;
},
{
layerId = "49638240-DECC-40F3-A1FC-C881920BB771";
shapes = (
{
closed = 1;
nodes = (
(45,0,l),
(205,0,l),
(205,657,l),
(45,657,l)
);
},
{
closed = 1;
nodes = (
(200,372,l),
(361,0,l),
(540,0,l),
(365,338,l),
(255,327,l),
(255,280,l),
(419,280,o),
(508,349,o),
(508,485,cs),
(508,612,o),
(431,700,o),
(255,700,cs),
(45,700,l),
(45,556,l),
(255,556,ls),
(302,556,o),
(345,529,o),
(345,466,cs),
(345,403,o),
(302,377,o),
(255,377,cs),
(200,377,l)
);
}
);
width = 545;
},
{
layerId = "4E9E1BEF-14B9-4BC7-B684-2134E65B5BC8";
associatedMasterId = "BC44314D-ED22-409A-ACDF-E854CADB3608";
name = "Nov 17, 22, 18:21";
shapes = (
{
closed = 1;
nodes = (
(65,0,l),
(145,0,l),
(145,657,l),
(65,657,l)
);
},
{
closed = 1;
nodes = (
(173,375,l),
(412,0,l),
(510,0,l),
(275,348,l),
(275,337,l),
(275,316,l),
(416,316,o),
(491,394,o),
(491,503,cs),
(491,612,o),
(416,700,o),
(275,700,cs),
(65,700,l),
(65,626,l),
(281,626,ls),
(351,626,o),
(410,582,o),
(410,501,cs),
(410,420,o),
(351,377,o),
(281,377,cs),
(173,377,l)
);
}
);
width = 525;
},
{
layerId = "3B2B00A5-A79D-4106-873C-BCD64E1C3456";
associatedMasterId = "BC44314D-ED22-409A-ACDF-E854CADB3608";
name = "Nov 17, 22, 13:08";
shapes = (
{
closed = 1;
nodes = (
(45,0,l),
(125,0,l),
(125,657,l),
(45,657,l)
);
},
{
closed = 1;
nodes = (
(153,362,l),
(392,0,l),
(490,0,l),
(255,338,l),
(255,327,l),
(255,306,l),
(399,306,o),
(476,386,o),
(476,498,cs),
(476,610,o),
(399,700,o),
(255,700,cs),
(45,700,l),
(45,626,l),
(261,626,ls),
(334,626,o),
(395,580,o),
(395,496,cs),
(395,412,o),
(334,367,o),
(261,367,cs),
(153,367,l)
);
}
);
width = 600;
},
{
layerId = "BC44314D-ED22-409A-ACDF-E854CADB3608";
shapes = (
{
closed = 1;
nodes = (
(65,0,l),
(145,0,l),
(145,700,l),
(65,700,l)
);
},
{
closed = 1;
nodes = (
(173,375,l),
(412,0,l),
(510,0,l),
(275,348,l),
(275,337,l),
(265,318,l),
(416,318,o),
(491,386,o),
(491,503,cs),
(491,622,o),
(416,700,o),
(265,700,cs),
(115,700,l),
(115,626,l),
(271,626,ls),
(351,626,o),
(410,587,o),
(410,501,cs),
(410,415,o),
(351,377,o),
(271,377,cs),
(173,377,l)
);
}
);
width = 535;
},
{
layerId = "D7099DF3-6127-46B3-A8CF-22E12F13B3B7";
shapes = (
{
closed = 1;
nodes = (
(73,0,l),
(121,0,l),
(121,700,l),
(73,700,l)
);
},
{
closed = 1;
nodes = (
(162,376,l),
(432,0,l),
(498,0,l),
(239,352,l),
(239,341,l),
(229,333,l),
(408,333,o),
(484,385,o),
(484,510,cs),
(484,626,o),
(410,700,o),
(269,700,cs),
(93,700,l),
(93,654,l),
(277,654,ls),
(371,654,o),
(436,610,o),
(436,515,cs),
(436,420,o),
(371,377,o),
(277,377,cs),
(162,377,l)
);
}
);
width = 531;
}
);
leftKerningGroup = H;
rightKerningGroup = R;
unicode = 82;
},
{
glyphname = S;
layers = (
{
layerId = "15187948-5E2B-4937-84A8-F930C78DD539";
name = "#instance";
shapes = (
{
closed = 1;
nodes = (
(243,307,ls),
(308,270,o),
(345,238,o),
(345,172,cs),
(345,107,o),
(305,66,o),
(233,66,cs),
(188,66,o),
(137,82,o),
(65,110,c),
(65,25,l),
(120,6,o),
(175,-8,o),
(230,-8,cs),
(347,-8,o),
(425,57,o),
(425,172,cs),
(425,277,o),
(364,331,o),
(293,371,cs),
(227,409,ls),
(164,445,o),
(125,473,o),
(125,534,cs),
(125,596,o),
(165,634,o),
(237,634,cs),
(282,634,o),
(331,619,o),
(401,592,c),
(401,677,l),
(347,695,o),
(294,708,o),
(240,708,cs),
(123,708,o),
(45,644,o),
(45,530,cs),
(45,432,o),
(108,385,o),
(177,345,cs)
);
}
);
width = 470;
},
{
layerId = "BA1821CB-3169-4BBE-BE99-20154A4CBF19";
associatedMasterId = "49638240-DECC-40F3-A1FC-C881920BB771";
name = "from logotype";
shapes = (
{
closed = 1;
nodes = (
(258,262,ls),
(290,246,o),
(320,224,o),
(320,190,cs),
(320,161,o),
(298,134,o),
(242,134,cs),
(192,134,o),
(136,154,o),
(50,188,c),
(50,33,l),
(115,8,o),
(180,-10,o),
(245,-10,cs),
(385,-10,o),
(470,71,o),
(470,198,cs),
(470,290,o),
(428,343,o),
(344,386,cs),
(242,438,ls),
(210,454,o),
(180,476,o),
(180,510,cs),
(180,539,o),
(202,566,o),
(258,566,cs),
(308,566,o),
(364,546,o),
(450,512,c),
(450,667,l),
(385,692,o),
(320,710,o),
(255,710,cs),
(115,710,o),
(30,629,o),
(30,502,cs),
(30,410,o),
(72,357,o),
(156,314,cs)
);
}
);
width = 500;
},
{
layerId = "E7EE76BC-1A32-4CEC-B17F-A49F59C40FEA";
associatedMasterId = "49638240-DECC-40F3-A1FC-C881920BB771";
name = "Oct 5, 22, 18:29";
shapes = (
{
closed = 1;
nodes = (
(258,255,ls),
(290,237,o),
(309,220,o),
(309,194,cs),
(309,164,o),
(285,146,o),
(243,146,cs),
(197,146,o),
(141,165,o),
(50,196,c),
(50,33,l),
(115,8,o),
(180,-10,o),
(245,-10,cs),
(385,-10,o),
(470,76,o),
(470,205,cs),
(470,295,o),
(426,344,o),
(344,389,cs),
(242,445,ls),
(210,463,o),
(191,480,o),
(191,506,cs),
(191,536,o),
(215,554,o),
(257,554,cs),
(303,554,o),
(359,535,o),
(450,504,c),
(450,667,l),
(385,692,o),
(320,710,o),
(255,710,cs),
(115,710,o),
(30,624,o),
(30,495,cs),
(30,405,o),
(74,356,o),
(156,311,cs)
);
}
);
width = 500;
},
{
layerId = "BFE1F5EF-148C-4878-8562-2D62DB151706";
associatedMasterId = "49638240-DECC-40F3-A1FC-C881920BB771";
name = "Oct 4, 22, 15:23";
shapes = (
{
closed = 1;
nodes = (
(248,255,ls),
(280,237,o),
(299,220,o),
(299,194,cs),
(299,164,o),
(275,146,o),
(233,146,cs),
(182,146,o),
(113,171,o),
(40,196,c),
(40,33,l),
(105,3,o),
(170,-10,o),
(235,-10,cs),
(375,-10,o),
(460,76,o),
(460,205,cs),
(460,295,o),
(416,344,o),
(334,389,cs),
(232,445,ls),
(200,463,o),
(181,480,o),
(181,506,cs),
(181,536,o),
(205,554,o),
(247,554,cs),
(298,554,o),
(367,529,o),
(440,504,c),
(440,667,l),
(375,697,o),
(310,710,o),
(245,710,cs),
(105,710,o),
(20,624,o),
(20,495,cs),
(20,405,o),
(64,356,o),
(146,311,cs)
);
}
);
width = 480;
},
{
layerId = "9367FADD-57BC-4CEB-B25C-823B199C8004";
associatedMasterId = "49638240-DECC-40F3-A1FC-C881920BB771";
name = "Oct 4, 22, 14:54";
shapes = (
{
closed = 1;
nodes = (
(256,232,ls),
(285,211,o),
(289,166,o),
(240,166,cs),
(40,166,l),
(40,0,l),
(230,0,ls),
(348,0,o),
(435,52,o),
(435,185,cs),
(435,265,o),
(400,318,o),
(335,365,cs),
(194,468,ls),
(165,489,o),
(161,534,o),
(210,534,cs),
(410,534,l),
(410,700,l),
(220,700,ls),
(102,700,o),
(15,648,o),
(15,515,cs),
(15,435,o),
(50,382,o),
(115,335,cs)
);
}
);
width = 500;
},
{
layerId = "0EA87CD6-E38A-476D-A956-7A286C332534";
associatedMasterId = "49638240-DECC-40F3-A1FC-C881920BB771";
name = "Oct 4, 22, 14:53";
shapes = (
{
closed = 1;
nodes = (
(420,166,l),
(40,166,l),
(40,0,l),
(280,0,ls),
(398,0,o),
(485,52,o),
(485,185,cs),
(485,265,o),
(451,319,o),
(385,365,cs),
(80,578,l),
(80,534,l),
(460,534,l),
(460,700,l),
(220,700,ls),
(102,700,o),
(15,648,o),
(15,515,cs),
(15,435,o),
(49,381,o),
(115,335,cs),
(420,122,l)
);
}
);
width = 500;
},
{
layerId = "3FD9D8FF-2AD8-4FF3-8D72-C69616675F5D";
associatedMasterId = "49638240-DECC-40F3-A1FC-C881920BB771";
name = "Oct 13, 22, 17:13";
shapes = (
{
closed = 1;
nodes = (
(248,255,ls),
(275,240,o),
(289,222,o),
(289,197,cs),
(289,166,o),
(269,146,o),
(230,146,cs),
(189,146,o),
(136,165,o),
(50,196,c),
(50,33,l),
(112,8,o),
(173,-10,o),
(235,-10,cs),
(369,-10,o),
(450,76,o),
(450,205,cs),
(450,295,o),
(411,347,o),
(334,389,cs),
(232,445,ls),
(205,460,o),
(191,478,o),
(191,503,cs),
(191,534,o),
(211,554,o),
(250,554,cs),
(291,554,o),
(344,535,o),
(430,504,c),
(430,667,l),
(368,692,o),
(307,710,o),
(245,710,cs),
(111,710,o),
(30,624,o),
(30,495,cs),
(30,405,o),
(69,353,o),
(146,311,cs)
);
}
);
width = 480;
},
{
layerId = "9809037F-85C1-418F-98F4-D5593EFD9559";
associatedMasterId = "49638240-DECC-40F3-A1FC-C881920BB771";
name = "Jan 13, 23, 17:53";
shapes = (
{
closed = 1;
nodes = (
(263,257,ls),
(295,241,o),
(315,227,o),
(315,197,cs),
(315,164,o),
(293,142,o),
(245,142,cs),
(194,142,o),
(141,162,o),
(55,196,c),
(55,31,l),
(120,6,o),
(185,-12,o),
(250,-12,cs),
(390,-12,o),
(475,70,o),
(475,198,cs),
(475,290,o),
(433,348,o),
(349,391,cs),
(247,443,ls),
(215,459,o),
(195,473,o),
(195,503,cs),
(195,536,o),
(217,558,o),
(265,558,cs),
(316,558,o),
(369,538,o),
(455,504,c),
(455,669,l),
(390,694,o),
(325,712,o),
(260,712,cs),
(120,712,o),
(35,630,o),
(35,502,cs),
(35,410,o),
(77,352,o),
(161,309,cs)
);
}
);
width = 510;
},
{
layerId = "49638240-DECC-40F3-A1FC-C881920BB771";
shapes = (
{
closed = 1;
nodes = (
(263,263,ls),
(296,246,o),
(315,230,o),
(315,197,cs),
(315,164,o),
(293,142,o),
(245,142,cs),
(194,142,o),
(141,162,o),
(55,196,c),
(55,31,l),
(120,6,o),
(185,-12,o),
(250,-12,cs),
(390,-12,o),
(475,70,o),
(475,198,cs),
(475,293,o),
(434,354,o),
(349,397,cs),
(247,449,ls),
(215,465,o),
(195,479,o),
(195,509,cs),
(195,540,o),
(217,561,o),
(265,561,cs),
(315,561,o),
(367,542,o),
(451,505,c),
(451,667,l),
(387,695,o),
(324,712,o),
(260,712,cs),
(120,712,o),
(35,630,o),
(35,502,cs),
(35,413,o),
(78,357,o),
(161,315,cs)
);
}
);
width = 510;
},
{
layerId = "819A623D-BDB9-47B8-B4F3-3C14FB91BDC8";
associatedMasterId = "BC44314D-ED22-409A-ACDF-E854CADB3608";
name = "Jan 13, 23, 17:53";
shapes = (
{
closed = 1;
nodes = (
(243,299,ls),
(307,262,o),
(345,233,o),
(345,170,cs),
(345,106,o),
(305,66,o),
(233,66,cs),
(188,66,o),
(137,82,o),
(65,110,c),
(65,25,l),
(120,6,o),
(175,-8,o),
(230,-8,cs),
(347,-8,o),
(425,56,o),
(425,170,cs),
(425,272,o),
(363,323,o),
(293,363,cs),
(227,401,ls),
(164,437,o),
(125,467,o),
(125,530,cs),
(125,594,o),
(165,634,o),
(237,634,cs),
(283,634,o),
(333,618,o),
(405,590,c),
(405,675,l),
(350,694,o),
(295,708,o),
(240,708,cs),
(123,708,o),
(45,644,o),
(45,530,cs),
(45,428,o),
(107,377,o),
(177,337,cs)
);
}
);
width = 470;
},
{
layerId = "BC44314D-ED22-409A-ACDF-E854CADB3608";
shapes = (
{
closed = 1;
nodes = (
(243,307,ls),
(308,270,o),
(345,238,o),
(345,172,cs),
(345,107,o),
(305,66,o),
(233,66,cs),
(188,66,o),
(137,82,o),
(65,110,c),
(65,25,l),
(120,6,o),
(175,-8,o),
(230,-8,cs),
(347,-8,o),
(425,57,o),
(425,172,cs),
(425,277,o),
(364,331,o),
(293,371,cs),
(227,409,ls),
(164,445,o),
(125,473,o),
(125,534,cs),
(125,596,o),
(165,634,o),
(237,634,cs),
(282,634,o),
(331,619,o),
(401,592,c),
(401,677,l),
(347,695,o),
(294,708,o),
(240,708,cs),
(123,708,o),
(45,644,o),
(45,530,cs),
(45,432,o),
(108,385,o),
(177,345,cs)
);
}
);
width = 470;
},
{
layerId = "D7099DF3-6127-46B3-A8CF-22E12F13B3B7";
shapes = (
{
closed = 1;
nodes = (
(235,327,ls),
(312,280,o),
(357,241,o),
(357,162,cs),
(357,84,o),
(310,36,o),
(228,36,cs),
(186,36,o),
(135,50,o),
(69,76,c),
(69,23,l),
(120,6,o),
(171,-6,o),
(222,-6,cs),
(330,-6,o),
(405,52,o),
(405,162,cs),
(405,271,o),
(336,319,o),
(271,359,cs),
(219,391,ls),
(145,437,o),
(97,471,o),
(97,544,cs),
(97,618,o),
(144,663,o),
(226,663,cs),
(269,663,o),
(317,650,o),
(381,627,c),
(381,681,l),
(331,695,o),
(282,706,o),
(232,706,cs),
(124,706,o),
(49,650,o),
(49,541,cs),
(49,440,o),
(120,398,o),
(183,359,cs)
);
}
);
width = 454;
}
);
leftKerningGroup = S;
rightKerningGroup = S;
unicode = 83;
},
{
glyphname = Scaron;
layers = (
{
layerId = "49638240-DECC-40F3-A1FC-C881920BB771";
shapes = (
{
closed = 1;
nodes = (
(263,263,ls),
(296,246,o),
(315,230,o),
(315,197,cs),
(315,164,o),
(293,142,o),
(245,142,cs),
(194,142,o),
(141,162,o),
(55,196,c),
(55,31,l),
(120,6,o),
(185,-12,o),
(250,-12,cs),
(390,-12,o),
(475,70,o),
(475,198,cs),
(475,293,o),
(434,354,o),
(349,397,cs),
(247,449,ls),
(215,465,o),
(195,479,o),
(195,509,cs),
(195,540,o),
(217,561,o),
(265,561,cs),
(315,561,o),
(367,542,o),
(451,505,c),
(451,667,l),
(387,695,o),
(324,712,o),
(260,712,cs),
(120,712,o),
(35,630,o),
(35,502,cs),
(35,413,o),
(78,357,o),
(161,315,cs)
);
},
{
closed = 1;
nodes = (
(312,735,l),
(200,905,l),
(69,905,l),
(170,735,l)
);
},
{
closed = 1;
nodes = (
(441,905,l),
(310,905,l),
(198,735,l),
(340,735,l)
);
}
);
width = 510;
},
{
layerId = "BC44314D-ED22-409A-ACDF-E854CADB3608";
shapes = (
{
closed = 1;
nodes = (
(243,307,ls),
(308,270,o),
(345,238,o),
(345,172,cs),
(345,107,o),
(305,66,o),
(233,66,cs),
(188,66,o),
(137,82,o),
(65,110,c),
(65,25,l),
(120,6,o),
(175,-8,o),
(230,-8,cs),
(347,-8,o),
(425,57,o),
(425,172,cs),
(425,277,o),
(364,331,o),
(293,371,cs),
(227,409,ls),
(164,445,o),
(125,473,o),
(125,534,cs),
(125,596,o),
(165,634,o),
(237,634,cs),
(282,634,o),
(331,619,o),
(401,592,c),
(401,677,l),
(347,695,o),
(294,708,o),
(240,708,cs),
(123,708,o),
(45,644,o),
(45,530,cs),
(45,432,o),
(108,385,o),
(177,345,cs)
);
},
{
closed = 1;
nodes = (
(262,775,l),
(160,925,l),
(89,925,l),
(190,775,l)
);
},
{
closed = 1;
nodes = (
(381,925,l),
(310,925,l),
(208,775,l),
(280,775,l)
);
}
);
width = 470;
},
{
layerId = "D7099DF3-6127-46B3-A8CF-22E12F13B3B7";
shapes = (
{
closed = 1;
nodes = (
(235,327,ls),
(312,280,o),
(357,241,o),
(357,162,cs),
(357,84,o),
(310,36,o),
(228,36,cs),
(186,36,o),
(135,50,o),
(69,76,c),
(69,23,l),
(120,6,o),
(171,-6,o),
(222,-6,cs),
(330,-6,o),
(405,52,o),
(405,162,cs),
(405,271,o),
(336,319,o),
(271,359,cs),
(219,391,ls),
(145,437,o),
(97,471,o),
(97,544,cs),
(97,618,o),
(144,663,o),
(226,663,cs),
(269,663,o),
(317,650,o),
(381,627,c),
(381,681,l),
(331,695,o),
(282,706,o),
(232,706,cs),
(124,706,o),
(49,650,o),
(49,541,cs),
(49,440,o),
(120,398,o),
(183,359,cs)
);
},
{
closed = 1;
nodes = (
(242,791,l),
(144,933,l),
(97,933,l),
(198,791,l)
);
},
{
closed = 1;
nodes = (
(357,933,l),
(310,933,l),
(212,791,l),
(256,791,l)
);
}
);
width = 454;
}
);
unicode = 352;
},
{
glyphname = Germandbls;
layers = (
{
layerId = "49638240-DECC-40F3-A1FC-C881920BB771";
shapes = (
{
closed = 1;
nodes = (
(571,-12,o),
(670,71,o),
(670,204,cs),
(670,345,o),
(556,415,o),
(430,415,c),
(443,382,l),
(641,680,l),
(641,700,l),
(45,700,l),
(45,552,l),
(541,552,l),
(481,684,l),
(286,407,l),
(286,297,l),
(370,297,ls),
(447,297,o),
(510,279,o),
(510,216,cs),
(510,169,o),
(474,142,o),
(417,142,cs),
(380,142,o),
(336,154,o),
(270,174,c),
(270,9,l),
(322,-3,o),
(373,-12,o),
(428,-12,cs)
);
},
{
closed = 1;
nodes = (
(205,0,l),
(205,657,l),
(45,657,l),
(45,0,l)
);
}
);
width = 705;
},
{
layerId = "BC44314D-ED22-409A-ACDF-E854CADB3608";
shapes = (
{
closed = 1;
nodes = (
(515,-12,o),
(605,69,o),
(605,200,cs),
(605,351,o),
(490,419,o),
(349,412,c),
(349,393,l),
(585,688,l),
(585,700,l),
(65,700,l),
(65,626,l),
(515,626,l),
(496,694,l),
(270,409,l),
(270,348,l),
(344,348,l),
(438,348,o),
(524,305,o),
(524,202,cs),
(524,120,o),
(468,62,o),
(374,62,cs),
(328,62,o),
(278,76,o),
(210,108,c),
(210,23,l),
(265,3,o),
(320,-12,o),
(378,-12,cs)
);
},
{
closed = 1;
nodes = (
(145,0,l),
(145,657,l),
(65,657,l),
(65,0,l)
);
}
);
width = 655;
},
{
layerId = "D7099DF3-6127-46B3-A8CF-22E12F13B3B7";
shapes = (
{
closed = 1;
nodes = (
(493,-12,o),
(579,68,o),
(579,198,cs),
(579,353,o),
(464,421,o),
(317,411,c),
(311,397,l),
(563,691,l),
(563,700,l),
(73,700,l),
(73,656,l),
(505,656,l),
(502,698,l),
(264,410,l),
(264,368,l),
(334,368,ls),
(434,368,o),
(530,315,o),
(530,196,cs),
(530,100,o),
(466,30,o),
(357,30,cs),
(307,30,o),
(255,45,o),
(186,82,c),
(186,29,l),
(242,5,o),
(299,-12,o),
(358,-12,cs)
);
},
{
closed = 1;
nodes = (
(121,0,l),
(121,657,l),
(73,657,l),
(73,0,l)
);
}
);
width = 635;
}
);
unicode = 7838;
},
{
glyphname = T;
layers = (
{
layerId = "51EF16EA-EF15-445C-9854-013FAC3F9567";
associatedMasterId = "49638240-DECC-40F3-A1FC-C881920BB771";
name = "Oct 20, 22, 14:13";
shapes = (
{
closed = 1;
nodes = (
(15,544,l),
(485,544,l),
(485,700,l),
(15,700,l)
);
},
{
closed = 1;
nodes = (
(170,0,l),
(330,0,l),
(330,657,l),
(170,657,l)
);
}
);
width = 500;
},
{
layerId = "4481917C-075F-4E94-9231-0BFB406629EF";
associatedMasterId = "49638240-DECC-40F3-A1FC-C881920BB771";
name = "Oct 17, 22, 16:00";
shapes = (
{
closed = 1;
nodes = (
(10,544,l),
(460,544,l),
(460,700,l),
(10,700,l)
);
},
{
closed = 1;
nodes = (
(155,0,l),
(315,0,l),
(315,657,l),
(155,657,l)
);
}
);
width = 470;
},
{
layerId = "AD20BC94-A459-43C6-9E90-A05C561C9E02";
associatedMasterId = "49638240-DECC-40F3-A1FC-C881920BB771";
name = "Jan 13, 23, 17:50";
shapes = (
{
closed = 1;
nodes = (
(15,544,l),
(495,544,l),
(495,700,l),
(15,700,l)
);
},
{
closed = 1;
nodes = (
(175,0,l),
(335,0,l),
(335,657,l),
(175,657,l)
);
}
);
width = 510;
},
{
layerId = "49638240-DECC-40F3-A1FC-C881920BB771";
shapes = (
{
closed = 1;
nodes = (
(15,548,l),
(495,548,l),
(495,700,l),
(15,700,l)
);
},
{
closed = 1;
nodes = (
(175,0,l),
(335,0,l),
(335,657,l),
(175,657,l)
);
}
);
width = 510;
},
{
layerId = "BC44314D-ED22-409A-ACDF-E854CADB3608";
shapes = (
{
closed = 1;
nodes = (
(35,624,l),
(515,624,l),
(515,700,l),
(35,700,l)
);
},
{
closed = 1;
nodes = (
(235,0,l),
(315,0,l),
(315,657,l),
(235,657,l)
);
}
);
width = 550;
},
{
layerId = "D7099DF3-6127-46B3-A8CF-22E12F13B3B7";
shapes = (
{
closed = 1;
nodes = (
(43,654,l),
(523,654,l),
(523,700,l),
(43,700,l)
);
},
{
closed = 1;
nodes = (
(259,0,l),
(307,0,l),
(307,657,l),
(259,657,l)
);
}
);
width = 566;
}
);
leftKerningGroup = T;
unicode = 84;
},
{
glyphname = U;
layers = (
{
layerId = "51EF16EA-EF15-445C-9854-013FAC3F9567";
associatedMasterId = "49638240-DECC-40F3-A1FC-C881920BB771";
name = "Oct 20, 22, 14:13";
shapes = (
{
closed = 1;
nodes = (
(389,700,l),
(389,258,ls),
(389,187,o),
(355,148,o),
(295,148,cs),
(235,148,o),
(201,187,o),
(201,258,cs),
(201,700,l),
(35,700,l),
(35,258,ls),
(35,92,o),
(123,-12,o),
(295,-12,cs),
(467,-12,o),
(555,92,o),
(555,258,cs),
(555,700,l)
);
}
);
width = 590;
},
{
layerId = "4481917C-075F-4E94-9231-0BFB406629EF";
associatedMasterId = "49638240-DECC-40F3-A1FC-C881920BB771";
name = "Oct 17, 22, 16:00";
shapes = (
{
closed = 1;
nodes = (
(374,700,l),
(374,240,ls),
(374,175,o),
(344,140,o),
(290,140,cs),
(236,140,o),
(206,175,o),
(206,240,cs),
(206,700,l),
(40,700,l),
(40,240,ls),
(40,80,o),
(125,-20,o),
(290,-20,cs),
(455,-20,o),
(540,80,o),
(540,240,cs),
(540,700,l)
);
}
);
width = 580;
},
{
layerId = "03A8367C-3FE1-4C78-8CDC-D2DB7D3501B1";
associatedMasterId = "49638240-DECC-40F3-A1FC-C881920BB771";
name = "Oct 11, 22, 16:22";
shapes = (
{
closed = 1;
nodes = (
(414,700,l),
(414,260,ls),
(414,182,o),
(376,140,o),
(310,140,cs),
(244,140,o),
(206,182,o),
(206,260,cs),
(206,700,l),
(40,700,l),
(40,260,ls),
(40,88,o),
(132,-20,o),
(310,-20,cs),
(488,-20,o),
(580,88,o),
(580,260,cs),
(580,700,l)
);
}
);
width = 620;
},
{
layerId = "13E9FE01-0010-4509-94ED-6FDD56A00E8F";
associatedMasterId = "49638240-DECC-40F3-A1FC-C881920BB771";
name = "Nov 17, 22, 12:19";
shapes = (
{
closed = 1;
nodes = (
(389,700,l),
(389,251,ls),
(389,192,o),
(355,148,o),
(295,148,cs),
(235,148,o),
(201,192,o),
(201,251,cs),
(201,700,l),
(35,700,l),
(35,258,ls),
(35,97,o),
(129,-12,o),
(295,-12,cs),
(461,-12,o),
(555,97,o),
(555,258,cs),
(555,700,l)
);
}
);
width = 590;
},
{
anchors = (
{
name = bottom;
position = "{295, 0}";
},
{
name = ogonek;
position = "{380, 0}";
},
{
name = top;
position = "{295, 700}";
},
{
name = topright;
position = "{570, 700}";
}
);
layerId = "49638240-DECC-40F3-A1FC-C881920BB771";
shapes = (
{
closed = 1;
nodes = (
(395,700,l),
(395,251,ls),
(395,189,o),
(359,142,o),
(295,142,cs),
(231,142,o),
(195,189,o),
(195,251,cs),
(195,700,l),
(35,700,l),
(35,258,ls),
(35,97,o),
(129,-12,o),
(295,-12,cs),
(461,-12,o),
(555,97,o),
(555,258,cs),
(555,700,l)
);
}
);
width = 590;
},
{
layerId = "CF9AE10D-BC70-4728-8224-13CD2F362FB0";
associatedMasterId = "BC44314D-ED22-409A-ACDF-E854CADB3608";
name = "Nov 17, 22, 18:23";
shapes = (
{
closed = 1;
nodes = (
(460,700,l),
(460,231,ls),
(460,134,o),
(402,62,o),
(300,62,cs),
(198,62,o),
(140,134,o),
(140,231,cs),
(140,700,l),
(60,700,l),
(60,238,ls),
(60,89,o),
(147,-12,o),
(300,-12,cs),
(453,-12,o),
(540,89,o),
(540,238,cs),
(540,700,l)
);
}
);
width = 600;
},
{
anchors = (
{
name = bottom;
position = "{300, 0}";
},
{
name = ogonek;
position = "{380, 0}";
},
{
name = top;
position = "{300, 700}";
},
{
name = topright;
position = "{580, 700}";
}
);
layerId = "BC44314D-ED22-409A-ACDF-E854CADB3608";
shapes = (
{
closed = 1;
nodes = (
(460,700,l),
(460,237,ls),
(460,140,o),
(412,62,o),
(300,62,cs),
(188,62,o),
(140,140,o),
(140,237,cs),
(140,700,l),
(60,700,l),
(60,244,ls),
(60,95,o),
(137,-12,o),
(300,-12,cs),
(463,-12,o),
(540,95,o),
(540,244,cs),
(540,700,l)
);
}
);
width = 600;
},
{
anchors = (
{
name = bottom;
position = "{302, 0}";
},
{
name = ogonek;
position = "{380, 0}";
},
{
name = top;
position = "{302, 700}";
},
{
name = topright;
position = "{584, 700}";
}
);
layerId = "D7099DF3-6127-46B3-A8CF-22E12F13B3B7";
shapes = (
{
closed = 1;
nodes = (
(486,700,l),
(486,231,ls),
(486,120,o),
(433,30,o),
(302,30,cs),
(171,30,o),
(118,120,o),
(118,231,cs),
(118,700,l),
(70,700,l),
(70,238,ls),
(70,94,o),
(140,-12,o),
(302,-12,cs),
(464,-12,o),
(534,94,o),
(534,238,cs),
(534,700,l)
);
}
);
width = 604;
}
);
leftKerningGroup = U;
rightKerningGroup = U;
unicode = 85;
},
{
glyphname = V;
layers = (
{
layerId = "3C41330F-F89B-409A-8670-8BEF872658FE";
associatedMasterId = "49638240-DECC-40F3-A1FC-C881920BB771";
name = "Oct 20, 22, 14:14";
shapes = (
{
closed = 1;
nodes = (
(193,0,l),
(354,0,l),
(191,700,l),
(25,700,l)
);
},
{
closed = 1;
nodes = (
(305,0,l),
(461,0,l),
(629,700,l),
(464,700,l)
);
}
);
width = 654;
},
{
layerId = "4A04DF9A-5CAF-436F-8ED7-FB0C9AD31821";
associatedMasterId = "49638240-DECC-40F3-A1FC-C881920BB771";
name = "Oct 17, 22, 16:01";
shapes = (
{
closed = 1;
nodes = (
(178,0,l),
(337,0,l),
(184,700,l),
(20,700,l)
);
},
{
closed = 1;
nodes = (
(307,0,l),
(466,0,l),
(624,700,l),
(460,700,l)
);
}
);
width = 644;
},
{
anchors = (
{
name = bottom;
position = "{327, 0}";
},
{
name = top;
position = "{327, 700}";
}
);
hints = (
{
name = _corner.sharp;
options = 2;
origin = (0,3);
type = Corner;
}
);
layerId = "5231417C-7E02-46A6-B1E5-DD1677745E7A";
associatedMasterId = "49638240-DECC-40F3-A1FC-C881920BB771";
name = "Jan 13, 23, 17:52";
shapes = (
{
closed = 1;
nodes = (
(461,0,l),
(629,700,l),
(464,700,l),
(305,0,l,{name = cr01;}),
(354,0,l),
(191,700,l),
(25,700,l),
(193,0,l)
);
}
);
width = 654;
},
{
anchors = (
{
name = bottom;
position = "{327, 0}";
},
{
name = top;
position = "{327, 700}";
}
);
hints = (
{
name = _corner.sharp;
options = 2;
origin = (0,3);
type = Corner;
}
);
layerId = "49638240-DECC-40F3-A1FC-C881920BB771";
shapes = (
{
closed = 1;
nodes = (
(461,0,l),
(629,700,l),
(466,700,l),
(307,0,l,{name = cr01;}),
(354,0,l),
(190,700,l),
(25,700,l),
(193,0,l)
);
}
);
width = 654;
},
{
anchors = (
{
name = bottom;
position = "{305, 0}";
},
{
name = top;
position = "{305, 700}";
}
);
hints = (
{
name = _corner.sharp;
options = 2;
origin = (0,3);
type = Corner;
}
);
layerId = "57820A7A-96E5-4825-A5AE-7AB481904D75";
associatedMasterId = "BC44314D-ED22-409A-ACDF-E854CADB3608";
name = "Jan 13, 23, 18:05";
shapes = (
{
closed = 1;
nodes = (
(376,0,l),
(574,700,l),
(492,700,l),
(300,0,l,{name = cr01;}),
(317,0,l),
(118,700,l),
(35,700,l),
(236,0,l)
);
}
);
width = 609;
},
{
anchors = (
{
name = bottom;
position = "{305, 0}";
},
{
name = top;
position = "{305, 700}";
}
);
hints = (
{
name = _corner.sharp;
options = 2;
origin = (0,3);
type = Corner;
}
);
layerId = "4B193F11-1BA6-4CB5-9A5A-147E8A78828A";
associatedMasterId = "BC44314D-ED22-409A-ACDF-E854CADB3608";
name = "Jan 13, 23, 17:52";
shapes = (
{
closed = 1;
nodes = (
(376,0,l),
(574,700,l),
(491,700,l),
(300,0,l,{name = cr01;}),
(314,0,l),
(118,700,l),
(35,700,l),
(236,0,l)
);
}
);
width = 609;
},
{
anchors = (
{
name = bottom;
position = "{305, 0}";
},
{
name = top;
position = "{305, 700}";
}
);
hints = (
{
name = _corner.sharp;
options = 2;
origin = (0,3);
type = Corner;
}
);
layerId = "BC44314D-ED22-409A-ACDF-E854CADB3608";
shapes = (
{
closed = 1;
nodes = (
(372,0,l),
(574,700,l),
(492,700,l),
(296,0,l,{name = cr01;}),
(321,0,l),
(118,700,l),
(35,700,l),
(240,0,l)
);
}
);
width = 609;
},
{
anchors = (
{
name = bottom;
position = "{296, 0}";
},
{
name = top;
position = "{296, 700}";
}
);
layerId = "D7099DF3-6127-46B3-A8CF-22E12F13B3B7";
shapes = (
{
closed = 1;
nodes = (
(336,0,l),
(552,700,l),
(502,700,l),
(321,94,l),
(291,-1,l),
(292,-2,l),
(390,0,l),
(308,0,l),
(89,700,l),
(39,700,l),
(259,0,l)
);
}
);
width = 591;
}
);
leftKerningGroup = V;
rightKerningGroup = V;
unicode = 86;
},
{
glyphname = W;
layers = (
{
layerId = "3C41330F-F89B-409A-8670-8BEF872658FE";
associatedMasterId = "49638240-DECC-40F3-A1FC-C881920BB771";
name = "Oct 20, 22, 14:14";
shapes = (
{
closed = 1;
nodes = (
(174,0,l),
(332,0,l),
(188,700,l),
(25,700,l)
);
},
{
closed = 1;
nodes = (
(282,0,l),
(437,0,l),
(574,700,l),
(416,700,l)
);
},
{
closed = 1;
nodes = (
(664,0,l),
(822,0,l),
(688,700,l),
(527,700,l)
);
},
{
closed = 1;
nodes = (
(772,0,l),
(930,0,l),
(1079,700,l),
(915,700,l)
);
}
);
width = 1104;
},
{
layerId = "50DB41B7-A063-4CAE-B1FC-B0CA28AF3E76";
associatedMasterId = "49638240-DECC-40F3-A1FC-C881920BB771";
name = "Oct 17, 22, 16:02";
shapes = (
{
closed = 1;
nodes = (
(159,0,l),
(317,0,l),
(183,700,l),
(20,700,l)
);
},
{
closed = 1;
nodes = (
(287,0,l),
(442,0,l),
(559,700,l),
(401,700,l)
);
},
{
closed = 1;
nodes = (
(649,0,l),
(804,0,l),
(690,700,l),
(532,700,l)
);
},
{
closed = 1;
nodes = (
(774,0,l),
(932,0,l),
(1071,700,l),
(908,700,l)
);
}
);
width = 1091;
},
{
layerId = "9809037F-85C1-418F-98F4-D5593EFD9559";
associatedMasterId = "49638240-DECC-40F3-A1FC-C881920BB771";
name = "Jan 13, 23, 17:53";
shapes = (
{
closed = 1;
nodes = (
(437,0,l),
(553,602,l,{name = cr03;}),
(575,702,l),
(574,703,l),
(473,700,l),
(525,700,l),
(664,0,l),
(930,0,l),
(1079,700,l),
(915,700,l),
(792,97,l,{name = cr02;}),
(769,-2,l),
(770,-3,l),
(872,0,l),
(822,0,l),
(686,700,l),
(418,700,l),
(301,98,l,{name = cr01;}),
(279,-2,l),
(280,-3,l),
(382,0,l),
(332,0,l),
(188,700,l),
(25,700,l),
(174,0,l)
);
}
);
width = 1104;
},
{
layerId = "6E281F93-112C-4942-8B6F-B907DF249507";
associatedMasterId = "49638240-DECC-40F3-A1FC-C881920BB771";
name = "Jan 13, 23, 17:48";
shapes = (
{
closed = 1;
nodes = (
(437,0,l),
(574,700,l),
(527,700,l),
(664,0,l),
(930,0,l),
(1079,700,l),
(915,700,l),
(772,0,l),
(822,0,l),
(688,700,l),
(416,700,l),
(282,0,l),
(332,0,l),
(188,700,l),
(25,700,l),
(174,0,l)
);
}
);
width = 1104;
},
{
layerId = "49638240-DECC-40F3-A1FC-C881920BB771";
shapes = (
{
closed = 1;
nodes = (
(437,0,l),
(558,602,l,{name = cr03;}),
(586,705,l),
(585,706,l),
(478,700,l),
(509,700,l),
(654,0,l),
(916,0,l),
(1065,700,l),
(905,700,l),
(782,97,l,{name = cr02;}),
(754,-5,l),
(755,-6,l),
(862,0,l),
(812,0,l),
(670,700,l),
(424,700,l),
(302,98,l,{name = cr01;}),
(274,-5,l),
(275,-6,l),
(382,0,l),
(332,0,l),
(188,700,l),
(25,700,l),
(174,0,l)
);
}
);
width = 1090;
},
{
layerId = "819A623D-BDB9-47B8-B4F3-3C14FB91BDC8";
associatedMasterId = "BC44314D-ED22-409A-ACDF-E854CADB3608";
name = "Jan 13, 23, 17:53";
shapes = (
{
closed = 1;
nodes = (
(347,0,l),
(485,603,l,{name = cr03;}),
(510,702,l),
(509,703,l),
(407,700,l),
(490,700,l),
(652,0,l),
(800,0,l),
(969,700,l),
(887,700,l),
(745,97,l,{name = cr02;}),
(719,-2,l),
(720,-3,l),
(822,0,l),
(732,0,l),
(570,700,l),
(434,700,l),
(294,97,l,{name = cr01;}),
(269,-2,l),
(270,-3,l),
(372,0,l),
(282,0,l),
(117,700,l),
(35,700,l),
(204,0,l)
);
}
);
width = 1004;
},
{
layerId = "C561E36C-7C81-484C-9DE0-9585FEB7D7ED";
associatedMasterId = "BC44314D-ED22-409A-ACDF-E854CADB3608";
name = "Jan 13, 23, 17:48";
shapes = (
{
closed = 1;
nodes = (
(347,0,l),
(509,700,l),
(492,700,l),
(652,0,l),
(800,0,l),
(969,700,l),
(887,700,l),
(722,0,l),
(732,0,l),
(572,700,l),
(433,700,l),
(272,0,l),
(282,0,l),
(117,700,l),
(35,700,l),
(204,0,l)
);
}
);
width = 1004;
},
{
layerId = "BC44314D-ED22-409A-ACDF-E854CADB3608";
shapes = (
{
closed = 1;
nodes = (
(343,0,l),
(492,603,l,{name = cr03;}),
(519,702,l),
(518,703,l),
(416,700,l),
(471,700,l),
(646,0,l),
(786,0,l),
(959,700,l),
(878,700,l),
(732,97,l,{name = cr02;}),
(706,-2,l),
(707,-3,l),
(809,0,l),
(727,0,l),
(551,700,l),
(443,700,l),
(292,97,l,{name = cr01;}),
(265,-2,l),
(266,-3,l),
(368,0,l),
(286,0,l),
(117,700,l),
(35,700,l),
(208,0,l)
);
}
);
width = 994;
},
{
layerId = "D7099DF3-6127-46B3-A8CF-22E12F13B3B7";
shapes = (
{
closed = 1;
nodes = (
(305,0,l),
(466,603,l),
(492,701,l),
(491,702,l),
(391,700,l),
(456,700,l),
(643,0,l),
(734,0,l),
(917,700,l),
(867,700,l),
(712,97,l),
(687,-1,l),
(688,-2,l),
(788,0,l),
(693,0,l),
(503,700,l),
(451,700,l),
(288,97,l),
(261,-1,l),
(262,-2,l),
(362,0,l),
(268,0,l),
(89,700,l),
(39,700,l),
(222,0,l)
);
}
);
width = 956;
}
);
leftKerningGroup = V;
rightKerningGroup = V;
unicode = 87;
},
{
glyphname = X;
layers = (
{
layerId = "2E317F2D-686E-488D-B2D7-BDCCB2C1369D";
associatedMasterId = "49638240-DECC-40F3-A1FC-C881920BB771";
name = "Oct 20, 22, 14:15";
shapes = (
{
closed = 1;
nodes = (
(197,355,l),
(366,355,l),
(199,700,l),
(20,700,l)
);
},
{
closed = 1;
nodes = (
(292,355,l),
(457,355,l),
(634,700,l),
(460,700,l)
);
},
{
closed = 1;
nodes = (
(189,0,l),
(362,355,l),
(197,355,l),
(15,0,l)
);
},
{
closed = 1;
nodes = (
(639,0,l),
(457,355,l),
(288,355,l),
(460,0,l)
);
}
);
width = 654;
},
{
layerId = "5971D150-4CD9-41A5-ADCE-3A3DF4D93B61";
associatedMasterId = "49638240-DECC-40F3-A1FC-C881920BB771";
name = "Oct 17, 22, 16:03";
shapes = (
{
closed = 1;
nodes = (
(182,355,l),
(347,355,l),
(200,700,l),
(25,700,l)
);
},
{
closed = 1;
nodes = (
(297,355,l),
(462,355,l),
(619,700,l),
(445,700,l)
);
},
{
closed = 1;
nodes = (
(194,0,l),
(347,355,l),
(182,355,l),
(20,0,l)
);
},
{
closed = 1;
nodes = (
(624,0,l),
(462,355,l),
(297,355,l),
(449,0,l)
);
}
);
width = 644;
},
{
layerId = "49638240-DECC-40F3-A1FC-C881920BB771";
shapes = (
{
closed = 1;
nodes = (
(293,355,l),
(440,53,l,{name = cr01;}),
(462,-4,l),
(463,-4,l),
(523,0,l),
(644,0,l),
(462,355,l),
(639,700,l),
(465,700,l),
(297,355,l),
(371,355,l),
(204,700,l),
(25,700,l),
(202,355,l),
(20,0,l),
(194,0,l),
(367,355,l)
);
}
);
width = 664;
},
{
layerId = "BC44314D-ED22-409A-ACDF-E854CADB3608";
shapes = (
{
closed = 1;
nodes = (
(264,355,l),
(435,51,l,{name = cr01;}),
(461,-1,l),
(463,-2,l),
(521,0,l),
(556,0,l),
(347,355,l),
(551,700,l),
(458,700,l),
(268,355,l),
(322,355,l),
(128,700,l),
(35,700,l),
(239,355,l),
(30,0,l),
(123,0,l),
(318,355,l)
);
}
);
width = 586;
},
{
layerId = "D7099DF3-6127-46B3-A8CF-22E12F13B3B7";
shapes = (
{
closed = 1;
nodes = (
(252,355,l),
(433,50,l),
(461,0,l),
(463,-1,l),
(520,0,l),
(521,0,l),
(301,355,l),
(516,700,l),
(455,700,l),
(256,355,l),
(302,355,l),
(98,700,l),
(39,700,l),
(254,355,l),
(34,0,l),
(95,0,l),
(298,355,l)
);
}
);
width = 555;
}
);
leftKerningGroup = X;
rightKerningGroup = X;
unicode = 88;
},
{
glyphname = Y;
layers = (
{
layerId = "15187948-5E2B-4937-84A8-F930C78DD539";
name = "#instance";
shapes = (
{
closed = 1;
nodes = (
(330,269,l),
(564,700,l),
(474,700,l),
(281,320,l),
(304,320,l),
(110,700,l),
(20,700,l),
(251,269,l)
);
},
{
closed = 1;
nodes = (
(252,0,l),
(332,0,l),
(332,330,l),
(252,330,l)
);
}
);
width = 584;
},
{
layerId = "149597D3-9BC8-4016-8815-77C44ADCFB46";
associatedMasterId = "49638240-DECC-40F3-A1FC-C881920BB771";
name = "Oct 19, 22, 14:18";
shapes = (
{
closed = 1;
nodes = (
(167,300,l),
(322,300,l),
(185,700,l),
(15,700,l)
);
},
{
closed = 1;
nodes = (
(272,300,l),
(427,300,l),
(579,700,l),
(409,700,l)
);
},
{
closed = 1;
nodes = (
(217,0,l),
(377,0,l),
(377,300,l),
(217,300,l)
);
}
);
width = 594;
},
{
layerId = "615F3DE6-FD87-4232-9523-D9127AA6C9F7";
associatedMasterId = "49638240-DECC-40F3-A1FC-C881920BB771";
name = "Jan 13, 23, 17:58";
shapes = (
{
closed = 1;
nodes = (
(172,270,l),
(327,270,l),
(180,700,l),
(10,700,l)
);
},
{
closed = 1;
nodes = (
(277,270,l),
(432,270,l),
(594,700,l),
(424,700,l)
);
},
{
closed = 1;
nodes = (
(222,0,l),
(382,0,l),
(382,270,l),
(222,270,l)
);
}
);
width = 604;
},
{
layerId = "49638240-DECC-40F3-A1FC-C881920BB771";
shapes = (
{
closed = 1;
nodes = (
(392,200,l),
(614,700,l),
(444,700,l),
(278,278,l),
(344,280,l),
(182,700,l),
(10,700,l),
(230,200,l)
);
},
{
closed = 1;
nodes = (
(232,0,l),
(392,0,l),
(392,290,l),
(232,290,l)
);
}
);
width = 624;
},
{
layerId = "5C34BC59-9818-4CFC-8152-CB22576E6D67";
associatedMasterId = "BC44314D-ED22-409A-ACDF-E854CADB3608";
name = "Jan 13, 23, 17:58";
shapes = (
{
closed = 1;
nodes = (
(212,320,l),
(291,320,l),
(109,700,l),
(20,700,l)
);
},
{
closed = 1;
nodes = (
(274,320,l),
(352,320,l),
(544,700,l),
(455,700,l)
);
},
{
closed = 1;
nodes = (
(242,0,l),
(322,0,l),
(322,320,l),
(242,320,l)
);
}
);
width = 564;
},
{
layerId = "BC44314D-ED22-409A-ACDF-E854CADB3608";
shapes = (
{
closed = 1;
nodes = (
(330,269,l),
(564,700,l),
(474,700,l),
(281,320,l),
(304,320,l),
(110,700,l),
(20,700,l),
(251,269,l)
);
},
{
closed = 1;
nodes = (
(252,0,l),
(332,0,l),
(332,330,l),
(252,330,l)
);
}
);
width = 584;
},
{
layerId = "D7099DF3-6127-46B3-A8CF-22E12F13B3B7";
shapes = (
{
closed = 1;
nodes = (
(305,297,l),
(544,700,l),
(486,700,l),
(282,337,l),
(288,336,l),
(81,700,l),
(24,700,l),
(260,297,l)
);
},
{
closed = 1;
nodes = (
(260,0,l),
(308,0,l),
(308,346,l),
(260,346,l)
);
}
);
width = 568;
}
);
leftKerningGroup = Y;
rightKerningGroup = Y;
unicode = 89;
},
{
glyphname = Z;
layers = (
{
layerId = "966DEB7A-C70F-4F9B-B719-0D80141096EA";
associatedMasterId = "49638240-DECC-40F3-A1FC-C881920BB771";
name = "Oct 17, 22, 16:05";
shapes = (
{
closed = 1;
nodes = (
(30,544,l),
(490,544,l),
(490,700,l),
(30,700,l)
);
},
{
closed = 1;
nodes = (
(30,0,l),
(490,0,l),
(490,156,l),
(30,156,l)
);
},
{
closed = 1;
nodes = (
(30,23,l),
(490,474,l),
(490,677,l),
(30,226,l)
);
}
);
width = 520;
},
{
layerId = "237EE106-1C4C-43CB-BAA6-0D096D8EA800";
associatedMasterId = "49638240-DECC-40F3-A1FC-C881920BB771";
name = "Jan 13, 23, 17:56";
shapes = (
{
closed = 1;
nodes = (
(515,0,l),
(515,152,l),
(35,152,l),
(95,23,l),
(505,514,l),
(505,700,l),
(35,700,l),
(35,548,l),
(505,548,l),
(445,677,l),
(35,186,l),
(35,0,l)
);
}
);
width = 545;
},
{
layerId = "39255151-27FF-4A89-95A8-663874615F9D";
associatedMasterId = "49638240-DECC-40F3-A1FC-C881920BB771";
name = "Jan 10, 23, 16:41";
shapes = (
{
closed = 1;
nodes = (
(515,0,l),
(515,156,l),
(35,156,l),
(35,23,l),
(505,474,l),
(505,700,l),
(35,700,l),
(35,544,l),
(505,544,l),
(505,677,l),
(35,226,l),
(35,0,l)
);
}
);
width = 545;
},
{
layerId = "49638240-DECC-40F3-A1FC-C881920BB771";
shapes = (
{
closed = 1;
nodes = (
(509,0,l),
(509,152,l),
(35,152,l),
(115,23,l),
(499,534,l),
(499,700,l),
(35,700,l),
(35,548,l),
(499,548,l),
(419,677,l),
(35,166,l),
(35,0,l)
);
}
);
width = 541;
},
{
layerId = "B6CEEBC1-2298-4B9F-97B1-C8DC3F6949A2";
associatedMasterId = "BC44314D-ED22-409A-ACDF-E854CADB3608";
name = "Jan 13, 23, 17:56";
shapes = (
{
closed = 1;
nodes = (
(505,0,l),
(505,74,l),
(45,74,l),
(73,23,l),
(495,591,l),
(495,700,l),
(45,700,l),
(45,626,l),
(495,626,l),
(467,677,l),
(45,109,l),
(45,0,l)
);
}
);
width = 550;
},
{
layerId = "1B5F4649-1A71-4664-944C-AF4DBF1CDF5B";
associatedMasterId = "BC44314D-ED22-409A-ACDF-E854CADB3608";
name = "Jan 10, 23, 16:41";
shapes = (
{
closed = 1;
nodes = (
(505,0,l),
(505,74,l),
(45,74,l),
(45,23,l),
(495,561,l),
(495,700,l),
(45,700,l),
(45,626,l),
(495,626,l),
(495,677,l),
(45,139,l),
(45,0,l)
);
}
);
width = 550;
},
{
layerId = "BC44314D-ED22-409A-ACDF-E854CADB3608";
shapes = (
{
closed = 1;
nodes = (
(490,0,l),
(490,74,l),
(45,74,l),
(90,23,l),
(480,611,l),
(480,700,l),
(45,700,l),
(45,626,l),
(480,626,l),
(435,677,l),
(45,89,l),
(45,0,l)
);
}
);
width = 535;
},
{
layerId = "D7099DF3-6127-46B3-A8CF-22E12F13B3B7";
shapes = (
{
closed = 1;
nodes = (
(482,0,l),
(482,43,l),
(49,43,l),
(80,23,l),
(472,642,l),
(472,700,l),
(49,700,l),
(49,657,l),
(472,657,l),
(441,677,l),
(49,58,l),
(49,0,l)
);
}
);
width = 533;
}
);
leftKerningGroup = Z;
rightKerningGroup = Z;
unicode = 90;
},
{
glyphname = Zcaron;
layers = (
{
layerId = "49638240-DECC-40F3-A1FC-C881920BB771";
shapes = (
{
closed = 1;
nodes = (
(509,0,l),
(509,152,l),
(35,152,l),
(115,23,l),
(499,534,l),
(499,700,l),
(35,700,l),
(35,548,l),
(499,548,l),
(419,677,l),
(35,166,l),
(35,0,l)
);
},
{
closed = 1;
nodes = (
(330,735,l),
(218,905,l),
(87,905,l),
(188,735,l)
);
},
{
closed = 1;
nodes = (
(459,905,l),
(328,905,l),
(216,735,l),
(358,735,l)
);
}
);
width = 541;
},
{
layerId = "BC44314D-ED22-409A-ACDF-E854CADB3608";
shapes = (
{
closed = 1;
nodes = (
(490,0,l),
(490,74,l),
(45,74,l),
(90,23,l),
(480,611,l),
(480,700,l),
(45,700,l),
(45,626,l),
(480,626,l),
(435,677,l),
(45,89,l),
(45,0,l)
);
},
{
closed = 1;
nodes = (
(302,775,l),
(200,925,l),
(129,925,l),
(230,775,l)
);
},
{
closed = 1;
nodes = (
(421,925,l),
(350,925,l),
(248,775,l),
(320,775,l)
);
}
);
width = 535;
},
{
layerId = "D7099DF3-6127-46B3-A8CF-22E12F13B3B7";
shapes = (
{
closed = 1;
nodes = (
(482,0,l),
(482,43,l),
(49,43,l),
(80,23,l),
(472,642,l),
(472,700,l),
(49,700,l),
(49,657,l),
(472,657,l),
(441,677,l),
(49,58,l),
(49,0,l)
);
},
{
closed = 1;
nodes = (
(291,791,l),
(193,933,l),
(146,933,l),
(247,791,l)
);
},
{
closed = 1;
nodes = (
(406,933,l),
(359,933,l),
(261,791,l),
(305,791,l)
);
}
);
width = 533;
}
);
unicode = 381;
},
{
glyphname = Abreve;
layers = (
{
layerId = "49638240-DECC-40F3-A1FC-C881920BB771";
shapes = (
{
closed = 1;
nodes = (
(173,0,l),
(293,602,l,{name = cr01;}),
(321,705,l),
(320,706,l),
(213,700,l),
(271,700,l),
(417,0,l),
(581,0,l),
(423,700,l),
(165,700,l),
(10,0,l)
);
},
{
closed = 1;
nodes = (
(479,147,l),
(479,293,l),
(111,293,l),
(111,147,l)
);
},
{
closed = 1;
nodes = (
(400,730,o),
(470,805,o),
(470,905,c),
(120,905,l),
(120,805,o),
(190,730,o),
(295,730,cs)
);
},
{
closed = 1;
nodes = (
(254,830,o),
(228,860,o),
(228,905,c),
(362,905,l),
(362,860,o),
(336,830,o),
(295,830,cs)
);
}
);
width = 590;
},
{
layerId = "BC44314D-ED22-409A-ACDF-E854CADB3608";
shapes = (
{
closed = 1;
nodes = (
(103,0,l),
(278,605,l,{name = cr01;}),
(309,702,l),
(308,703,l),
(207,700,l),
(279,700,l),
(487,0,l),
(571,0,l),
(360,700,l),
(230,700,l),
(20,0,l)
);
},
{
closed = 1;
nodes = (
(469,207,l),
(469,281,l),
(121,281,l),
(121,207,l)
);
},
{
closed = 1;
nodes = (
(383,770,o),
(442,836,o),
(442,925,c),
(148,925,l),
(148,836,o),
(207,770,o),
(295,770,cs)
);
},
{
closed = 1;
nodes = (
(242,830,o),
(208,868,o),
(208,925,c),
(382,925,l),
(382,868,o),
(348,830,o),
(295,830,cs)
);
}
);
width = 591;
},
{
layerId = "D7099DF3-6127-46B3-A8CF-22E12F13B3B7";
shapes = (
{
closed = 1;
nodes = (
(75,0,l),
(272,606,l),
(304,701,l),
(303,702,l),
(205,700,l),
(282,700,l),
(515,0,l),
(567,0,l),
(335,700,l),
(256,700,l),
(24,0,l)
);
},
{
closed = 1;
nodes = (
(465,231,l),
(465,276,l),
(125,276,l),
(125,231,l)
);
},
{
closed = 1;
nodes = (
(376,786,o),
(431,848,o),
(431,933,c),
(159,933,l),
(159,848,o),
(214,786,o),
(295,786,cs)
);
},
{
closed = 1;
nodes = (
(237,830,o),
(200,871,o),
(200,933,c),
(390,933,l),
(390,871,o),
(353,830,o),
(295,830,cs)
);
}
);
width = 591;
}
);
unicode = 258;
},
{
glyphname = Amacron;
layers = (
{
layerId = "49638240-DECC-40F3-A1FC-C881920BB771";
shapes = (
{
closed = 1;
nodes = (
(173,0,l),
(293,602,l,{name = cr01;}),
(321,705,l),
(320,706,l),
(213,700,l),
(271,700,l),
(417,0,l),
(581,0,l),
(423,700,l),
(165,700,l),
(10,0,l)
);
},
{
closed = 1;
nodes = (
(479,147,l),
(479,293,l),
(111,293,l),
(111,147,l)
);
},
{
closed = 1;
nodes = (
(445,765,l),
(445,875,l),
(145,875,l),
(145,765,l)
);
}
);
width = 590;
},
{
layerId = "BC44314D-ED22-409A-ACDF-E854CADB3608";
shapes = (
{
closed = 1;
nodes = (
(103,0,l),
(278,605,l,{name = cr01;}),
(309,702,l),
(308,703,l),
(207,700,l),
(279,700,l),
(487,0,l),
(571,0,l),
(360,700,l),
(230,700,l),
(20,0,l)
);
},
{
closed = 1;
nodes = (
(469,207,l),
(469,281,l),
(121,281,l),
(121,207,l)
);
},
{
closed = 1;
nodes = (
(445,810,l),
(445,870,l),
(145,870,l),
(145,810,l)
);
}
);
width = 591;
},
{
layerId = "D7099DF3-6127-46B3-A8CF-22E12F13B3B7";
shapes = (
{
closed = 1;
nodes = (
(75,0,l),
(272,606,l),
(304,701,l),
(303,702,l),
(205,700,l),
(282,700,l),
(515,0,l),
(567,0,l),
(335,700,l),
(256,700,l),
(24,0,l)
);
},
{
closed = 1;
nodes = (
(465,231,l),
(465,276,l),
(125,276,l),
(125,231,l)
);
},
{
closed = 1;
nodes = (
(445,828,l),
(445,868,l),
(145,868,l),
(145,828,l)
);
}
);
width = 591;
}
);
unicode = 256;
},
{
glyphname = Aogonek;
layers = (
{
layerId = "49638240-DECC-40F3-A1FC-C881920BB771";
shapes = (
{
closed = 1;
nodes = (
(173,0,l),
(293,602,l,{name = cr01;}),
(321,705,l),
(320,706,l),
(213,700,l),
(271,700,l),
(417,0,l),
(581,0,l),
(423,700,l),
(165,700,l),
(10,0,l)
);
},
{
closed = 1;
nodes = (
(479,147,l),
(479,293,l),
(111,293,l),
(111,147,l)
);
},
{
closed = 1;
nodes = (
(491,45,l),
(431,16,o),
(372,-26,o),
(372,-104,cs),
(372,-199,o),
(461,-220,o),
(533,-220,cs),
(606,-220,l),
(606,-106,l),
(566,-106,ls),
(527,-106,o),
(506,-94,o),
(506,-68,cs),
(506,-39,o),
(533,-12,o),
(580,0,c)
);
}
);
width = 590;
},
{
layerId = "BC44314D-ED22-409A-ACDF-E854CADB3608";
shapes = (
{
closed = 1;
nodes = (
(103,0,l),
(278,605,l,{name = cr01;}),
(309,702,l),
(308,703,l),
(207,700,l),
(279,700,l),
(487,0,l),
(571,0,l),
(360,700,l),
(230,700,l),
(20,0,l)
);
},
{
closed = 1;
nodes = (
(469,207,l),
(469,281,l),
(121,281,l),
(121,207,l)
);
},
{
closed = 1;
nodes = (
(523,18,l),
(482,2,o),
(429,-30,o),
(429,-95,cs),
(429,-166,o),
(491,-190,o),
(550,-190,cs),
(585,-190,l),
(585,-126,l),
(559,-126,ls),
(528,-126,o),
(495,-115,o),
(495,-77,cs),
(495,-41,o),
(524,-18,o),
(570,0,c)
);
}
);
width = 591;
},
{
layerId = "D7099DF3-6127-46B3-A8CF-22E12F13B3B7";
shapes = (
{
closed = 1;
nodes = (
(75,0,l),
(272,606,l),
(304,701,l),
(303,702,l),
(205,700,l),
(282,700,l),
(515,0,l),
(567,0,l),
(335,700,l),
(256,700,l),
(24,0,l)
);
},
{
closed = 1;
nodes = (
(465,231,l),
(465,276,l),
(125,276,l),
(125,231,l)
);
},
{
closed = 1;
nodes = (
(536,7,l),
(502,-4,o),
(452,-32,o),
(452,-91,cs),
(452,-153,o),
(503,-178,o),
(557,-178,cs),
(577,-178,l),
(577,-134,l),
(556,-134,ls),
(528,-134,o),
(491,-123,o),
(491,-81,cs),
(491,-42,o),
(520,-20,o),
(566,0,c)
);
}
);
width = 591;
}
);
unicode = 260;
},
{
glyphname = Ccaron;
layers = (
{
layerId = "49638240-DECC-40F3-A1FC-C881920BB771";
shapes = (
{
closed = 1;
nodes = (
(595,672,l),
(543,694,o),
(477,712,o),
(400,712,cs),
(180,712,o),
(25,560,o),
(25,350,cs),
(25,140,o),
(180,-12,o),
(400,-12,cs),
(477,-12,o),
(543,6,o),
(595,28,c),
(595,196,l),
(524,163,o),
(466,142,o),
(404,142,cs),
(274,142,o),
(189,235,o),
(189,350,cs),
(189,466,o),
(274,558,o),
(404,558,cs),
(466,558,o),
(525,538,o),
(595,504,c)
);
},
{
closed = 1;
nodes = (
(417,735,l),
(305,905,l),
(174,905,l),
(275,735,l)
);
},
{
closed = 1;
nodes = (
(546,905,l),
(415,905,l),
(303,735,l),
(445,735,l)
);
}
);
width = 620;
},
{
layerId = "BC44314D-ED22-409A-ACDF-E854CADB3608";
shapes = (
{
closed = 1;
nodes = (
(597,668,l),
(543,689,o),
(479,708,o),
(401,708,cs),
(193,708,o),
(45,560,o),
(45,350,cs),
(45,140,o),
(193,-8,o),
(401,-8,cs),
(479,-8,o),
(543,11,o),
(597,32,c),
(597,116,l),
(528,85,o),
(468,66,o),
(405,66,cs),
(237,66,o),
(127,191,o),
(127,350,cs),
(127,511,o),
(237,634,o),
(405,634,cs),
(468,634,o),
(529,616,o),
(597,584,c)
);
},
{
closed = 1;
nodes = (
(393,775,l),
(291,925,l),
(220,925,l),
(321,775,l)
);
},
{
closed = 1;
nodes = (
(512,925,l),
(441,925,l),
(339,775,l),
(411,775,l)
);
}
);
width = 632;
},
{
layerId = "D7099DF3-6127-46B3-A8CF-22E12F13B3B7";
shapes = (
{
closed = 1;
nodes = (
(598,666,l),
(543,687,o),
(480,706,o),
(401,706,cs),
(198,706,o),
(53,560,o),
(53,350,cs),
(53,140,o),
(198,-6,o),
(401,-6,cs),
(480,-6,o),
(543,13,o),
(598,34,c),
(598,84,l),
(530,54,o),
(469,36,o),
(405,36,cs),
(222,36,o),
(102,173,o),
(102,350,cs),
(102,529,o),
(222,664,o),
(405,664,cs),
(469,664,o),
(531,647,o),
(598,616,c)
);
},
{
closed = 1;
nodes = (
(383,791,l),
(285,933,l),
(238,933,l),
(339,791,l)
);
},
{
closed = 1;
nodes = (
(498,933,l),
(451,933,l),
(353,791,l),
(397,791,l)
);
}
);
width = 637;
}
);
unicode = 268;
},
{
glyphname = Dcaron;
layers = (
{
layerId = "49638240-DECC-40F3-A1FC-C881920BB771";
shapes = (
{
closed = 1;
nodes = (
(45,0,l),
(205,0,l),
(205,700,l),
(45,700,l)
);
},
{
closed = 1;
nodes = (
(499,228,o),
(429,152,o),
(275,152,cs),
(115,152,l),
(115,0,l),
(275,0,ls),
(516,0,o),
(665,130,o),
(665,350,cs),
(665,570,o),
(516,700,o),
(275,700,cs),
(115,700,l),
(115,548,l),
(275,548,ls),
(429,548,o),
(499,472,o),
(499,350,cs)
);
},
{
closed = 1;
nodes = (
(372,735,l),
(260,905,l),
(129,905,l),
(230,735,l)
);
},
{
closed = 1;
nodes = (
(501,905,l),
(370,905,l),
(258,735,l),
(400,735,l)
);
}
);
width = 690;
},
{
layerId = "BC44314D-ED22-409A-ACDF-E854CADB3608";
shapes = (
{
closed = 1;
nodes = (
(65,0,l),
(145,0,l),
(145,700,l),
(65,700,l)
);
},
{
closed = 1;
nodes = (
(517,180,o),
(422,74,o),
(213,74,cs),
(105,74,l),
(105,0,l),
(213,0,ls),
(452,0,o),
(599,130,o),
(599,350,cs),
(599,570,o),
(452,700,o),
(213,700,cs),
(105,700,l),
(105,626,l),
(213,626,ls),
(422,626,o),
(517,520,o),
(517,350,cs)
);
},
{
closed = 1;
nodes = (
(305,775,l),
(203,925,l),
(132,925,l),
(233,775,l)
);
},
{
closed = 1;
nodes = (
(424,925,l),
(353,925,l),
(251,775,l),
(323,775,l)
);
}
);
width = 644;
},
{
layerId = "D7099DF3-6127-46B3-A8CF-22E12F13B3B7";
shapes = (
{
closed = 1;
nodes = (
(73,0,l),
(121,0,l),
(121,700,l),
(73,700,l)
);
},
{
closed = 1;
nodes = (
(524,161,o),
(419,43,o),
(188,43,cs),
(101,43,l),
(101,0,l),
(188,0,ls),
(426,0,o),
(573,130,o),
(573,350,cs),
(573,570,o),
(426,700,o),
(188,700,cs),
(101,700,l),
(101,657,l),
(188,657,ls),
(419,657,o),
(524,539,o),
(524,350,cs)
);
},
{
closed = 1;
nodes = (
(278,791,l),
(180,933,l),
(133,933,l),
(234,791,l)
);
},
{
closed = 1;
nodes = (
(393,933,l),
(346,933,l),
(248,791,l),
(292,791,l)
);
}
);
width = 626;
}
);
unicode = 270;
},
{
glyphname = Ecaron;
layers = (
{
layerId = "49638240-DECC-40F3-A1FC-C881920BB771";
shapes = (
{
closed = 1;
nodes = (
(145,550,l),
(435,550,l),
(435,700,l),
(145,700,l)
);
},
{
closed = 1;
nodes = (
(45,0,l),
(205,0,l),
(205,700,l),
(45,700,l)
);
},
{
closed = 1;
nodes = (
(145,281,l),
(425,281,l),
(425,423,l),
(145,423,l)
);
},
{
closed = 1;
nodes = (
(145,0,l),
(435,0,l),
(435,150,l),
(145,150,l)
);
},
{
closed = 1;
nodes = (
(292,735,l),
(180,905,l),
(49,905,l),
(150,735,l)
);
},
{
closed = 1;
nodes = (
(421,905,l),
(290,905,l),
(178,735,l),
(320,735,l)
);
}
);
width = 470;
},
{
layerId = "BC44314D-ED22-409A-ACDF-E854CADB3608";
shapes = (
{
closed = 1;
nodes = (
(125,626,l),
(435,626,l),
(435,700,l),
(125,700,l)
);
},
{
closed = 1;
nodes = (
(65,0,l),
(145,0,l),
(145,700,l),
(65,700,l)
);
},
{
closed = 1;
nodes = (
(125,324,l),
(417,324,l),
(417,396,l),
(125,396,l)
);
},
{
closed = 1;
nodes = (
(125,0,l),
(435,0,l),
(435,74,l),
(125,74,l)
);
},
{
closed = 1;
nodes = (
(272,775,l),
(170,925,l),
(99,925,l),
(200,775,l)
);
},
{
closed = 1;
nodes = (
(391,925,l),
(320,925,l),
(218,775,l),
(290,775,l)
);
}
);
width = 490;
},
{
layerId = "D7099DF3-6127-46B3-A8CF-22E12F13B3B7";
shapes = (
{
closed = 1;
nodes = (
(117,656,l),
(435,656,l),
(435,700,l),
(117,700,l)
);
},
{
closed = 1;
nodes = (
(73,0,l),
(121,0,l),
(121,700,l),
(73,700,l)
);
},
{
closed = 1;
nodes = (
(117,341,l),
(414,341,l),
(414,385,l),
(117,385,l)
);
},
{
closed = 1;
nodes = (
(117,0,l),
(435,0,l),
(435,44,l),
(117,44,l)
);
},
{
closed = 1;
nodes = (
(264,791,l),
(166,933,l),
(119,933,l),
(220,791,l)
);
},
{
closed = 1;
nodes = (
(379,933,l),
(332,933,l),
(234,791,l),
(278,791,l)
);
}
);
width = 498;
}
);
unicode = 282;
},
{
glyphname = Emacron;
layers = (
{
layerId = "49638240-DECC-40F3-A1FC-C881920BB771";
shapes = (
{
closed = 1;
nodes = (
(145,550,l),
(435,550,l),
(435,700,l),
(145,700,l)
);
},
{
closed = 1;
nodes = (
(45,0,l),
(205,0,l),
(205,700,l),
(45,700,l)
);
},
{
closed = 1;
nodes = (
(145,281,l),
(425,281,l),
(425,423,l),
(145,423,l)
);
},
{
closed = 1;
nodes = (
(145,0,l),
(435,0,l),
(435,150,l),
(145,150,l)
);
},
{
closed = 1;
nodes = (
(385,765,l),
(385,875,l),
(85,875,l),
(85,765,l)
);
}
);
width = 470;
},
{
layerId = "BC44314D-ED22-409A-ACDF-E854CADB3608";
shapes = (
{
closed = 1;
nodes = (
(125,626,l),
(435,626,l),
(435,700,l),
(125,700,l)
);
},
{
closed = 1;
nodes = (
(65,0,l),
(145,0,l),
(145,700,l),
(65,700,l)
);
},
{
closed = 1;
nodes = (
(125,324,l),
(417,324,l),
(417,396,l),
(125,396,l)
);
},
{
closed = 1;
nodes = (
(125,0,l),
(435,0,l),
(435,74,l),
(125,74,l)
);
},
{
closed = 1;
nodes = (
(395,810,l),
(395,870,l),
(95,870,l),
(95,810,l)
);
}
);
width = 490;
},
{
layerId = "D7099DF3-6127-46B3-A8CF-22E12F13B3B7";
shapes = (
{
closed = 1;
nodes = (
(117,656,l),
(435,656,l),
(435,700,l),
(117,700,l)
);
},
{
closed = 1;
nodes = (
(73,0,l),
(121,0,l),
(121,700,l),
(73,700,l)
);
},
{
closed = 1;
nodes = (
(117,341,l),
(414,341,l),
(414,385,l),
(117,385,l)
);
},
{
closed = 1;
nodes = (
(117,0,l),
(435,0,l),
(435,44,l),
(117,44,l)
);
},
{
closed = 1;
nodes = (
(399,828,l),
(399,868,l),
(99,868,l),
(99,828,l)
);
}
);
width = 498;
}
);
unicode = 274;
},
{
glyphname = Eogonek;
layers = (
{
layerId = "49638240-DECC-40F3-A1FC-C881920BB771";
shapes = (
{
closed = 1;
nodes = (
(145,550,l),
(435,550,l),
(435,700,l),
(145,700,l)
);
},
{
closed = 1;
nodes = (
(45,0,l),
(205,0,l),
(205,700,l),
(45,700,l)
);
},
{
closed = 1;
nodes = (
(145,281,l),
(425,281,l),
(425,423,l),
(145,423,l)
);
},
{
closed = 1;
nodes = (
(145,0,l),
(435,0,l),
(435,150,l),
(145,150,l)
);
},
{
closed = 1;
nodes = (
(346,45,l),
(286,16,o),
(227,-26,o),
(227,-104,cs),
(227,-199,o),
(316,-220,o),
(388,-220,cs),
(461,-220,l),
(461,-106,l),
(421,-106,ls),
(382,-106,o),
(361,-94,o),
(361,-68,cs),
(361,-39,o),
(388,-12,o),
(435,0,c)
);
}
);
width = 470;
},
{
layerId = "BC44314D-ED22-409A-ACDF-E854CADB3608";
shapes = (
{
closed = 1;
nodes = (
(125,626,l),
(435,626,l),
(435,700,l),
(125,700,l)
);
},
{
closed = 1;
nodes = (
(65,0,l),
(145,0,l),
(145,700,l),
(65,700,l)
);
},
{
closed = 1;
nodes = (
(125,324,l),
(417,324,l),
(417,396,l),
(125,396,l)
);
},
{
closed = 1;
nodes = (
(125,0,l),
(435,0,l),
(435,74,l),
(125,74,l)
);
},
{
closed = 1;
nodes = (
(388,18,l),
(347,2,o),
(294,-30,o),
(294,-95,cs),
(294,-166,o),
(356,-190,o),
(415,-190,cs),
(450,-190,l),
(450,-126,l),
(424,-126,ls),
(393,-126,o),
(360,-115,o),
(360,-77,cs),
(360,-41,o),
(389,-18,o),
(435,0,c)
);
}
);
width = 490;
},
{
layerId = "D7099DF3-6127-46B3-A8CF-22E12F13B3B7";
shapes = (
{
closed = 1;
nodes = (
(117,656,l),
(435,656,l),
(435,700,l),
(117,700,l)
);
},
{
closed = 1;
nodes = (
(73,0,l),
(121,0,l),
(121,700,l),
(73,700,l)
);
},
{
closed = 1;
nodes = (
(117,341,l),
(414,341,l),
(414,385,l),
(117,385,l)
);
},
{
closed = 1;
nodes = (
(117,0,l),
(435,0,l),
(435,44,l),
(117,44,l)
);
},
{
closed = 1;
nodes = (
(405,7,l),
(371,-4,o),
(321,-32,o),
(321,-91,cs),
(321,-153,o),
(372,-178,o),
(426,-178,cs),
(446,-178,l),
(446,-134,l),
(425,-134,ls),
(397,-134,o),
(360,-123,o),
(360,-81,cs),
(360,-42,o),
(389,-20,o),
(435,0,c)
);
}
);
width = 498;
}
);
unicode = 280;
},
{
glyphname = Schwa;
layers = (
{
layerId = "15187948-5E2B-4937-84A8-F930C78DD539";
name = "#instance";
shapes = (
{
closed = 1;
nodes = (
(276,712,o),
(198,690,o),
(120,651,c),
(120,592,l),
(205,647,o),
(286,664,o),
(352,664,cs),
(539,664,o),
(655,525,o),
(655,356,cs),
(655,345,ls),
(655,175,o),
(546,36,o),
(373,36,cs),
(210,36,o),
(97,158,o),
(97,317,c),
(84,306,l),
(675,306,l),
(675,350,l),
(55,350,l),
(54,342,o),
(53,331,o),
(53,312,cs),
(53,141,o),
(171,-12,o),
(370,-12,cs),
(571,-12,o),
(701,146,o),
(701,350,cs),
(701,551,o),
(570,712,o),
(352,712,cs)
);
}
);
width = 754;
},
{
layerId = "49638240-DECC-40F3-A1FC-C881920BB771";
shapes = (
{
closed = 1;
nodes = (
(268,712,o),
(184,696,o),
(107,658,c),
(107,500,l),
(178,536,o),
(250,560,o),
(331,560,cs),
(489,560,o),
(557,469,o),
(557,370,cs),
(557,327,ls),
(557,231,o),
(503,142,o),
(365,142,cs),
(239,142,o),
(191,217,o),
(191,297,c),
(140,278,l),
(654,278,l),
(654,414,l),
(35,414,l),
(29,384,o),
(25,353,o),
(25,320,cs),
(25,140,o),
(150,-12,o),
(366,-12,cs),
(579,-12,o),
(722,143,o),
(722,350,cs),
(722,564,o),
(570,712,o),
(344,712,cs)
);
}
);
width = 747;
},
{
layerId = "BC44314D-ED22-409A-ACDF-E854CADB3608";
shapes = (
{
closed = 1;
nodes = (
(274,712,o),
(194,692,o),
(116,653,c),
(116,566,l),
(197,615,o),
(276,634,o),
(346,634,cs),
(525,634,o),
(627,509,o),
(627,360,cs),
(627,340,ls),
(627,191,o),
(534,66,o),
(371,66,cs),
(218,66,o),
(124,175,o),
(124,311,c),
(100,298,l),
(633,298,l),
(633,368,l),
(49,368,l),
(47,354,o),
(45,337,o),
(45,314,cs),
(45,141,o),
(165,-12,o),
(369,-12,cs),
(573,-12,o),
(707,145,o),
(707,350,cs),
(707,555,o),
(570,712,o),
(350,712,cs)
);
}
);
width = 752;
},
{
layerId = "D7099DF3-6127-46B3-A8CF-22E12F13B3B7";
shapes = (
{
closed = 1;
nodes = (
(276,712,o),
(198,690,o),
(120,651,c),
(120,592,l),
(205,647,o),
(286,664,o),
(352,664,cs),
(539,664,o),
(655,525,o),
(655,356,cs),
(655,345,ls),
(655,175,o),
(546,36,o),
(373,36,cs),
(210,36,o),
(97,158,o),
(97,317,c),
(84,306,l),
(675,306,l),
(675,350,l),
(55,350,l),
(54,342,o),
(53,331,o),
(53,312,cs),
(53,141,o),
(171,-12,o),
(370,-12,cs),
(571,-12,o),
(701,146,o),
(701,350,cs),
(701,551,o),
(570,712,o),
(352,712,cs)
);
}
);
width = 754;
}
);
unicode = 399;
},
{
glyphname = Gbreve;
layers = (
{
layerId = "49638240-DECC-40F3-A1FC-C881920BB771";
shapes = (
{
closed = 1;
nodes = (
(455,100,l),
(615,100,l),
(615,409,l),
(320,409,l),
(320,275,l),
(455,275,l)
);
},
{
closed = 1;
nodes = (
(595,672,l),
(543,694,o),
(477,712,o),
(400,712,cs),
(180,712,o),
(25,560,o),
(25,350,cs),
(25,140,o),
(180,-12,o),
(395,-12,cs),
(479,-12,o),
(558,11,o),
(615,31,c),
(615,214,l),
(557,181,o),
(481,142,o),
(397,142,cs),
(269,142,o),
(189,231,o),
(189,350,cs),
(189,470,o),
(272,558,o),
(405,558,cs),
(476,558,o),
(529,533,o),
(595,504,c)
);
},
{
closed = 1;
nodes = (
(435,730,o),
(505,805,o),
(505,905,c),
(155,905,l),
(155,805,o),
(225,730,o),
(330,730,cs)
);
},
{
closed = 1;
nodes = (
(289,830,o),
(263,860,o),
(263,905,c),
(397,905,l),
(397,860,o),
(371,830,o),
(330,830,cs)
);
}
);
width = 660;
},
{
layerId = "BC44314D-ED22-409A-ACDF-E854CADB3608";
shapes = (
{
closed = 1;
nodes = (
(527,64,l),
(607,64,l),
(607,383,l),
(330,383,l),
(330,314,l),
(527,314,l)
);
},
{
closed = 1;
nodes = (
(597,668,l),
(544,689,o),
(479,708,o),
(402,708,cs),
(193,708,o),
(45,560,o),
(45,350,cs),
(45,140,o),
(193,-8,o),
(397,-8,cs),
(477,-8,o),
(550,14,o),
(607,45,c),
(607,126,l),
(549,93,o),
(479,66,o),
(399,66,cs),
(232,66,o),
(127,185,o),
(127,350,cs),
(127,516,o),
(235,634,o),
(407,634,cs),
(478,634,o),
(530,613,o),
(597,585,c)
);
},
{
closed = 1;
nodes = (
(454,770,o),
(513,836,o),
(513,925,c),
(219,925,l),
(219,836,o),
(278,770,o),
(366,770,cs)
);
},
{
closed = 1;
nodes = (
(313,830,o),
(279,868,o),
(279,925,c),
(453,925,l),
(453,868,o),
(419,830,o),
(366,830,cs)
);
}
);
width = 672;
},
{
layerId = "D7099DF3-6127-46B3-A8CF-22E12F13B3B7";
shapes = (
{
closed = 1;
nodes = (
(556,50,l),
(604,50,l),
(604,372,l),
(334,372,l),
(334,329,l),
(556,329,l)
);
},
{
closed = 1;
nodes = (
(598,666,l),
(544,687,o),
(480,706,o),
(403,706,cs),
(198,706,o),
(53,560,o),
(53,350,cs),
(53,140,o),
(198,-6,o),
(398,-6,cs),
(476,-6,o),
(547,15,o),
(604,51,c),
(604,91,l),
(546,58,o),
(478,36,o),
(400,36,cs),
(217,36,o),
(102,167,o),
(102,350,cs),
(102,534,o),
(220,664,o),
(408,664,cs),
(479,664,o),
(530,645,o),
(598,617,c)
);
},
{
closed = 1;
nodes = (
(461,786,o),
(516,848,o),
(516,933,c),
(244,933,l),
(244,848,o),
(299,786,o),
(380,786,cs)
);
},
{
closed = 1;
nodes = (
(322,830,o),
(285,871,o),
(285,933,c),
(475,933,l),
(475,871,o),
(438,830,o),
(380,830,cs)
);
}
);
width = 677;
}
);
unicode = 286;
},
{
glyphname = Gcommaaccent;
layers = (
{
layerId = "49638240-DECC-40F3-A1FC-C881920BB771";
shapes = (
{
closed = 1;
nodes = (
(455,100,l),
(615,100,l),
(615,409,l),
(320,409,l),
(320,275,l),
(455,275,l)
);
},
{
closed = 1;
nodes = (
(595,672,l),
(543,694,o),
(477,712,o),
(400,712,cs),
(180,712,o),
(25,560,o),
(25,350,cs),
(25,140,o),
(180,-12,o),
(395,-12,cs),
(479,-12,o),
(558,11,o),
(615,31,c),
(615,214,l),
(557,181,o),
(481,142,o),
(397,142,cs),
(269,142,o),
(189,231,o),
(189,350,cs),
(189,470,o),
(272,558,o),
(405,558,cs),
(476,558,o),
(529,533,o),
(595,504,c)
);
},
{
closed = 1;
nodes = (
(329,-240,l),
(410,-40,l),
(250,-40,l),
(177,-240,l)
);
}
);
width = 660;
},
{
layerId = "BC44314D-ED22-409A-ACDF-E854CADB3608";
shapes = (
{
closed = 1;
nodes = (
(527,64,l),
(607,64,l),
(607,383,l),
(330,383,l),
(330,314,l),
(527,314,l)
);
},
{
closed = 1;
nodes = (
(597,668,l),
(544,689,o),
(479,708,o),
(402,708,cs),
(193,708,o),
(45,560,o),
(45,350,cs),
(45,140,o),
(193,-8,o),
(397,-8,cs),
(477,-8,o),
(550,14,o),
(607,45,c),
(607,126,l),
(549,93,o),
(479,66,o),
(399,66,cs),
(232,66,o),
(127,185,o),
(127,350,cs),
(127,516,o),
(235,634,o),
(407,634,cs),
(478,634,o),
(530,613,o),
(597,585,c)
);
},
{
closed = 1;
nodes = (
(340,-210,l),
(407,-40,l),
(325,-40,l),
(266,-210,l)
);
}
);
width = 672;
},
{
layerId = "D7099DF3-6127-46B3-A8CF-22E12F13B3B7";
shapes = (
{
closed = 1;
nodes = (
(556,50,l),
(604,50,l),
(604,372,l),
(334,372,l),
(334,329,l),
(556,329,l)
);
},
{
closed = 1;
nodes = (
(598,666,l),
(544,687,o),
(480,706,o),
(403,706,cs),
(198,706,o),
(53,560,o),
(53,350,cs),
(53,140,o),
(198,-6,o),
(398,-6,cs),
(476,-6,o),
(547,15,o),
(604,51,c),
(604,91,l),
(546,58,o),
(478,36,o),
(400,36,cs),
(217,36,o),
(102,167,o),
(102,350,cs),
(102,534,o),
(220,664,o),
(408,664,cs),
(479,664,o),
(530,645,o),
(598,617,c)
);
},
{
closed = 1;
nodes = (
(344,-198,l),
(405,-40,l),
(355,-40,l),
(301,-198,l)
);
}
);
width = 677;
}
);
unicode = 290;
},
{
glyphname = Hbar;
layers = (
{
layerId = "49638240-DECC-40F3-A1FC-C881920BB771";
shapes = (
{
closed = 1;
nodes = (
(660,515,l),
(660,615,l),
(-10,615,l),
(-10,515,l)
);
},
{
closed = 1;
nodes = (
(45,0,l),
(205,0,l),
(205,700,l),
(45,700,l)
);
},
{
closed = 1;
nodes = (
(445,0,l),
(605,0,l),
(605,700,l),
(445,700,l)
);
},
{
closed = 1;
nodes = (
(135,281,l),
(495,281,l),
(495,433,l),
(135,433,l)
);
}
);
width = 650;
},
{
layerId = "BC44314D-ED22-409A-ACDF-E854CADB3608";
shapes = (
{
closed = 1;
nodes = (
(644,536,l),
(644,600,l),
(6,600,l),
(6,536,l)
);
},
{
closed = 1;
nodes = (
(65,0,l),
(145,0,l),
(145,700,l),
(65,700,l)
);
},
{
closed = 1;
nodes = (
(505,0,l),
(585,0,l),
(585,700,l),
(505,700,l)
);
},
{
closed = 1;
nodes = (
(115,325,l),
(539,325,l),
(539,399,l),
(115,399,l)
);
}
);
width = 650;
},
{
layerId = "D7099DF3-6127-46B3-A8CF-22E12F13B3B7";
shapes = (
{
closed = 1;
nodes = (
(638,544,l),
(638,594,l),
(12,594,l),
(12,544,l)
);
},
{
closed = 1;
nodes = (
(73,0,l),
(121,0,l),
(121,700,l),
(73,700,l)
);
},
{
closed = 1;
nodes = (
(529,0,l),
(577,0,l),
(577,700,l),
(529,700,l)
);
},
{
closed = 1;
nodes = (
(107,343,l),
(557,343,l),
(557,385,l),
(107,385,l)
);
}
);
width = 650;
}
);
unicode = 294;
},
{
glyphname = Imacron;
layers = (
{
layerId = "49638240-DECC-40F3-A1FC-C881920BB771";
shapes = (
{
closed = 1;
nodes = (
(45,0,l),
(205,0,l),
(205,700,l),
(45,700,l)
);
},
{
closed = 1;
nodes = (
(275,765,l),
(275,875,l),
(-25,875,l),
(-25,765,l)
);
}
);
width = 250;
},
{
layerId = "BC44314D-ED22-409A-ACDF-E854CADB3608";
shapes = (
{
closed = 1;
nodes = (
(65,0,l),
(145,0,l),
(145,700,l),
(65,700,l)
);
},
{
closed = 1;
nodes = (
(255,810,l),
(255,870,l),
(-45,870,l),
(-45,810,l)
);
}
);
width = 210;
},
{
layerId = "D7099DF3-6127-46B3-A8CF-22E12F13B3B7";
shapes = (
{
closed = 1;
nodes = (
(73,0,l),
(121,0,l),
(121,700,l),
(73,700,l)
);
},
{
closed = 1;
nodes = (
(247,828,l),
(247,868,l),
(-53,868,l),
(-53,828,l)
);
}
);
width = 194;
}
);
unicode = 298;
},
{
glyphname = Iogonek;
layers = (
{
layerId = "49638240-DECC-40F3-A1FC-C881920BB771";
shapes = (
{
closed = 1;
nodes = (
(45,0,l),
(205,0,l),
(205,700,l),
(45,700,l)
);
},
{
closed = 1;
nodes = (
(116,45,l),
(56,16,o),
(-3,-26,o),
(-3,-104,cs),
(-3,-199,o),
(86,-220,o),
(158,-220,cs),
(231,-220,l),
(231,-106,l),
(191,-106,ls),
(152,-106,o),
(131,-94,o),
(131,-68,cs),
(131,-39,o),
(158,-12,o),
(205,0,c)
);
}
);
width = 250;
},
{
layerId = "BC44314D-ED22-409A-ACDF-E854CADB3608";
shapes = (
{
closed = 1;
nodes = (
(65,0,l),
(145,0,l),
(145,700,l),
(65,700,l)
);
},
{
closed = 1;
nodes = (
(98,18,l),
(57,2,o),
(4,-30,o),
(4,-95,cs),
(4,-166,o),
(66,-190,o),
(125,-190,cs),
(160,-190,l),
(160,-126,l),
(134,-126,ls),
(103,-126,o),
(70,-115,o),
(70,-77,cs),
(70,-41,o),
(99,-18,o),
(145,0,c)
);
}
);
width = 210;
},
{
layerId = "D7099DF3-6127-46B3-A8CF-22E12F13B3B7";
shapes = (
{
closed = 1;
nodes = (
(73,0,l),
(121,0,l),
(121,700,l),
(73,700,l)
);
},
{
closed = 1;
nodes = (
(91,7,l),
(57,-4,o),
(7,-32,o),
(7,-91,cs),
(7,-153,o),
(58,-178,o),
(112,-178,cs),
(132,-178,l),
(132,-134,l),
(111,-134,ls),
(83,-134,o),
(46,-123,o),
(46,-81,cs),
(46,-42,o),
(75,-20,o),
(121,0,c)
);
}
);
width = 194;
}
);
unicode = 302;
},
{
glyphname = Kcommaaccent;
layers = (
{
layerId = "49638240-DECC-40F3-A1FC-C881920BB771";
shapes = (
{
closed = 1;
nodes = (
(192,360,l),
(404,0,l),
(599,0,l),
(357,360,l),
(589,700,l),
(404,700,l)
);
},
{
closed = 1;
nodes = (
(45,0,l),
(205,0,l),
(205,700,l),
(45,700,l)
);
},
{
closed = 1;
nodes = (
(311,-240,l),
(392,-40,l),
(232,-40,l),
(159,-240,l)
);
}
);
width = 624;
},
{
layerId = "BC44314D-ED22-409A-ACDF-E854CADB3608";
shapes = (
{
closed = 1;
nodes = (
(132,360,l),
(401,0,l),
(502,0,l),
(222,360,l),
(492,700,l),
(395,700,l)
);
},
{
closed = 1;
nodes = (
(65,0,l),
(145,0,l),
(145,700,l),
(65,700,l)
);
},
{
closed = 1;
nodes = (
(243,-210,l),
(310,-40,l),
(228,-40,l),
(169,-210,l)
);
}
);
width = 532;
},
{
layerId = "D7099DF3-6127-46B3-A8CF-22E12F13B3B7";
shapes = (
{
closed = 1;
nodes = (
(108,360,l),
(400,0,l),
(463,0,l),
(168,360,l),
(453,700,l),
(391,700,l)
);
},
{
closed = 1;
nodes = (
(73,0,l),
(121,0,l),
(121,700,l),
(73,700,l)
);
},
{
closed = 1;
nodes = (
(216,-198,l),
(277,-40,l),
(227,-40,l),
(173,-198,l)
);
}
);
width = 495;
}
);
unicode = 310;
},
{
glyphname = Lcaron;
layers = (
{
layerId = "49638240-DECC-40F3-A1FC-C881920BB771";
shapes = (
{
closed = 1;
nodes = (
(45,0,l),
(425,0,l),
(425,152,l),
(205,152,l),
(205,700,l),
(45,700,l)
);
},
{
closed = 1;
nodes = (
(259,455,l),
(380,455,l),
(412,700,l),
(280,700,l)
);
}
);
width = 450;
},
{
layerId = "BC44314D-ED22-409A-ACDF-E854CADB3608";
shapes = (
{
closed = 1;
nodes = (
(65,0,l),
(405,0,l),
(405,74,l),
(145,74,l),
(145,700,l),
(65,700,l)
);
},
{
closed = 1;
nodes = (
(229,505,l),
(296,505,l),
(328,700,l),
(250,700,l)
);
}
);
width = 440;
},
{
layerId = "D7099DF3-6127-46B3-A8CF-22E12F13B3B7";
shapes = (
{
closed = 1;
nodes = (
(73,0,l),
(397,0,l),
(397,43,l),
(121,43,l),
(121,700,l),
(73,700,l)
);
},
{
closed = 1;
nodes = (
(217,525,l),
(262,525,l),
(294,700,l),
(238,700,l)
);
}
);
width = 436;
}
);
unicode = 317;
},
{
glyphname = Lcommaaccent;
layers = (
{
layerId = "49638240-DECC-40F3-A1FC-C881920BB771";
shapes = (
{
closed = 1;
nodes = (
(45,0,l),
(425,0,l),
(425,152,l),
(205,152,l),
(205,700,l),
(45,700,l)
);
},
{
closed = 1;
nodes = (
(214,-240,l),
(295,-40,l),
(135,-40,l),
(62,-240,l)
);
}
);
width = 450;
},
{
layerId = "BC44314D-ED22-409A-ACDF-E854CADB3608";
shapes = (
{
closed = 1;
nodes = (
(65,0,l),
(405,0,l),
(405,74,l),
(145,74,l),
(145,700,l),
(65,700,l)
);
},
{
closed = 1;
nodes = (
(194,-210,l),
(261,-40,l),
(179,-40,l),
(120,-210,l)
);
}
);
width = 440;
},
{
layerId = "D7099DF3-6127-46B3-A8CF-22E12F13B3B7";
shapes = (
{
closed = 1;
nodes = (
(73,0,l),
(397,0,l),
(397,43,l),
(121,43,l),
(121,700,l),
(73,700,l)
);
},
{
closed = 1;
nodes = (
(186,-198,l),
(247,-40,l),
(197,-40,l),
(143,-198,l)
);
}
);
width = 436;
}
);
unicode = 315;
},
{
glyphname = Lslash;
layers = (
{
layerId = "49638240-DECC-40F3-A1FC-C881920BB771";
shapes = (
{
closed = 1;
nodes = (
(411,379,l),
(411,521,l),
(15,331,l),
(15,189,l)
);
},
{
closed = 1;
nodes = (
(100,0,l),
(480,0,l),
(480,152,l),
(260,152,l),
(260,700,l),
(100,700,l)
);
}
);
width = 485;
},
{
layerId = "BC44314D-ED22-409A-ACDF-E854CADB3608";
shapes = (
{
closed = 1;
nodes = (
(421,431,l),
(421,513,l),
(35,263,l),
(35,181,l)
);
},
{
closed = 1;
nodes = (
(145,0,l),
(485,0,l),
(485,74,l),
(225,74,l),
(225,700,l),
(145,700,l)
);
}
);
width = 520;
},
{
layerId = "D7099DF3-6127-46B3-A8CF-22E12F13B3B7";
shapes = (
{
closed = 1;
nodes = (
(425,452,l),
(425,510,l),
(43,236,l),
(43,178,l)
);
},
{
closed = 1;
nodes = (
(163,0,l),
(487,0,l),
(487,43,l),
(211,43,l),
(211,700,l),
(163,700,l)
);
}
);
width = 534;
}
);
unicode = 321;
},
{
glyphname = Ncaron;
layers = (
{
layerId = "49638240-DECC-40F3-A1FC-C881920BB771";
shapes = (
{
closed = 1;
nodes = (
(45,700,l),
(45,0,l),
(197,0,l),
(197,700,l),
(151,700,l),
(387,0,l),
(655,0,l),
(655,700,l),
(503,700,l),
(503,0,l),
(549,0,l),
(312,700,l)
);
},
{
closed = 1;
nodes = (
(407,735,l),
(295,905,l),
(164,905,l),
(265,735,l)
);
},
{
closed = 1;
nodes = (
(536,905,l),
(405,905,l),
(293,735,l),
(435,735,l)
);
}
);
width = 700;
},
{
layerId = "BC44314D-ED22-409A-ACDF-E854CADB3608";
shapes = (
{
closed = 1;
nodes = (
(65,700,l),
(65,0,l),
(143,0,l),
(143,682,l),
(125,681,l),
(465,0,l),
(600,0,l),
(600,700,l),
(522,700,l),
(522,18,l),
(540,19,l),
(200,700,l)
);
},
{
closed = 1;
nodes = (
(360,775,l),
(258,925,l),
(187,925,l),
(288,775,l)
);
},
{
closed = 1;
nodes = (
(479,925,l),
(408,925,l),
(306,775,l),
(378,775,l)
);
}
);
width = 665;
},
{
layerId = "D7099DF3-6127-46B3-A8CF-22E12F13B3B7";
shapes = (
{
closed = 1;
nodes = (
(73,700,l),
(73,0,l),
(121,0,l),
(121,675,l),
(114,673,l),
(496,0,l),
(578,0,l),
(578,700,l),
(530,700,l),
(530,25,l),
(537,27,l),
(155,700,l)
);
},
{
closed = 1;
nodes = (
(341,791,l),
(243,933,l),
(196,933,l),
(297,791,l)
);
},
{
closed = 1;
nodes = (
(456,933,l),
(409,933,l),
(311,791,l),
(355,791,l)
);
}
);
width = 651;
}
);
unicode = 327;
},
{
glyphname = Ncommaaccent;
layers = (
{
layerId = "49638240-DECC-40F3-A1FC-C881920BB771";
shapes = (
{
closed = 1;
nodes = (
(45,700,l),
(45,0,l),
(197,0,l),
(197,700,l),
(151,700,l),
(387,0,l),
(655,0,l),
(655,700,l),
(503,700,l),
(503,0,l),
(549,0,l),
(312,700,l)
);
},
{
closed = 1;
nodes = (
(349,-240,l),
(430,-40,l),
(270,-40,l),
(197,-240,l)
);
}
);
width = 700;
},
{
layerId = "BC44314D-ED22-409A-ACDF-E854CADB3608";
shapes = (
{
closed = 1;
nodes = (
(65,700,l),
(65,0,l),
(143,0,l),
(143,682,l),
(125,681,l),
(465,0,l),
(600,0,l),
(600,700,l),
(522,700,l),
(522,18,l),
(540,19,l),
(200,700,l)
);
},
{
closed = 1;
nodes = (
(307,-210,l),
(374,-40,l),
(292,-40,l),
(233,-210,l)
);
}
);
width = 665;
},
{
layerId = "D7099DF3-6127-46B3-A8CF-22E12F13B3B7";
shapes = (
{
closed = 1;
nodes = (
(73,700,l),
(73,0,l),
(121,0,l),
(121,675,l),
(114,673,l),
(496,0,l),
(578,0,l),
(578,700,l),
(530,700,l),
(530,25,l),
(537,27,l),
(155,700,l)
);
},
{
closed = 1;
nodes = (
(290,-198,l),
(351,-40,l),
(301,-40,l),
(247,-198,l)
);
}
);
width = 651;
}
);
unicode = 325;
},
{
glyphname = Ohungarumlaut;
layers = (
{
layerId = "49638240-DECC-40F3-A1FC-C881920BB771";
shapes = (
{
closed = 1;
nodes = (
(25,142,o),
(178,-12,o),
(385,-12,cs),
(592,-12,o),
(745,142,o),
(745,350,cs),
(745,558,o),
(592,712,o),
(385,712,cs),
(178,712,o),
(25,558,o),
(25,350,cs)
);
},
{
closed = 1;
nodes = (
(189,466,o),
(266,558,o),
(385,558,cs),
(504,558,o),
(581,466,o),
(581,350,cs),
(581,234,o),
(504,142,o),
(385,142,cs),
(266,142,o),
(189,234,o),
(189,350,cs)
);
},
{
closed = 1;
nodes = (
(426,905,l),
(292,905,l),
(222,735,l),
(346,735,l)
);
},
{
closed = 1;
nodes = (
(598,905,l),
(464,905,l),
(394,735,l),
(518,735,l)
);
}
);
width = 770;
},
{
layerId = "BC44314D-ED22-409A-ACDF-E854CADB3608";
shapes = (
{
closed = 1;
nodes = (
(45,142,o),
(188,-8,o),
(387,-8,cs),
(586,-8,o),
(729,142,o),
(729,350,cs),
(729,558,o),
(586,708,o),
(387,708,cs),
(188,708,o),
(45,558,o),
(45,350,cs)
);
},
{
closed = 1;
nodes = (
(127,510,o),
(226,632,o),
(387,632,cs),
(548,632,o),
(647,510,o),
(647,350,cs),
(647,191,o),
(548,68,o),
(387,68,cs),
(226,68,o),
(127,191,o),
(127,350,cs)
);
},
{
closed = 1;
nodes = (
(425,925,l),
(341,925,l),
(255,775,l),
(329,775,l)
);
},
{
closed = 1;
nodes = (
(569,925,l),
(485,925,l),
(399,775,l),
(473,775,l)
);
}
);
width = 774;
},
{
layerId = "D7099DF3-6127-46B3-A8CF-22E12F13B3B7";
shapes = (
{
closed = 1;
nodes = (
(53,142,o),
(192,-6,o),
(388,-6,cs),
(584,-6,o),
(723,142,o),
(723,350,cs),
(723,558,o),
(584,706,o),
(388,706,cs),
(192,706,o),
(53,558,o),
(53,350,cs)
);
},
{
closed = 1;
nodes = (
(102,528,o),
(210,662,o),
(388,662,cs),
(566,662,o),
(673,528,o),
(673,350,cs),
(673,174,o),
(566,38,o),
(388,38,cs),
(210,38,o),
(102,174,o),
(102,350,cs)
);
},
{
closed = 1;
nodes = (
(425,933,l),
(361,933,l),
(268,791,l),
(322,791,l)
);
},
{
closed = 1;
nodes = (
(558,933,l),
(494,933,l),
(401,791,l),
(455,791,l)
);
}
);
width = 776;
}
);
unicode = 336;
},
{
glyphname = Omacron;
layers = (
{
layerId = "49638240-DECC-40F3-A1FC-C881920BB771";
shapes = (
{
closed = 1;
nodes = (
(25,142,o),
(178,-12,o),
(385,-12,cs),
(592,-12,o),
(745,142,o),
(745,350,cs),
(745,558,o),
(592,712,o),
(385,712,cs),
(178,712,o),
(25,558,o),
(25,350,cs)
);
},
{
closed = 1;
nodes = (
(189,466,o),
(266,558,o),
(385,558,cs),
(504,558,o),
(581,466,o),
(581,350,cs),
(581,234,o),
(504,142,o),
(385,142,cs),
(266,142,o),
(189,234,o),
(189,350,cs)
);
},
{
closed = 1;
nodes = (
(535,765,l),
(535,875,l),
(235,875,l),
(235,765,l)
);
}
);
width = 770;
},
{
layerId = "BC44314D-ED22-409A-ACDF-E854CADB3608";
shapes = (
{
closed = 1;
nodes = (
(45,142,o),
(188,-8,o),
(387,-8,cs),
(586,-8,o),
(729,142,o),
(729,350,cs),
(729,558,o),
(586,708,o),
(387,708,cs),
(188,708,o),
(45,558,o),
(45,350,cs)
);
},
{
closed = 1;
nodes = (
(127,510,o),
(226,632,o),
(387,632,cs),
(548,632,o),
(647,510,o),
(647,350,cs),
(647,191,o),
(548,68,o),
(387,68,cs),
(226,68,o),
(127,191,o),
(127,350,cs)
);
},
{
closed = 1;
nodes = (
(537,810,l),
(537,870,l),
(237,870,l),
(237,810,l)
);
}
);
width = 774;
},
{
layerId = "D7099DF3-6127-46B3-A8CF-22E12F13B3B7";
shapes = (
{
closed = 1;
nodes = (
(53,142,o),
(192,-6,o),
(388,-6,cs),
(584,-6,o),
(723,142,o),
(723,350,cs),
(723,558,o),
(584,706,o),
(388,706,cs),
(192,706,o),
(53,558,o),
(53,350,cs)
);
},
{
closed = 1;
nodes = (
(102,528,o),
(210,662,o),
(388,662,cs),
(566,662,o),
(673,528,o),
(673,350,cs),
(673,174,o),
(566,38,o),
(388,38,cs),
(210,38,o),
(102,174,o),
(102,350,cs)
);
},
{
closed = 1;
nodes = (
(538,828,l),
(538,868,l),
(238,868,l),
(238,828,l)
);
}
);
width = 776;
}
);
unicode = 332;
},
{
glyphname = Rcaron;
layers = (
{
layerId = "49638240-DECC-40F3-A1FC-C881920BB771";
shapes = (
{
closed = 1;
nodes = (
(45,0,l),
(205,0,l),
(205,657,l),
(45,657,l)
);
},
{
closed = 1;
nodes = (
(200,372,l),
(361,0,l),
(540,0,l),
(365,338,l),
(255,327,l),
(255,280,l),
(419,280,o),
(508,349,o),
(508,485,cs),
(508,612,o),
(431,700,o),
(255,700,cs),
(45,700,l),
(45,556,l),
(255,556,ls),
(302,556,o),
(345,529,o),
(345,466,cs),
(345,403,o),
(302,377,o),
(255,377,cs),
(200,377,l)
);
},
{
closed = 1;
nodes = (
(330,735,l),
(218,905,l),
(87,905,l),
(188,735,l)
);
},
{
closed = 1;
nodes = (
(459,905,l),
(328,905,l),
(216,735,l),
(358,735,l)
);
}
);
width = 545;
},
{
layerId = "BC44314D-ED22-409A-ACDF-E854CADB3608";
shapes = (
{
closed = 1;
nodes = (
(65,0,l),
(145,0,l),
(145,700,l),
(65,700,l)
);
},
{
closed = 1;
nodes = (
(173,375,l),
(412,0,l),
(510,0,l),
(275,348,l),
(275,337,l),
(265,318,l),
(416,318,o),
(491,386,o),
(491,503,cs),
(491,622,o),
(416,700,o),
(265,700,cs),
(115,700,l),
(115,626,l),
(271,626,ls),
(351,626,o),
(410,587,o),
(410,501,cs),
(410,415,o),
(351,377,o),
(271,377,cs),
(173,377,l)
);
},
{
closed = 1;
nodes = (
(295,775,l),
(193,925,l),
(122,925,l),
(223,775,l)
);
},
{
closed = 1;
nodes = (
(414,925,l),
(343,925,l),
(241,775,l),
(313,775,l)
);
}
);
width = 535;
},
{
layerId = "D7099DF3-6127-46B3-A8CF-22E12F13B3B7";
shapes = (
{
closed = 1;
nodes = (
(73,0,l),
(121,0,l),
(121,700,l),
(73,700,l)
);
},
{
closed = 1;
nodes = (
(162,376,l),
(432,0,l),
(498,0,l),
(239,352,l),
(239,341,l),
(229,333,l),
(408,333,o),
(484,385,o),
(484,510,cs),
(484,626,o),
(410,700,o),
(269,700,cs),
(93,700,l),
(93,654,l),
(277,654,ls),
(371,654,o),
(436,610,o),
(436,515,cs),
(436,420,o),
(371,377,o),
(277,377,cs),
(162,377,l)
);
},
{
closed = 1;
nodes = (
(281,791,l),
(183,933,l),
(136,933,l),
(237,791,l)
);
},
{
closed = 1;
nodes = (
(396,933,l),
(349,933,l),
(251,791,l),
(295,791,l)
);
}
);
width = 531;
}
);
unicode = 344;
},
{
glyphname = Rcommaaccent;
layers = (
{
layerId = "49638240-DECC-40F3-A1FC-C881920BB771";
shapes = (
{
closed = 1;
nodes = (
(45,0,l),
(205,0,l),
(205,657,l),
(45,657,l)
);
},
{
closed = 1;
nodes = (
(200,372,l),
(361,0,l),
(540,0,l),
(365,338,l),
(255,327,l),
(255,280,l),
(419,280,o),
(508,349,o),
(508,485,cs),
(508,612,o),
(431,700,o),
(255,700,cs),
(45,700,l),
(45,556,l),
(255,556,ls),
(302,556,o),
(345,529,o),
(345,466,cs),
(345,403,o),
(302,377,o),
(255,377,cs),
(200,377,l)
);
},
{
closed = 1;
nodes = (
(272,-240,l),
(353,-40,l),
(193,-40,l),
(120,-240,l)
);
}
);
width = 545;
},
{
layerId = "BC44314D-ED22-409A-ACDF-E854CADB3608";
shapes = (
{
closed = 1;
nodes = (
(65,0,l),
(145,0,l),
(145,700,l),
(65,700,l)
);
},
{
closed = 1;
nodes = (
(173,375,l),
(412,0,l),
(510,0,l),
(275,348,l),
(275,337,l),
(265,318,l),
(416,318,o),
(491,386,o),
(491,503,cs),
(491,622,o),
(416,700,o),
(265,700,cs),
(115,700,l),
(115,626,l),
(271,626,ls),
(351,626,o),
(410,587,o),
(410,501,cs),
(410,415,o),
(351,377,o),
(271,377,cs),
(173,377,l)
);
},
{
closed = 1;
nodes = (
(242,-210,l),
(309,-40,l),
(227,-40,l),
(168,-210,l)
);
}
);
width = 535;
},
{
layerId = "D7099DF3-6127-46B3-A8CF-22E12F13B3B7";
shapes = (
{
closed = 1;
nodes = (
(73,0,l),
(121,0,l),
(121,700,l),
(73,700,l)
);
},
{
closed = 1;
nodes = (
(162,376,l),
(432,0,l),
(498,0,l),
(239,352,l),
(239,341,l),
(229,333,l),
(408,333,o),
(484,385,o),
(484,510,cs),
(484,626,o),
(410,700,o),
(269,700,cs),
(93,700,l),
(93,654,l),
(277,654,ls),
(371,654,o),
(436,610,o),
(436,515,cs),
(436,420,o),
(371,377,o),
(277,377,cs),
(162,377,l)
);
},
{
closed = 1;
nodes = (
(230,-198,l),
(291,-40,l),
(241,-40,l),
(187,-198,l)
);
}
);
width = 531;
}
);
unicode = 342;
},
{
glyphname = Scommaaccent;
layers = (
{
layerId = "49638240-DECC-40F3-A1FC-C881920BB771";
shapes = (
{
closed = 1;
nodes = (
(263,263,ls),
(296,246,o),
(315,230,o),
(315,197,cs),
(315,164,o),
(293,142,o),
(245,142,cs),
(194,142,o),
(141,162,o),
(55,196,c),
(55,31,l),
(120,6,o),
(185,-12,o),
(250,-12,cs),
(390,-12,o),
(475,70,o),
(475,198,cs),
(475,293,o),
(434,354,o),
(349,397,cs),
(247,449,ls),
(215,465,o),
(195,479,o),
(195,509,cs),
(195,540,o),
(217,561,o),
(265,561,cs),
(315,561,o),
(367,542,o),
(451,505,c),
(451,667,l),
(387,695,o),
(324,712,o),
(260,712,cs),
(120,712,o),
(35,630,o),
(35,502,cs),
(35,413,o),
(78,357,o),
(161,315,cs)
);
},
{
closed = 1;
nodes = (
(254,-240,l),
(335,-40,l),
(175,-40,l),
(102,-240,l)
);
}
);
width = 510;
},
{
layerId = "BC44314D-ED22-409A-ACDF-E854CADB3608";
shapes = (
{
closed = 1;
nodes = (
(243,307,ls),
(308,270,o),
(345,238,o),
(345,172,cs),
(345,107,o),
(305,66,o),
(233,66,cs),
(188,66,o),
(137,82,o),
(65,110,c),
(65,25,l),
(120,6,o),
(175,-8,o),
(230,-8,cs),
(347,-8,o),
(425,57,o),
(425,172,cs),
(425,277,o),
(364,331,o),
(293,371,cs),
(227,409,ls),
(164,445,o),
(125,473,o),
(125,534,cs),
(125,596,o),
(165,634,o),
(237,634,cs),
(282,634,o),
(331,619,o),
(401,592,c),
(401,677,l),
(347,695,o),
(294,708,o),
(240,708,cs),
(123,708,o),
(45,644,o),
(45,530,cs),
(45,432,o),
(108,385,o),
(177,345,cs)
);
},
{
closed = 1;
nodes = (
(209,-210,l),
(276,-40,l),
(194,-40,l),
(135,-210,l)
);
}
);
width = 470;
},
{
layerId = "D7099DF3-6127-46B3-A8CF-22E12F13B3B7";
shapes = (
{
closed = 1;
nodes = (
(235,327,ls),
(312,280,o),
(357,241,o),
(357,162,cs),
(357,84,o),
(310,36,o),
(228,36,cs),
(186,36,o),
(135,50,o),
(69,76,c),
(69,23,l),
(120,6,o),
(171,-6,o),
(222,-6,cs),
(330,-6,o),
(405,52,o),
(405,162,cs),
(405,271,o),
(336,319,o),
(271,359,cs),
(219,391,ls),
(145,437,o),
(97,471,o),
(97,544,cs),
(97,618,o),
(144,663,o),
(226,663,cs),
(269,663,o),
(317,650,o),
(381,627,c),
(381,681,l),
(331,695,o),
(282,706,o),
(232,706,cs),
(124,706,o),
(49,650,o),
(49,541,cs),
(49,440,o),
(120,398,o),
(183,359,cs)
);
},
{
closed = 1;
nodes = (
(191,-198,l),
(252,-40,l),
(202,-40,l),
(148,-198,l)
);
}
);
width = 454;
}
);
unicode = 536;
},
{
glyphname = Tcaron;
layers = (
{
layerId = "49638240-DECC-40F3-A1FC-C881920BB771";
shapes = (
{
closed = 1;
nodes = (
(15,548,l),
(495,548,l),
(495,700,l),
(15,700,l)
);
},
{
closed = 1;
nodes = (
(175,0,l),
(335,0,l),
(335,657,l),
(175,657,l)
);
},
{
closed = 1;
nodes = (
(312,735,l),
(200,905,l),
(69,905,l),
(170,735,l)
);
},
{
closed = 1;
nodes = (
(441,905,l),
(310,905,l),
(198,735,l),
(340,735,l)
);
}
);
width = 510;
},
{
layerId = "BC44314D-ED22-409A-ACDF-E854CADB3608";
shapes = (
{
closed = 1;
nodes = (
(35,624,l),
(515,624,l),
(515,700,l),
(35,700,l)
);
},
{
closed = 1;
nodes = (
(235,0,l),
(315,0,l),
(315,657,l),
(235,657,l)
);
},
{
closed = 1;
nodes = (
(302,775,l),
(200,925,l),
(129,925,l),
(230,775,l)
);
},
{
closed = 1;
nodes = (
(421,925,l),
(350,925,l),
(248,775,l),
(320,775,l)
);
}
);
width = 550;
},
{
layerId = "D7099DF3-6127-46B3-A8CF-22E12F13B3B7";
shapes = (
{
closed = 1;
nodes = (
(43,654,l),
(523,654,l),
(523,700,l),
(43,700,l)
);
},
{
closed = 1;
nodes = (
(259,0,l),
(307,0,l),
(307,657,l),
(259,657,l)
);
},
{
closed = 1;
nodes = (
(298,791,l),
(200,933,l),
(153,933,l),
(254,791,l)
);
},
{
closed = 1;
nodes = (
(413,933,l),
(366,933,l),
(268,791,l),
(312,791,l)
);
}
);
width = 566;
}
);
unicode = 356;
},
{
glyphname = Tcommaaccent;
layers = (
{
layerId = "49638240-DECC-40F3-A1FC-C881920BB771";
shapes = (
{
closed = 1;
nodes = (
(15,548,l),
(495,548,l),
(495,700,l),
(15,700,l)
);
},
{
closed = 1;
nodes = (
(175,0,l),
(335,0,l),
(335,657,l),
(175,657,l)
);
},
{
closed = 1;
nodes = (
(254,-240,l),
(335,-40,l),
(175,-40,l),
(102,-240,l)
);
}
);
width = 510;
},
{
layerId = "BC44314D-ED22-409A-ACDF-E854CADB3608";
shapes = (
{
closed = 1;
nodes = (
(35,624,l),
(515,624,l),
(515,700,l),
(35,700,l)
);
},
{
closed = 1;
nodes = (
(235,0,l),
(315,0,l),
(315,657,l),
(235,657,l)
);
},
{
closed = 1;
nodes = (
(249,-210,l),
(316,-40,l),
(234,-40,l),
(175,-210,l)
);
}
);
width = 550;
},
{
layerId = "D7099DF3-6127-46B3-A8CF-22E12F13B3B7";
shapes = (
{
closed = 1;
nodes = (
(43,654,l),
(523,654,l),
(523,700,l),
(43,700,l)
);
},
{
closed = 1;
nodes = (
(259,0,l),
(307,0,l),
(307,657,l),
(259,657,l)
);
},
{
closed = 1;
nodes = (
(247,-198,l),
(308,-40,l),
(258,-40,l),
(204,-198,l)
);
}
);
width = 566;
}
);
unicode = 538;
},
{
glyphname = Uhungarumlaut;
layers = (
{
layerId = "49638240-DECC-40F3-A1FC-C881920BB771";
shapes = (
{
closed = 1;
nodes = (
(395,700,l),
(395,251,ls),
(395,189,o),
(359,142,o),
(295,142,cs),
(231,142,o),
(195,189,o),
(195,251,cs),
(195,700,l),
(35,700,l),
(35,258,ls),
(35,97,o),
(129,-12,o),
(295,-12,cs),
(461,-12,o),
(555,97,o),
(555,258,cs),
(555,700,l)
);
},
{
closed = 1;
nodes = (
(336,905,l),
(202,905,l),
(132,735,l),
(256,735,l)
);
},
{
closed = 1;
nodes = (
(508,905,l),
(374,905,l),
(304,735,l),
(428,735,l)
);
}
);
width = 590;
},
{
layerId = "BC44314D-ED22-409A-ACDF-E854CADB3608";
shapes = (
{
closed = 1;
nodes = (
(460,700,l),
(460,237,ls),
(460,140,o),
(412,62,o),
(300,62,cs),
(188,62,o),
(140,140,o),
(140,237,cs),
(140,700,l),
(60,700,l),
(60,244,ls),
(60,95,o),
(137,-12,o),
(300,-12,cs),
(463,-12,o),
(540,95,o),
(540,244,cs),
(540,700,l)
);
},
{
closed = 1;
nodes = (
(338,925,l),
(254,925,l),
(168,775,l),
(242,775,l)
);
},
{
closed = 1;
nodes = (
(482,925,l),
(398,925,l),
(312,775,l),
(386,775,l)
);
}
);
width = 600;
},
{
layerId = "D7099DF3-6127-46B3-A8CF-22E12F13B3B7";
shapes = (
{
closed = 1;
nodes = (
(486,700,l),
(486,231,ls),
(486,120,o),
(433,30,o),
(302,30,cs),
(171,30,o),
(118,120,o),
(118,231,cs),
(118,700,l),
(70,700,l),
(70,238,ls),
(70,94,o),
(140,-12,o),
(302,-12,cs),
(464,-12,o),
(534,94,o),
(534,238,cs),
(534,700,l)
);
},
{
closed = 1;
nodes = (
(339,933,l),
(275,933,l),
(182,791,l),
(236,791,l)
);
},
{
closed = 1;
nodes = (
(472,933,l),
(408,933,l),
(315,791,l),
(369,791,l)
);
}
);
width = 604;
}
);
unicode = 368;
},
{
glyphname = Umacron;
layers = (
{
layerId = "49638240-DECC-40F3-A1FC-C881920BB771";
shapes = (
{
closed = 1;
nodes = (
(395,700,l),
(395,251,ls),
(395,189,o),
(359,142,o),
(295,142,cs),
(231,142,o),
(195,189,o),
(195,251,cs),
(195,700,l),
(35,700,l),
(35,258,ls),
(35,97,o),
(129,-12,o),
(295,-12,cs),
(461,-12,o),
(555,97,o),
(555,258,cs),
(555,700,l)
);
},
{
closed = 1;
nodes = (
(445,765,l),
(445,875,l),
(145,875,l),
(145,765,l)
);
}
);
width = 590;
},
{
layerId = "BC44314D-ED22-409A-ACDF-E854CADB3608";
shapes = (
{
closed = 1;
nodes = (
(460,700,l),
(460,237,ls),
(460,140,o),
(412,62,o),
(300,62,cs),
(188,62,o),
(140,140,o),
(140,237,cs),
(140,700,l),
(60,700,l),
(60,244,ls),
(60,95,o),
(137,-12,o),
(300,-12,cs),
(463,-12,o),
(540,95,o),
(540,244,cs),
(540,700,l)
);
},
{
closed = 1;
nodes = (
(450,810,l),
(450,870,l),
(150,870,l),
(150,810,l)
);
}
);
width = 600;
},
{
layerId = "D7099DF3-6127-46B3-A8CF-22E12F13B3B7";
shapes = (
{
closed = 1;
nodes = (
(486,700,l),
(486,231,ls),
(486,120,o),
(433,30,o),
(302,30,cs),
(171,30,o),
(118,120,o),
(118,231,cs),
(118,700,l),
(70,700,l),
(70,238,ls),
(70,94,o),
(140,-12,o),
(302,-12,cs),
(464,-12,o),
(534,94,o),
(534,238,cs),
(534,700,l)
);
},
{
closed = 1;
nodes = (
(452,828,l),
(452,868,l),
(152,868,l),
(152,828,l)
);
}
);
width = 604;
}
);
unicode = 362;
},
{
glyphname = Uogonek;
layers = (
{
layerId = "49638240-DECC-40F3-A1FC-C881920BB771";
shapes = (
{
closed = 1;
nodes = (
(395,700,l),
(395,251,ls),
(395,189,o),
(359,142,o),
(295,142,cs),
(231,142,o),
(195,189,o),
(195,251,cs),
(195,700,l),
(35,700,l),
(35,258,ls),
(35,97,o),
(129,-12,o),
(295,-12,cs),
(461,-12,o),
(555,97,o),
(555,258,cs),
(555,700,l)
);
},
{
closed = 1;
nodes = (
(291,45,l),
(231,16,o),
(172,-26,o),
(172,-104,cs),
(172,-199,o),
(261,-220,o),
(333,-220,cs),
(406,-220,l),
(406,-106,l),
(366,-106,ls),
(327,-106,o),
(306,-94,o),
(306,-68,cs),
(306,-39,o),
(333,-12,o),
(380,0,c)
);
}
);
width = 590;
},
{
layerId = "BC44314D-ED22-409A-ACDF-E854CADB3608";
shapes = (
{
closed = 1;
nodes = (
(460,700,l),
(460,237,ls),
(460,140,o),
(412,62,o),
(300,62,cs),
(188,62,o),
(140,140,o),
(140,237,cs),
(140,700,l),
(60,700,l),
(60,244,ls),
(60,95,o),
(137,-12,o),
(300,-12,cs),
(463,-12,o),
(540,95,o),
(540,244,cs),
(540,700,l)
);
},
{
closed = 1;
nodes = (
(333,18,l),
(292,2,o),
(239,-30,o),
(239,-95,cs),
(239,-166,o),
(301,-190,o),
(360,-190,cs),
(395,-190,l),
(395,-126,l),
(369,-126,ls),
(338,-126,o),
(305,-115,o),
(305,-77,cs),
(305,-41,o),
(334,-18,o),
(380,0,c)
);
}
);
width = 600;
},
{
layerId = "D7099DF3-6127-46B3-A8CF-22E12F13B3B7";
shapes = (
{
closed = 1;
nodes = (
(486,700,l),
(486,231,ls),
(486,120,o),
(433,30,o),
(302,30,cs),
(171,30,o),
(118,120,o),
(118,231,cs),
(118,700,l),
(70,700,l),
(70,238,ls),
(70,94,o),
(140,-12,o),
(302,-12,cs),
(464,-12,o),
(534,94,o),
(534,238,cs),
(534,700,l)
);
},
{
closed = 1;
nodes = (
(350,7,l),
(316,-4,o),
(266,-32,o),
(266,-91,cs),
(266,-153,o),
(317,-178,o),
(371,-178,cs),
(391,-178,l),
(391,-134,l),
(370,-134,ls),
(342,-134,o),
(305,-123,o),
(305,-81,cs),
(305,-42,o),
(334,-20,o),
(380,0,c)
);
}
);
width = 604;
}
);
unicode = 370;
},
{
glyphname = a;
layers = (
{
layerId = "89953AFB-0221-4C87-825B-BBF7A9E23BA1";
associatedMasterId = "49638240-DECC-40F3-A1FC-C881920BB771";
name = "Oct 20, 22, 13:23";
shapes = (
{
closed = 1;
nodes = (
(232,352,ls),
(98,310,o),
(30,254,o),
(30,155,cs),
(30,60,o),
(94,-12,o),
(210,-12,cs),
(330,-12,o),
(380,67,o),
(400,180,c),
(377,180,l),
(371,119,l),
(371,0,l),
(523,0,l),
(523,370,ls),
(523,512,o),
(443,612,o),
(276,612,cs),
(208,612,o),
(140,596,o),
(71,575,c),
(71,424,l),
(150,451,o),
(209,464,o),
(255,464,cs),
(328,464,o),
(365,431,o),
(365,364,cs),
(365,211,ls),
(365,140,o),
(329,99,o),
(268,99,cs),
(218,99,o),
(190,127,o),
(190,166,cs),
(190,204,o),
(217,228,o),
(272,246,cs),
(394,287,l),
(390,402,l)
);
}
);
width = 568;
},
{
layerId = "93A189A4-23C5-45CE-948D-EF1BCDCEDA4D";
associatedMasterId = "49638240-DECC-40F3-A1FC-C881920BB771";
name = "Oct 18, 22, 17:06";
shapes = (
{
closed = 1;
nodes = (
(104,424,l),
(183,451,o),
(242,464,o),
(288,464,cs),
(361,464,o),
(398,431,o),
(398,364,cs),
(398,0,l),
(556,0,l),
(556,370,ls),
(556,512,o),
(476,612,o),
(309,612,cs),
(241,612,o),
(173,596,o),
(104,575,c)
);
},
{
closed = 1;
nodes = (
(58,67,o),
(132,-12,o),
(250,-12,cs),
(368,-12,o),
(403,67,o),
(423,180,c),
(403,293,o),
(368,372,o),
(250,372,cs),
(132,372,o),
(58,293,o),
(58,180,cs)
);
},
{
closed = 1;
nodes = (
(218,234,o),
(250,272,o),
(308,272,cs),
(366,272,o),
(398,234,o),
(398,180,cs),
(398,127,o),
(366,88,o),
(308,88,cs),
(250,88,o),
(218,127,o),
(218,180,cs)
);
}
);
width = 600;
},
{
layerId = "9854D9D8-E56B-40A1-B062-8D037E820724";
associatedMasterId = "49638240-DECC-40F3-A1FC-C881920BB771";
name = "Oct 18, 22, 16:17";
shapes = (
{
closed = 1;
nodes = (
(104,415,l),
(185,446,o),
(242,460,o),
(289,460,cs),
(361,460,o),
(398,427,o),
(398,360,cs),
(398,0,l),
(556,0,l),
(556,370,ls),
(556,512,o),
(476,612,o),
(309,612,cs),
(241,612,o),
(173,596,o),
(104,570,c)
);
},
{
closed = 1;
nodes = (
(58,67,o),
(132,-12,o),
(250,-12,cs),
(368,-12,o),
(403,67,o),
(423,180,c),
(403,293,o),
(368,372,o),
(250,372,cs),
(132,372,o),
(58,293,o),
(58,180,cs)
);
},
{
closed = 1;
nodes = (
(218,234,o),
(250,272,o),
(308,272,cs),
(366,272,o),
(398,234,o),
(398,180,cs),
(398,127,o),
(366,88,o),
(308,88,cs),
(250,88,o),
(218,127,o),
(218,180,cs)
);
}
);
width = 600;
},
{
layerId = "03FEB425-ED35-4D83-8741-0E77185551F8";
associatedMasterId = "49638240-DECC-40F3-A1FC-C881920BB771";
name = "Oct 18, 22, 16:13";
shapes = (
{
closed = 1;
nodes = (
(104,420,l),
(185,444,o),
(248,455,o),
(298,455,cs),
(374,455,o),
(398,430,o),
(398,370,cs),
(398,0,l),
(556,0,l),
(556,400,ls),
(556,542,o),
(476,612,o),
(324,612,cs),
(251,612,o),
(173,596,o),
(104,570,c)
);
},
{
closed = 1;
nodes = (
(58,67,o),
(140,-12,o),
(258,-12,cs),
(376,-12,o),
(398,67,o),
(398,180,cs),
(398,293,o),
(376,372,o),
(258,372,cs),
(140,372,o),
(58,293,o),
(58,180,cs)
);
},
{
closed = 1;
nodes = (
(218,234,o),
(250,272,o),
(308,272,cs),
(366,272,o),
(398,234,o),
(398,180,cs),
(398,127,o),
(366,88,o),
(308,88,cs),
(250,88,o),
(218,127,o),
(218,180,cs)
);
}
);
width = 600;
},
{
anchors = (
{
name = bottom;
position = "{262, 0}";
},
{
name = ogonek;
position = "{489, 0}";
},
{
name = top;
position = "{262, 560}";
}
);
layerId = "2E15EAD8-7F1F-4B1F-A92D-065A5C815849";
associatedMasterId = "49638240-DECC-40F3-A1FC-C881920BB771";
name = "Jan 10, 23, 16:26";
shapes = (
{
closed = 1;
nodes = (
(173,313,ls),
(84,282,o),
(26,225,o),
(26,140,cs),
(26,54,o),
(85,-12,o),
(186,-12,cs),
(294,-12,o),
(367,67,o),
(367,180,c),
(343,180,l),
(337,119,l),
(337,0,l),
(489,0,l),
(489,330,ls),
(489,472,o),
(429,572,o),
(259,572,cs),
(194,572,o),
(126,558,o),
(57,538,c),
(57,387,l),
(136,413,o),
(195,424,o),
(241,424,cs),
(314,424,o),
(331,396,o),
(331,329,cs),
(331,195,ls),
(331,141,o),
(299,105,o),
(252,105,cs),
(213,105,o),
(186,130,o),
(186,163,cs),
(186,195,o),
(212,214,o),
(249,227,cs),
(356,264,l),
(356,376,l)
);
}
);
width = 524;
},
{
layerId = "2F1F469A-B162-407D-8122-8B1C07B2E4F0";
associatedMasterId = "49638240-DECC-40F3-A1FC-C881920BB771";
name = 106;
shapes = (
{
closed = 1;
nodes = (
(197,313,ls),
(117,283,o),
(50,225,o),
(50,137,cs),
(50,54,o),
(109,-12,o),
(210,-12,cs),
(318,-12,o),
(371,67,o),
(390,180,c),
(367,180,l),
(361,119,l),
(361,0,l),
(513,0,l),
(513,330,ls),
(513,472,o),
(453,572,o),
(283,572,cs),
(218,572,o),
(150,558,o),
(81,543,c),
(81,392,l),
(160,413,o),
(219,424,o),
(265,424,cs),
(338,424,o),
(355,396,o),
(355,329,cs),
(355,185,ls),
(355,134,o),
(323,95,o),
(275,95,cs),
(236,95,o),
(210,121,o),
(210,154,cs),
(210,187,o),
(236,205,o),
(282,222,cs),
(380,259,l),
(380,381,l)
);
}
);
width = 558;
},
{
layerId = "5959B84C-6445-4578-9E31-6A3633AE3AAB";
associatedMasterId = "49638240-DECC-40F3-A1FC-C881920BB771";
name = 105;
shapes = (
{
closed = 1;
nodes = (
(222,332,ls),
(95,292,o),
(30,239,o),
(30,145,cs),
(30,56,o),
(90,-12,o),
(200,-12,cs),
(320,-12,o),
(370,67,o),
(390,180,c),
(367,180,l),
(361,119,l),
(361,0,l),
(513,0,l),
(513,330,ls),
(513,472,o),
(433,572,o),
(266,572,cs),
(198,572,o),
(130,556,o),
(61,538,c),
(61,392,l),
(140,416,o),
(199,429,o),
(247,429,cs),
(318,429,o),
(355,401,o),
(355,334,cs),
(355,211,ls),
(355,141,o),
(318,99,o),
(260,99,cs),
(215,99,o),
(190,124,o),
(190,156,cs),
(190,188,o),
(215,213,o),
(262,229,cs),
(384,270,l),
(380,382,l)
);
}
);
width = 558;
},
{
layerId = "2B023039-1A76-47CC-8357-8C06D5FF6804";
associatedMasterId = "49638240-DECC-40F3-A1FC-C881920BB771";
name = 103;
shapes = (
{
closed = 1;
nodes = (
(76,424,l),
(155,451,o),
(214,464,o),
(260,464,cs),
(333,464,o),
(370,431,o),
(370,364,cs),
(370,246,l),
(382,180,l),
(376,119,l),
(376,0,l),
(528,0,l),
(528,370,ls),
(528,512,o),
(448,612,o),
(281,612,cs),
(213,612,o),
(145,596,o),
(76,575,c)
);
},
{
closed = 1;
nodes = (
(395,180,l),
(375,293,o),
(340,372,o),
(222,372,cs),
(104,372,o),
(30,293,o),
(30,180,cs),
(30,67,o),
(104,-12,o),
(222,-12,cs),
(340,-12,o),
(385,67,o),
(405,180,c)
);
},
{
closed = 1;
nodes = (
(190,234,o),
(223,272,o),
(282,272,cs),
(341,272,o),
(374,234,o),
(374,180,cs),
(374,127,o),
(341,88,o),
(282,88,cs),
(223,88,o),
(190,127,o),
(190,180,cs)
);
}
);
width = 573;
},
{
anchors = (
{
name = bottom;
position = "{265, 0}";
},
{
name = ogonek;
position = "{492, 0}";
},
{
name = top;
position = "{265, 560}";
}
);
layerId = "49638240-DECC-40F3-A1FC-C881920BB771";
shapes = (
{
closed = 1;
nodes = (
(173,313,ls),
(84,283,o),
(26,225,o),
(26,140,cs),
(26,54,o),
(85,-12,o),
(186,-12,cs),
(294,-12,o),
(373,67,o),
(373,180,c),
(349,180,l),
(343,119,l),
(343,0,l),
(495,0,l),
(495,330,ls),
(495,472,o),
(429,572,o),
(259,572,cs),
(194,572,o),
(126,558,o),
(57,538,c),
(57,387,l),
(136,413,o),
(195,424,o),
(241,424,cs),
(314,424,o),
(337,396,o),
(337,329,cs),
(337,195,ls),
(337,141,o),
(299,105,o),
(252,105,cs),
(213,105,o),
(186,130,o),
(186,163,cs),
(186,195,o),
(212,215,o),
(249,227,cs),
(362,264,l),
(362,376,l)
);
}
);
width = 530;
},
{
anchors = (
{
name = bottom;
position = "{254, 0}";
},
{
name = ogonek;
position = "{456, 10}";
},
{
name = top;
position = "{254, 560}";
}
);
layerId = "103A1A5A-6D55-4074-BE50-4C5F40D51760";
associatedMasterId = "BC44314D-ED22-409A-ACDF-E854CADB3608";
name = "Jan 10, 23, 16:26";
shapes = (
{
closed = 1;
nodes = (
(175,296,ls),
(86,267,o),
(40,211,o),
(40,138,cs),
(40,54,o),
(101,-12,o),
(203,-12,cs),
(314,-12,o),
(386,67,o),
(386,180,c),
(377,180,l),
(365,119,l),
(365,0,l),
(445,0,l),
(445,350,ls),
(445,482,o),
(385,572,o),
(243,572,cs),
(187,572,o),
(127,558,o),
(67,538,c),
(67,461,l),
(138,489,o),
(186,500,o),
(233,500,cs),
(324,500,o),
(365,459,o),
(365,349,cs),
(365,195,ls),
(365,111,o),
(295,55,o),
(220,55,cs),
(159,55,o),
(120,93,o),
(120,142,cs),
(120,181,o),
(144,215,o),
(200,233,cs),
(390,295,l),
(390,366,l)
);
}
);
width = 507;
},
{
anchors = (
{
name = bottom;
position = "{257, 0}";
},
{
name = ogonek;
position = "{459, 10}";
},
{
name = top;
position = "{257, 560}";
}
);
layerId = "BC44314D-ED22-409A-ACDF-E854CADB3608";
shapes = (
{
closed = 1;
nodes = (
(175,296,ls),
(86,268,o),
(40,211,o),
(40,138,cs),
(40,54,o),
(101,-12,o),
(203,-12,cs),
(314,-12,o),
(392,67,o),
(392,180,c),
(383,180,l),
(371,119,l),
(371,0,l),
(451,0,l),
(451,350,ls),
(451,482,o),
(385,572,o),
(243,572,cs),
(187,572,o),
(127,558,o),
(67,538,c),
(67,461,l),
(138,489,o),
(186,500,o),
(233,500,cs),
(324,500,o),
(371,459,o),
(371,349,cs),
(371,195,ls),
(371,111,o),
(295,55,o),
(220,55,cs),
(159,55,o),
(120,93,o),
(120,142,cs),
(120,181,o),
(144,215,o),
(200,233,cs),
(396,295,l),
(396,366,l)
);
}
);
width = 513;
},
{
anchors = (
{
name = bottom;
position = "{254, 0}";
},
{
name = ogonek;
position = "{446, 14}";
},
{
name = top;
position = "{254, 560}";
}
);
layerId = "D7099DF3-6127-46B3-A8CF-22E12F13B3B7";
shapes = (
{
closed = 1;
nodes = (
(176,284,ls),
(87,256,o),
(46,205,o),
(46,137,cs),
(46,54,o),
(107,-12,o),
(210,-12,cs),
(322,-12,o),
(400,67,o),
(400,180,c),
(397,180,l),
(382,119,l),
(382,0,l),
(433,0,l),
(433,358,ls),
(433,486,o),
(367,572,o),
(237,572,cs),
(184,572,o),
(127,558,o),
(71,538,c),
(71,491,l),
(139,519,o),
(182,530,o),
(230,530,cs),
(328,530,o),
(385,484,o),
(385,357,cs),
(385,195,ls),
(385,99,o),
(293,35,o),
(207,35,cs),
(137,35,o),
(94,78,o),
(94,134,cs),
(94,175,o),
(117,220,o),
(180,240,cs),
(410,312,l),
(410,357,l)
);
}
);
width = 506;
}
);
leftKerningGroup = a;
rightKerningGroup = n;
unicode = 97;
},
{
glyphname = ae;
layers = (
{
anchors = (
{
name = bottom;
position = "{450, 0}";
},
{
name = top;
position = "{450, 560}";
}
);
layerId = "49638240-DECC-40F3-A1FC-C881920BB771";
shapes = (
{
closed = 1;
nodes = (
(173,313,ls),
(84,282,o),
(26,225,o),
(26,143,cs),
(26,50,o),
(102,-12,o),
(219,-12,cs),
(366,-12,o),
(457,87,o),
(457,210,c),
(429,257,l),
(489,330,l),
(489,472,o),
(429,572,o),
(259,572,cs),
(194,572,o),
(126,558,o),
(57,538,c),
(57,387,l),
(136,413,o),
(195,424,o),
(241,424,cs),
(314,424,o),
(331,396,o),
(331,329,cs),
(331,195,ls),
(331,141,o),
(299,105,o),
(252,105,cs),
(213,105,o),
(186,130,o),
(186,163,cs),
(186,195,o),
(212,214,o),
(249,227,cs),
(356,264,l),
(356,376,l)
);
},
{
closed = 1;
nodes = (
(701,-12,o),
(770,1,o),
(834,32,c),
(834,180,l),
(776,150,o),
(717,130,o),
(655,130,cs),
(545,130,o),
(499,188,o),
(499,240,cs),
(499,323,ls),
(499,381,o),
(532,435,o),
(612,435,cs),
(691,435,o),
(720,381,o),
(720,323,c),
(765,332,l),
(402,332,l),
(402,221,l),
(874,221,l),
(877,246,o),
(880,272,o),
(880,300,cs),
(880,447,o),
(783,572,o),
(615,572,cs),
(447,572,o),
(364,447,o),
(364,280,cs),
(364,107,o),
(456,-12,o),
(642,-12,cs)
);
}
);
width = 900;
},
{
anchors = (
{
name = bottom;
position = "{472, 0}";
},
{
name = top;
position = "{472, 560}";
}
);
layerId = "BC44314D-ED22-409A-ACDF-E854CADB3608";
shapes = (
{
closed = 1;
nodes = (
(175,296,ls),
(86,267,o),
(40,211,o),
(40,138,cs),
(40,54,o),
(101,-12,o),
(214,-12,cs),
(338,-12,o),
(426,67,o),
(426,180,c),
(401,280,l),
(435,350,l),
(435,482,o),
(385,572,o),
(243,572,cs),
(187,572,o),
(127,558,o),
(67,538,c),
(67,461,l),
(138,489,o),
(186,500,o),
(233,500,cs),
(324,500,o),
(365,459,o),
(365,349,cs),
(365,195,ls),
(365,111,o),
(295,55,o),
(220,55,cs),
(159,55,o),
(120,93,o),
(120,142,cs),
(120,181,o),
(144,215,o),
(200,233,cs),
(390,295,l),
(390,366,l)
);
},
{
closed = 1;
nodes = (
(733,-12,o),
(800,2,o),
(866,34,c),
(866,118,l),
(798,76,o),
(732,60,o),
(673,60,cs),
(528,60,o),
(445,156,o),
(445,270,cs),
(445,290,ls),
(445,404,o),
(516,500,o),
(643,500,cs),
(764,500,o),
(828,415,o),
(828,290,c),
(852,316,l),
(439,316,l),
(439,248,l),
(903,248,l),
(905,262,o),
(907,279,o),
(907,300,cs),
(907,445,o),
(809,572,o),
(643,572,cs),
(475,572,o),
(375,445,o),
(375,280,cs),
(375,115,o),
(478,-12,o),
(669,-12,cs)
);
}
);
width = 943;
},
{
anchors = (
{
name = bottom;
position = "{481, 0}";
},
{
name = top;
position = "{481, 560}";
}
);
layerId = "D7099DF3-6127-46B3-A8CF-22E12F13B3B7";
shapes = (
{
closed = 1;
nodes = (
(176,279,ls),
(87,251,o),
(46,205,o),
(46,136,cs),
(46,56,o),
(101,-12,o),
(212,-12,cs),
(327,-12,o),
(414,59,o),
(414,168,c),
(390,289,l),
(413,358,l),
(413,486,o),
(367,572,o),
(237,572,cs),
(184,572,o),
(127,558,o),
(71,538,c),
(71,491,l),
(139,519,o),
(182,530,o),
(230,530,cs),
(328,530,o),
(379,484,o),
(379,357,cs),
(379,195,ls),
(379,99,o),
(293,35,o),
(207,35,cs),
(137,35,o),
(94,78,o),
(94,134,cs),
(94,175,o),
(117,215,o),
(180,235,cs),
(404,307,l),
(404,352,l)
);
},
{
closed = 1;
nodes = (
(746,-12,o),
(812,2,o),
(879,35,c),
(879,93,l),
(807,46,o),
(738,32,o),
(680,32,cs),
(521,32,o),
(423,143,o),
(423,282,c),
(423,277,l),
(423,413,o),
(510,526,o),
(655,526,cs),
(793,526,o),
(871,429,o),
(871,277,c),
(887,300,l),
(413,300,l),
(413,259,l),
(915,259,l),
(916,268,o),
(918,282,o),
(918,300,cs),
(918,444,o),
(819,572,o),
(654,572,cs),
(486,572,o),
(379,444,o),
(379,280,cs),
(379,118,o),
(487,-12,o),
(680,-12,cs)
);
}
);
width = 960;
}
);
unicode = 230;
},
{
glyphname = b;
layers = (
{
layerId = "15187948-5E2B-4937-84A8-F930C78DD539";
name = "#instance";
shapes = (
{
closed = 1;
nodes = (
(105,280,l),
(105,89,o),
(220,-12,o),
(362,-12,cs),
(515,-12,o),
(639,107,o),
(639,280,cs),
(639,453,o),
(515,572,o),
(362,572,cs),
(220,572,o),
(115,471,o),
(115,280,c)
);
},
{
closed = 1;
nodes = (
(145,401,o),
(223,500,o),
(355,500,cs),
(485,500,o),
(559,401,o),
(559,280,cs),
(559,159,o),
(485,60,o),
(355,60,cs),
(223,60,o),
(145,159,o),
(145,280,cs)
);
},
{
closed = 1;
nodes = (
(65,0,l),
(145,0,l),
(145,160,l),
(125,280,l),
(145,377,l),
(145,750,l),
(65,750,l)
);
}
);
width = 675;
},
{
layerId = "F8A18D73-B5E4-4EA7-89C7-63F429A1B906";
associatedMasterId = "49638240-DECC-40F3-A1FC-C881920BB771";
name = v103;
shapes = (
{
closed = 1;
nodes = (
(163,300,l),
(163,117,o),
(246,-12,o),
(401,-12,cs),
(550,-12,o),
(653,107,o),
(653,300,cs),
(653,493,o),
(550,612,o),
(401,612,cs),
(246,612,o),
(173,483,o),
(173,300,c)
);
},
{
closed = 1;
nodes = (
(197,401,o),
(247,472,o),
(345,472,cs),
(443,472,o),
(493,401,o),
(493,300,cs),
(493,200,o),
(443,128,o),
(345,128,cs),
(247,128,o),
(197,200,o),
(197,300,cs)
);
},
{
closed = 1;
nodes = (
(45,0,l),
(197,0,l),
(197,180,l),
(183,300,l),
(203,417,l),
(203,750,l),
(45,750,l)
);
}
);
width = 683;
},
{
layerId = "CC0812A7-6C58-46BE-B290-44FED68D5D3B";
associatedMasterId = "49638240-DECC-40F3-A1FC-C881920BB771";
name = "Oct 18, 22, 17:01";
shapes = (
{
closed = 1;
nodes = (
(168,117,o),
(256,-12,o),
(408,-12,cs),
(560,-12,o),
(658,117,o),
(658,300,cs),
(658,483,o),
(560,612,o),
(408,612,cs),
(256,612,o),
(168,483,o),
(138,300,c)
);
},
{
closed = 1;
nodes = (
(178,404,o),
(236,477,o),
(338,477,cs),
(440,477,o),
(498,404,o),
(498,300,cs),
(498,197,o),
(440,123,o),
(338,123,cs),
(236,123,o),
(178,197,o),
(178,300,cs)
);
},
{
closed = 1;
nodes = (
(40,0,l),
(198,0,l),
(198,750,l),
(40,750,l)
);
}
);
width = 678;
},
{
layerId = "56B9FD28-B87D-4260-AB65-84C358AC1CF5";
associatedMasterId = "49638240-DECC-40F3-A1FC-C881920BB771";
name = "Oct 18, 22, 16:42";
shapes = (
{
closed = 1;
nodes = (
(178,117,o),
(256,-12,o),
(408,-12,cs),
(560,-12,o),
(658,117,o),
(658,300,cs),
(658,483,o),
(560,612,o),
(408,612,cs),
(256,612,o),
(178,483,o),
(148,300,c)
);
},
{
closed = 1;
nodes = (
(198,340,ls),
(198,413,o),
(239,477,o),
(337,477,cs),
(443,477,o),
(498,404,o),
(498,300,cs),
(498,197,o),
(443,123,o),
(337,123,cs),
(239,123,o),
(198,188,o),
(198,260,cs)
);
},
{
closed = 1;
nodes = (
(40,0,l),
(198,0,l),
(198,750,l),
(40,750,l)
);
}
);
width = 678;
},
{
layerId = "FD904ED1-31D2-4677-8E06-BA42F06165D2";
associatedMasterId = "49638240-DECC-40F3-A1FC-C881920BB771";
name = "Oct 18, 22, 16:40";
shapes = (
{
closed = 1;
nodes = (
(218,117,o),
(306,-12,o),
(458,-12,cs),
(610,-12,o),
(708,117,o),
(708,300,cs),
(708,483,o),
(610,612,o),
(458,612,cs),
(306,612,o),
(218,483,o),
(138,300,c)
);
},
{
closed = 1;
nodes = (
(218,359,o),
(302,472,o),
(409,472,cs),
(494,472,o),
(548,401,o),
(548,300,cs),
(548,200,o),
(494,128,o),
(409,128,cs),
(302,128,o),
(218,241,o),
(198,300,c)
);
},
{
closed = 1;
nodes = (
(40,0,l),
(198,0,l),
(198,750,l),
(40,750,l)
);
}
);
width = 678;
},
{
layerId = "2F1F469A-B162-407D-8122-8B1C07B2E4F0";
associatedMasterId = "49638240-DECC-40F3-A1FC-C881920BB771";
name = 106;
shapes = (
{
closed = 1;
nodes = (
(163,280,l),
(163,109,o),
(247,-12,o),
(386,-12,cs),
(519,-12,o),
(623,99,o),
(623,280,cs),
(623,461,o),
(519,572,o),
(386,572,cs),
(248,572,o),
(173,451,o),
(173,280,c)
);
},
{
closed = 1;
nodes = (
(197,360,o),
(247,427,o),
(330,427,cs),
(413,427,o),
(463,360,o),
(463,280,cs),
(463,200,o),
(413,133,o),
(330,133,cs),
(247,133,o),
(197,200,o),
(197,280,cs)
);
},
{
closed = 1;
nodes = (
(45,0,l),
(197,0,l),
(197,160,l),
(183,280,l),
(203,377,l),
(203,750,l),
(45,750,l)
);
}
);
width = 653;
},
{
layerId = "49638240-DECC-40F3-A1FC-C881920BB771";
shapes = (
{
closed = 1;
nodes = (
(143,280,l),
(143,89,o),
(235,-12,o),
(370,-12,cs),
(511,-12,o),
(621,99,o),
(621,280,cs),
(621,461,o),
(511,572,o),
(370,572,cs),
(236,572,o),
(153,471,o),
(153,280,c)
);
},
{
closed = 1;
nodes = (
(187,360,o),
(239,427,o),
(324,427,cs),
(409,427,o),
(461,360,o),
(461,280,cs),
(461,200,o),
(409,133,o),
(324,133,cs),
(239,133,o),
(187,200,o),
(187,280,cs)
);
},
{
closed = 1;
nodes = (
(35,0,l),
(187,0,l),
(187,160,l),
(173,280,l),
(193,377,l),
(193,750,l),
(35,750,l)
);
}
);
width = 641;
},
{
layerId = "DB81AED0-F86D-4203-B00A-69C27F071C6D";
associatedMasterId = "BC44314D-ED22-409A-ACDF-E854CADB3608";
name = "Nov 8, 22, 12:22";
shapes = (
{
closed = 1;
nodes = (
(87,280,l),
(87,89,o),
(204,-12,o),
(347,-12,cs),
(502,-12,o),
(629,107,o),
(629,280,cs),
(629,453,o),
(502,572,o),
(347,572,cs),
(204,572,o),
(97,471,o),
(97,280,c)
);
},
{
closed = 1;
nodes = (
(127,404,o),
(207,506,o),
(342,506,cs),
(477,506,o),
(557,404,o),
(557,280,cs),
(557,156,o),
(477,54,o),
(342,54,cs),
(207,54,o),
(127,156,o),
(127,280,cs)
);
},
{
closed = 1;
nodes = (
(55,0,l),
(127,0,l),
(127,160,l),
(107,280,l),
(127,377,l),
(127,750,l),
(55,750,l)
);
}
);
width = 665;
},
{
layerId = "BC44314D-ED22-409A-ACDF-E854CADB3608";
shapes = (
{
closed = 1;
nodes = (
(105,280,l),
(105,89,o),
(220,-12,o),
(362,-12,cs),
(515,-12,o),
(639,107,o),
(639,280,cs),
(639,453,o),
(515,572,o),
(362,572,cs),
(220,572,o),
(115,471,o),
(115,280,c)
);
},
{
closed = 1;
nodes = (
(145,401,o),
(223,500,o),
(355,500,cs),
(485,500,o),
(559,401,o),
(559,280,cs),
(559,159,o),
(485,60,o),
(355,60,cs),
(223,60,o),
(145,159,o),
(145,280,cs)
);
},
{
closed = 1;
nodes = (
(65,0,l),
(145,0,l),
(145,160,l),
(125,280,l),
(145,377,l),
(145,750,l),
(65,750,l)
);
}
);
width = 675;
},
{
layerId = "D7099DF3-6127-46B3-A8CF-22E12F13B3B7";
shapes = (
{
closed = 1;
nodes = (
(90,280,l),
(90,89,o),
(214,-12,o),
(359,-12,cs),
(517,-12,o),
(646,110,o),
(646,280,cs),
(646,450,o),
(517,572,o),
(359,572,cs),
(214,572,o),
(100,471,o),
(100,280,c)
);
},
{
closed = 1;
nodes = (
(128,417,o),
(217,529,o),
(367,529,cs),
(515,529,o),
(598,417,o),
(598,280,cs),
(598,143,o),
(515,31,o),
(367,31,cs),
(217,31,o),
(128,143,o),
(128,280,cs)
);
},
{
closed = 1;
nodes = (
(77,0,l),
(128,0,l),
(128,160,l),
(106,280,l),
(126,377,l),
(126,750,l),
(77,750,l)
);
}
);
width = 689;
}
);
leftKerningGroup = l;
rightKerningGroup = o;
unicode = 98;
},
{
glyphname = c;
layers = (
{
layerId = "F8A18D73-B5E4-4EA7-89C7-63F429A1B906";
associatedMasterId = "49638240-DECC-40F3-A1FC-C881920BB771";
name = v103;
shapes = (
{
closed = 1;
nodes = (
(505,580,l),
(453,601,o),
(400,612,o),
(345,612,cs),
(160,612,o),
(30,483,o),
(30,300,cs),
(30,117,o),
(160,-12,o),
(345,-12,cs),
(400,-12,o),
(453,-1,o),
(505,20,c),
(505,185,l),
(459,162,o),
(409,140,o),
(350,140,cs),
(248,140,o),
(190,209,o),
(190,300,cs),
(190,392,o),
(248,460,o),
(350,460,cs),
(409,460,o),
(459,438,o),
(505,415,c)
);
}
);
width = 545;
},
{
layerId = "5959B84C-6445-4578-9E31-6A3633AE3AAB";
associatedMasterId = "49638240-DECC-40F3-A1FC-C881920BB771";
name = 105;
shapes = (
{
closed = 1;
nodes = (
(495,540,l),
(441,561,o),
(387,572,o),
(332,572,cs),
(154,572,o),
(30,451,o),
(30,280,cs),
(30,109,o),
(154,-12,o),
(332,-12,cs),
(387,-12,o),
(441,-1,o),
(495,20,c),
(495,185,l),
(447,162,o),
(396,140,o),
(338,140,cs),
(243,140,o),
(190,200,o),
(190,280,cs),
(190,361,o),
(243,420,o),
(338,420,cs),
(396,420,o),
(447,398,o),
(495,375,c)
);
}
);
width = 530;
},
{
anchors = (
{
name = bottom;
position = "{283, 0}";
},
{
name = top;
position = "{283, 560}";
}
);
layerId = "49638240-DECC-40F3-A1FC-C881920BB771";
shapes = (
{
closed = 1;
nodes = (
(470,545,l),
(421,563,o),
(372,572,o),
(322,572,cs),
(144,572,o),
(20,451,o),
(20,280,cs),
(20,109,o),
(144,-12,o),
(322,-12,cs),
(372,-12,o),
(421,-3,o),
(470,15,c),
(470,170,l),
(422,155,o),
(376,140,o),
(328,140,cs),
(233,140,o),
(180,200,o),
(180,280,cs),
(180,361,o),
(233,420,o),
(328,420,cs),
(376,420,o),
(422,405,o),
(470,390,c)
);
}
);
width = 505;
},
{
anchors = (
{
name = bottom;
position = "{258, 0}";
},
{
name = top;
position = "{258, 560}";
}
);
layerId = "BC44314D-ED22-409A-ACDF-E854CADB3608";
shapes = (
{
closed = 1;
nodes = (
(471,550,l),
(425,565,o),
(380,572,o),
(337,572,cs),
(160,572,o),
(36,451,o),
(36,280,cs),
(36,109,o),
(160,-12,o),
(337,-12,cs),
(380,-12,o),
(425,-5,o),
(471,10,c),
(471,85,l),
(430,73,o),
(387,60,o),
(336,60,cs),
(198,60,o),
(116,154,o),
(116,280,cs),
(116,407,o),
(198,500,o),
(336,500,cs),
(386,500,o),
(429,488,o),
(471,475,c)
);
}
);
width = 516;
},
{
anchors = (
{
name = bottom;
position = "{248, 0}";
},
{
name = top;
position = "{248, 560}";
}
);
layerId = "D7099DF3-6127-46B3-A8CF-22E12F13B3B7";
shapes = (
{
closed = 1;
nodes = (
(471,552,l),
(427,566,o),
(383,572,o),
(343,572,cs),
(166,572,o),
(42,451,o),
(42,280,cs),
(42,109,o),
(166,-12,o),
(343,-12,cs),
(383,-12,o),
(427,-6,o),
(471,8,c),
(471,51,l),
(433,40,o),
(391,28,o),
(339,28,cs),
(184,28,o),
(90,136,o),
(90,280,cs),
(90,425,o),
(184,532,o),
(339,532,cs),
(390,532,o),
(432,521,o),
(471,509,c)
);
}
);
width = 520;
}
);
leftKerningGroup = o;
rightKerningGroup = c;
unicode = 99;
},
{
glyphname = d;
layers = (
{
layerId = "15187948-5E2B-4937-84A8-F930C78DD539";
name = "#instance";
shapes = (
{
closed = 1;
nodes = (
(560,280,l),
(560,471,o),
(455,572,o),
(313,572,cs),
(160,572,o),
(36,453,o),
(36,280,cs),
(36,107,o),
(160,-12,o),
(313,-12,cs),
(455,-12,o),
(570,89,o),
(570,280,c)
);
},
{
closed = 1;
nodes = (
(530,159,o),
(452,60,o),
(320,60,cs),
(190,60,o),
(116,159,o),
(116,280,cs),
(116,401,o),
(190,500,o),
(320,500,cs),
(452,500,o),
(530,401,o),
(530,280,cs)
);
},
{
closed = 1;
nodes = (
(610,0,l),
(610,750,l),
(530,750,l),
(530,377,l),
(550,280,l),
(530,160,l),
(530,0,l)
);
}
);
width = 675;
},
{
layerId = "F8A18D73-B5E4-4EA7-89C7-63F429A1B906";
associatedMasterId = "49638240-DECC-40F3-A1FC-C881920BB771";
name = v103;
shapes = (
{
closed = 1;
nodes = (
(510,300,l),
(510,483,o),
(437,612,o),
(282,612,cs),
(133,612,o),
(30,493,o),
(30,300,cs),
(30,107,o),
(133,-12,o),
(282,-12,cs),
(437,-12,o),
(520,117,o),
(520,300,c)
);
},
{
closed = 1;
nodes = (
(486,200,o),
(436,128,o),
(338,128,cs),
(240,128,o),
(190,200,o),
(190,300,cs),
(190,401,o),
(240,472,o),
(338,472,cs),
(436,472,o),
(486,401,o),
(486,300,cs)
);
},
{
closed = 1;
nodes = (
(480,750,l),
(480,417,l),
(500,300,l),
(486,180,l),
(486,0,l),
(638,0,l),
(638,750,l)
);
}
);
width = 683;
},
{
layerId = "49638240-DECC-40F3-A1FC-C881920BB771";
shapes = (
{
closed = 1;
nodes = (
(488,280,l),
(488,471,o),
(405,572,o),
(271,572,cs),
(130,572,o),
(20,461,o),
(20,280,cs),
(20,99,o),
(130,-12,o),
(271,-12,cs),
(406,-12,o),
(498,89,o),
(498,280,c)
);
},
{
closed = 1;
nodes = (
(454,200,o),
(402,133,o),
(317,133,cs),
(232,133,o),
(180,200,o),
(180,280,cs),
(180,360,o),
(232,427,o),
(317,427,cs),
(402,427,o),
(454,360,o),
(454,280,cs)
);
},
{
closed = 1;
nodes = (
(606,0,l),
(606,750,l),
(448,750,l),
(448,377,l),
(468,280,l),
(454,160,l),
(454,0,l)
);
}
);
width = 641;
},
{
layerId = "BC44314D-ED22-409A-ACDF-E854CADB3608";
shapes = (
{
closed = 1;
nodes = (
(560,280,l),
(560,471,o),
(455,572,o),
(313,572,cs),
(160,572,o),
(36,453,o),
(36,280,cs),
(36,107,o),
(160,-12,o),
(313,-12,cs),
(455,-12,o),
(570,89,o),
(570,280,c)
);
},
{
closed = 1;
nodes = (
(530,159,o),
(452,60,o),
(320,60,cs),
(190,60,o),
(116,159,o),
(116,280,cs),
(116,401,o),
(190,500,o),
(320,500,cs),
(452,500,o),
(530,401,o),
(530,280,cs)
);
},
{
closed = 1;
nodes = (
(610,0,l),
(610,750,l),
(530,750,l),
(530,377,l),
(550,280,l),
(530,160,l),
(530,0,l)
);
}
);
width = 675;
},
{
layerId = "D7099DF3-6127-46B3-A8CF-22E12F13B3B7";
shapes = (
{
closed = 1;
nodes = (
(589,280,l),
(589,471,o),
(475,572,o),
(330,572,cs),
(172,572,o),
(43,450,o),
(43,280,cs),
(43,110,o),
(172,-12,o),
(330,-12,cs),
(475,-12,o),
(599,89,o),
(599,280,c)
);
},
{
closed = 1;
nodes = (
(561,143,o),
(472,31,o),
(322,31,cs),
(174,31,o),
(91,143,o),
(91,280,cs),
(91,417,o),
(174,529,o),
(322,529,cs),
(472,529,o),
(561,417,o),
(561,280,cs)
);
},
{
closed = 1;
nodes = (
(612,0,l),
(612,750,l),
(563,750,l),
(563,377,l),
(583,280,l),
(561,160,l),
(561,0,l)
);
}
);
width = 689;
}
);
leftKerningGroup = o;
rightKerningGroup = l;
unicode = 100;
},
{
glyphname = eth;
layers = (
{
layerId = "403A4794-B998-4754-846D-7CD2BB9B4ED2";
associatedMasterId = "49638240-DECC-40F3-A1FC-C881920BB771";
name = "Nov 28, 22, 16:21";
shapes = (
{
closed = 1;
nodes = (
(384,178,o),
(343,132,o),
(284,132,cs),
(225,132,o),
(184,178,o),
(184,244,cs),
(184,310,o),
(225,356,o),
(284,356,cs),
(343,356,o),
(384,310,o),
(384,244,cs)
);
},
{
closed = 1;
nodes = (
(416,388,l),
(379,438,o),
(324,482,o),
(246,482,cs),
(133,482,o),
(20,393,o),
(20,240,cs),
(20,87,o),
(126,-12,o),
(284,-12,cs),
(434,-12,o),
(548,86,o),
(548,263,cs),
(548,457,o),
(413,654,o),
(316,760,c),
(112,760,l),
(220,653,o),
(297,537,o),
(355,410,c)
);
},
{
closed = 1;
nodes = (
(504,650,l),
(504,750,l),
(96,600,l),
(96,500,l)
);
}
);
width = 568;
},
{
layerId = "49638240-DECC-40F3-A1FC-C881920BB771";
shapes = (
{
closed = 1;
nodes = (
(424,184,o),
(375,132,o),
(304,132,cs),
(233,132,o),
(184,184,o),
(184,259,cs),
(184,334,o),
(233,386,o),
(304,386,cs),
(375,386,o),
(424,334,o),
(424,259,cs)
);
},
{
closed = 1;
nodes = (
(456,403,l),
(415,461,o),
(349,506,o),
(260,506,cs),
(139,506,o),
(20,417,o),
(20,255,cs),
(20,97,o),
(138,-12,o),
(304,-12,cs),
(465,-12,o),
(588,90,o),
(588,273,cs),
(588,463,o),
(453,656,o),
(356,760,c),
(152,760,l),
(260,658,o),
(337,547,o),
(395,425,c)
);
},
{
closed = 1;
nodes = (
(544,650,l),
(544,750,l),
(116,630,l),
(116,530,l)
);
}
);
width = 608;
},
{
layerId = "BC44314D-ED22-409A-ACDF-E854CADB3608";
shapes = (
{
closed = 1;
nodes = (
(477,137,o),
(403,62,o),
(297,62,cs),
(190,62,o),
(117,137,o),
(117,244,cs),
(117,351,o),
(190,426,o),
(297,426,cs),
(403,426,o),
(477,351,o),
(477,244,cs)
);
},
{
closed = 1;
nodes = (
(489,388,l),
(446,443,o),
(371,497,o),
(278,497,cs),
(162,497,o),
(36,412,o),
(36,249,cs),
(36,100,o),
(143,-12,o),
(297,-12,cs),
(450,-12,o),
(557,77,o),
(557,262,cs),
(557,445,o),
(454,650,o),
(321,760,c),
(208,760,l),
(351,651,o),
(437,515,o),
(474,350,c)
);
},
{
closed = 1;
nodes = (
(523,685,l),
(523,750,l),
(152,603,l),
(152,538,l)
);
}
);
width = 593;
},
{
layerId = "D7099DF3-6127-46B3-A8CF-22E12F13B3B7";
shapes = (
{
closed = 1;
nodes = (
(498,118,o),
(414,34,o),
(294,34,cs),
(173,34,o),
(90,118,o),
(90,238,cs),
(90,358,o),
(173,442,o),
(294,442,cs),
(414,442,o),
(498,358,o),
(498,238,cs)
);
},
{
closed = 1;
nodes = (
(502,382,l),
(458,436,o),
(380,493,o),
(285,493,cs),
(171,493,o),
(42,410,o),
(42,247,cs),
(42,101,o),
(145,-12,o),
(294,-12,cs),
(444,-12,o),
(545,72,o),
(545,258,cs),
(545,438,o),
(454,648,o),
(307,760,c),
(230,760,l),
(387,648,o),
(477,502,o),
(506,320,c)
);
},
{
closed = 1;
nodes = (
(515,699,l),
(515,750,l),
(166,592,l),
(166,541,l)
);
}
);
width = 587;
}
);
unicode = 240;
},
{
glyphname = e;
layers = (
{
layerId = "F8A18D73-B5E4-4EA7-89C7-63F429A1B906";
associatedMasterId = "49638240-DECC-40F3-A1FC-C881920BB771";
name = v103;
shapes = (
{
closed = 1;
nodes = (
(195,340,ls),
(195,408,o),
(233,472,o),
(323,472,cs),
(413,472,o),
(446,408,o),
(446,340,c),
(491,349,l),
(118,349,l),
(118,241,l),
(600,241,l),
(603,269,o),
(606,299,o),
(606,330,cs),
(606,479,o),
(504,612,o),
(326,612,cs),
(149,612,o),
(30,478,o),
(30,300,cs),
(30,115,o),
(158,-12,o),
(353,-12,cs),
(415,-12,o),
(487,1,o),
(565,32,c),
(565,180,l),
(495,152,o),
(421,130,o),
(358,130,cs),
(246,130,o),
(195,199,o),
(195,260,cs)
);
}
);
width = 636;
},
{
anchors = (
{
name = bottom;
position = "{293, 0}";
},
{
name = ogonek;
position = "{424, 0}";
},
{
name = top;
position = "{293, 560}";
}
);
layerId = "7442D79B-2FDE-4CE8-B537-E62A1D39FF5D";
associatedMasterId = "49638240-DECC-40F3-A1FC-C881920BB771";
name = "Jan 10, 23, 16:27";
shapes = (
{
closed = 1;
nodes = (
(387,-12,o),
(456,1,o),
(520,32,c),
(520,180,l),
(462,150,o),
(403,130,o),
(341,130,cs),
(231,130,o),
(185,188,o),
(185,240,cs),
(185,323,ls),
(185,381,o),
(218,435,o),
(298,435,cs),
(377,435,o),
(406,381,o),
(406,323,c),
(451,332,l),
(88,332,l),
(88,221,l),
(560,221,l),
(563,246,o),
(566,272,o),
(566,300,cs),
(566,447,o),
(469,572,o),
(301,572,cs),
(133,572,o),
(20,447,o),
(20,280,cs),
(20,107,o),
(142,-12,o),
(328,-12,cs)
);
}
);
width = 586;
},
{
anchors = (
{
name = bottom;
position = "{290, 0}";
},
{
name = ogonek;
position = "{421, 0}";
},
{
name = top;
position = "{290, 560}";
}
);
layerId = "49638240-DECC-40F3-A1FC-C881920BB771";
shapes = (
{
closed = 1;
nodes = (
(384,-12,o),
(451,1,o),
(515,32,c),
(515,180,l),
(457,150,o),
(400,130,o),
(338,130,cs),
(228,130,o),
(185,188,o),
(185,240,cs),
(185,323,ls),
(185,381,o),
(215,437,o),
(295,437,cs),
(374,437,o),
(400,381,o),
(400,323,c),
(445,332,l),
(88,332,l),
(88,221,l),
(554,221,l),
(557,246,o),
(560,272,o),
(560,300,cs),
(560,447,o),
(466,572,o),
(298,572,cs),
(130,572,o),
(20,447,o),
(20,280,cs),
(20,107,o),
(139,-12,o),
(325,-12,cs)
);
}
);
width = 580;
},
{
anchors = (
{
name = bottom;
position = "{307, 0}";
},
{
name = ogonek;
position = "{429, 0}";
},
{
name = top;
position = "{307, 560}";
}
);
layerId = "13EEC619-B3D6-4885-A3BF-ADFFFF863DDD";
associatedMasterId = "BC44314D-ED22-409A-ACDF-E854CADB3608";
name = "Jan 10, 23, 16:27";
shapes = (
{
closed = 1;
nodes = (
(404,-12,o),
(471,2,o),
(537,34,c),
(537,118,l),
(469,76,o),
(403,60,o),
(344,60,cs),
(199,60,o),
(116,156,o),
(116,270,cs),
(116,290,ls),
(116,404,o),
(187,500,o),
(314,500,cs),
(435,500,o),
(499,415,o),
(499,290,c),
(523,316,l),
(110,316,l),
(110,248,l),
(574,248,l),
(576,262,o),
(578,279,o),
(578,300,cs),
(578,445,o),
(480,572,o),
(314,572,cs),
(146,572,o),
(36,445,o),
(36,280,cs),
(36,115,o),
(149,-12,o),
(340,-12,cs)
);
}
);
width = 614;
},
{
anchors = (
{
name = bottom;
position = "{304, 0}";
},
{
name = ogonek;
position = "{426, 0}";
},
{
name = top;
position = "{304, 560}";
}
);
layerId = "BC44314D-ED22-409A-ACDF-E854CADB3608";
shapes = (
{
closed = 1;
nodes = (
(401,-12,o),
(467,2,o),
(531,34,c),
(531,118,l),
(465,76,o),
(400,60,o),
(341,60,cs),
(196,60,o),
(116,156,o),
(116,270,cs),
(116,290,ls),
(116,404,o),
(184,500,o),
(311,500,cs),
(432,500,o),
(493,415,o),
(493,290,c),
(517,316,l),
(80,316,l),
(80,248,l),
(568,248,l),
(570,262,o),
(572,279,o),
(572,300,cs),
(572,445,o),
(477,572,o),
(311,572,cs),
(143,572,o),
(36,445,o),
(36,280,cs),
(36,115,o),
(146,-12,o),
(337,-12,cs)
);
}
);
width = 608;
},
{
anchors = (
{
name = bottom;
position = "{310, 0}";
},
{
name = ogonek;
position = "{428, 0}";
},
{
name = top;
position = "{310, 560}";
}
);
layerId = "D7099DF3-6127-46B3-A8CF-22E12F13B3B7";
shapes = (
{
closed = 1;
nodes = (
(408,-12,o),
(473,2,o),
(537,35,c),
(537,93,l),
(468,46,o),
(400,32,o),
(342,32,cs),
(183,32,o),
(88,143,o),
(88,282,c),
(88,277,l),
(88,413,o),
(172,525,o),
(317,525,cs),
(455,525,o),
(530,429,o),
(530,277,c),
(546,300,l),
(77,300,l),
(77,259,l),
(574,259,l),
(575,268,o),
(577,282,o),
(577,300,cs),
(577,444,o),
(481,572,o),
(316,572,cs),
(148,572,o),
(42,444,o),
(42,280,cs),
(42,118,o),
(149,-12,o),
(342,-12,cs)
);
}
);
width = 619;
}
);
leftKerningGroup = o;
rightKerningGroup = e;
unicode = 101;
},
{
glyphname = f;
layers = (
{
layerId = "15187948-5E2B-4937-84A8-F930C78DD539";
name = "#instance";
shapes = (
{
closed = 1;
nodes = (
(181,765,o),
(120,694,o),
(120,593,cs),
(120,0,l),
(200,0,l),
(200,590,ls),
(200,668,o),
(234,693,o),
(294,693,cs),
(317,693,o),
(343,690,o),
(365,687,c),
(365,755,l),
(337,762,o),
(312,765,o),
(289,765,cs)
);
},
{
closed = 1;
nodes = (
(365,488,l),
(365,560,l),
(35,560,l),
(35,488,l)
);
}
);
width = 400;
},
{
layerId = "F8A18D73-B5E4-4EA7-89C7-63F429A1B906";
associatedMasterId = "49638240-DECC-40F3-A1FC-C881920BB771";
name = v103;
shapes = (
{
closed = 1;
nodes = (
(173,755,o),
(110,674,o),
(110,588,cs),
(110,0,l),
(268,0,l),
(268,578,ls),
(268,618,o),
(286,625,o),
(319,625,cs),
(344,625,o),
(367,621,o),
(388,616,c),
(388,743,l),
(351,750,o),
(318,755,o),
(287,755,cs)
);
},
{
closed = 1;
nodes = (
(390,404,l),
(390,550,l),
(25,550,l),
(25,404,l)
);
}
);
width = 415;
},
{
layerId = "9E67CD93-18DF-41F1-98A4-0EC1A048C26F";
associatedMasterId = "49638240-DECC-40F3-A1FC-C881920BB771";
name = "Nov 7, 22, 23:25";
shapes = (
{
closed = 1;
nodes = (
(173,755,o),
(110,674,o),
(110,588,cs),
(110,0,l),
(268,0,l),
(268,565,ls),
(268,605,o),
(288,620,o),
(331,620,cs),
(351,620,o),
(371,617,o),
(390,614,c),
(390,746,l),
(358,751,o),
(325,755,o),
(297,755,cs)
);
},
{
closed = 1;
nodes = (
(390,414,l),
(390,560,l),
(25,560,l),
(25,414,l)
);
}
);
width = 415;
},
{
layerId = "BF198507-2593-4A78-840A-C812E246D46F";
associatedMasterId = "49638240-DECC-40F3-A1FC-C881920BB771";
name = "Jan 13, 23, 18:00";
shapes = (
{
closed = 1;
nodes = (
(163,765,o),
(100,674,o),
(100,588,cs),
(100,0,l),
(258,0,l),
(258,570,ls),
(258,605,o),
(270,627,o),
(315,627,cs),
(336,627,o),
(362,623,o),
(380,620,c),
(380,755,l),
(350,761,o),
(320,765,o),
(289,765,cs)
);
},
{
closed = 1;
nodes = (
(380,414,l),
(380,560,l),
(15,560,l),
(15,414,l)
);
}
);
width = 395;
},
{
layerId = "33A4DFF1-526E-460A-BCB8-5A89BF21ABC1";
associatedMasterId = "49638240-DECC-40F3-A1FC-C881920BB771";
name = "Jan 12, 23, 18:02";
shapes = (
{
closed = 1;
nodes = (
(163,765,o),
(100,674,o),
(100,588,cs),
(100,0,l),
(258,0,l),
(258,565,ls),
(258,605,o),
(278,627,o),
(324,627,cs),
(343,627,o),
(364,623,o),
(380,620,c),
(380,755,l),
(350,761,o),
(320,765,o),
(289,765,cs)
);
},
{
closed = 1;
nodes = (
(380,414,l),
(380,560,l),
(15,560,l),
(15,414,l)
);
}
);
width = 395;
},
{
layerId = "49638240-DECC-40F3-A1FC-C881920BB771";
shapes = (
{
closed = 1;
nodes = (
(163,765,o),
(100,674,o),
(100,588,cs),
(100,0,l),
(258,0,l),
(258,570,ls),
(258,605,o),
(270,627,o),
(315,627,cs),
(336,627,o),
(362,623,o),
(380,620,c),
(380,755,l),
(350,761,o),
(320,765,o),
(289,765,cs)
);
},
{
closed = 1;
nodes = (
(380,418,l),
(380,560,l),
(15,560,l),
(15,418,l)
);
}
);
width = 395;
},
{
layerId = "BC44314D-ED22-409A-ACDF-E854CADB3608";
shapes = (
{
closed = 1;
nodes = (
(181,765,o),
(120,694,o),
(120,593,cs),
(120,0,l),
(200,0,l),
(200,590,ls),
(200,668,o),
(234,693,o),
(294,693,cs),
(317,693,o),
(343,690,o),
(365,687,c),
(365,755,l),
(337,762,o),
(312,765,o),
(289,765,cs)
);
},
{
closed = 1;
nodes = (
(365,488,l),
(365,560,l),
(35,560,l),
(35,488,l)
);
}
);
width = 400;
},
{
layerId = "D7099DF3-6127-46B3-A8CF-22E12F13B3B7";
shapes = (
{
closed = 1;
nodes = (
(188,765,o),
(128,702,o),
(128,595,cs),
(128,0,l),
(177,0,l),
(177,598,ls),
(177,693,o),
(220,719,o),
(286,719,cs),
(309,719,o),
(335,717,o),
(359,714,c),
(359,755,l),
(332,762,o),
(309,765,o),
(289,765,cs)
);
},
{
closed = 1;
nodes = (
(359,516,l),
(359,560,l),
(43,560,l),
(43,516,l)
);
}
);
width = 402;
}
);
leftKerningGroup = f;
rightKerningGroup = f;
unicode = 102;
},
